<svg width="33" height="32" fill="none" xmlns="http://www.w3.org/2000/svg"><rect x="0.666016" width="32" height="32" rx="8" fill="url(#paint0_linear_4650_2606)"/><mask id="mask0_4650_2606" style="mask-type:alpha" maskUnits="userSpaceOnUse" x="6" y="6" width="21" height="20"><rect x="6.66602" y="6" width="20" height="20" fill="#D9D9D9"/></mask><g mask="url(#mask0_4650_2606)"><path d="M20.8333 20.1665C21.1806 20.1665 21.4756 20.0448 21.7183 19.8015C21.9617 19.5587 22.0833 19.2637 22.0833 18.9165C22.0833 18.5693 21.9617 18.2743 21.7183 18.0315C21.4756 17.7882 21.1806 17.6665 20.8333 17.6665C20.4861 17.6665 20.1911 17.7882 19.9483 18.0315C19.705 18.2743 19.5833 18.5693 19.5833 18.9165C19.5833 19.2637 19.705 19.5587 19.9483 19.8015C20.1911 20.0448 20.4861 20.1665 20.8333 20.1665ZM20.8333 22.6665C21.2639 22.6665 21.6597 22.5657 22.0208 22.364C22.3819 22.1629 22.6736 21.8957 22.8958 21.5623C22.5903 21.3818 22.2639 21.2429 21.9167 21.1457C21.5694 21.0484 21.2083 20.9998 20.8333 20.9998C20.4583 20.9998 20.0972 21.0484 19.75 21.1457C19.4028 21.2429 19.0764 21.3818 18.7708 21.5623C18.9931 21.8957 19.2847 22.1629 19.6458 22.364C20.0069 22.5657 20.4028 22.6665 20.8333 22.6665ZM16.6667 24.3332C14.7361 23.8471 13.1425 22.7393 11.8858 21.0098C10.6286 19.2809 10 17.3609 10 15.2498V10.1665L16.6667 7.6665L23.3333 10.1665V14.8957C23.0694 14.7846 22.7986 14.6837 22.5208 14.5932C22.2431 14.5032 21.9583 14.4373 21.6667 14.3957V11.3332L16.6667 9.45817L11.6667 11.3332V15.2498C11.6667 15.9026 11.7533 16.5554 11.9267 17.2082C12.1006 17.8609 12.3439 18.4826 12.6567 19.0732C12.9689 19.6632 13.3472 20.2082 13.7917 20.7082C14.2361 21.2082 14.7292 21.6248 15.2708 21.9582C15.4236 22.4026 15.625 22.8262 15.875 23.229C16.125 23.6318 16.4097 23.9929 16.7292 24.3123C16.7153 24.3123 16.705 24.3159 16.6983 24.3232C16.6911 24.3298 16.6806 24.3332 16.6667 24.3332ZM20.8333 24.3332C19.6806 24.3332 18.6981 23.9271 17.8858 23.1148C17.0731 22.3021 16.6667 21.3193 16.6667 20.1665C16.6667 19.0137 17.0731 18.0309 17.8858 17.2182C18.6981 16.4059 19.6806 15.9998 20.8333 15.9998C21.9861 15.9998 22.9689 16.4059 23.7817 17.2182C24.5939 18.0309 25 19.0137 25 20.1665C25 21.3193 24.5939 22.3021 23.7817 23.1148C22.9689 23.9271 21.9861 24.3332 20.8333 24.3332Z" fill="white"/></g><defs><linearGradient id="paint0_linear_4650_2606" x1="32.666" y1="32" x2="0.666014" y2="-4" gradientUnits="userSpaceOnUse"><stop stop-color="#0462C0"/><stop offset="1" stop-color="#0B82FA"/></linearGradient></defs></svg>