<svg width="32" height="32" viewBox="0 0 32 32" fill="none" xmlns="http://www.w3.org/2000/svg">
<rect width="32" height="32" rx="8" fill="url(#paint0_linear_4650_2634)"/>
<mask id="mask0_4650_2634" style="mask-type:alpha" maskUnits="userSpaceOnUse" x="6" y="6" width="20" height="20">
<rect x="6" y="6" width="20" height="20" fill="#D9D9D9"/>
</mask>
<g mask="url(#mask0_4650_2634)">
<path d="M16 15.1667C13.9167 15.1667 12.1458 14.8403 10.6875 14.1875C9.22917 13.5347 8.5 12.75 8.5 11.8333C8.5 10.9167 9.22917 10.1319 10.6875 9.47917C12.1458 8.82639 13.9167 8.5 16 8.5C18.0833 8.5 19.8542 8.82639 21.3125 9.47917C22.7708 10.1319 23.5 10.9167 23.5 11.8333C23.5 12.75 22.7708 13.5347 21.3125 14.1875C19.8542 14.8403 18.0833 15.1667 16 15.1667ZM16 19.3333C13.9167 19.3333 12.1458 19.0069 10.6875 18.3542C9.22917 17.7014 8.5 16.9167 8.5 16V13.9167C8.5 14.5278 8.78472 15.0453 9.35417 15.4692C9.92361 15.8925 10.6042 16.2361 11.3958 16.5C12.1875 16.7639 13.0106 16.9547 13.865 17.0725C14.7189 17.1908 15.4306 17.25 16 17.25C16.5694 17.25 17.2811 17.1908 18.135 17.0725C18.9894 16.9547 19.8125 16.7639 20.6042 16.5C21.3958 16.2361 22.0764 15.8925 22.6458 15.4692C23.2153 15.0453 23.5 14.5278 23.5 13.9167V16C23.5 16.9167 22.7708 17.7014 21.3125 18.3542C19.8542 19.0069 18.0833 19.3333 16 19.3333ZM16 23.5C13.9167 23.5 12.1458 23.1736 10.6875 22.5208C9.22917 21.8681 8.5 21.0833 8.5 20.1667V18.0833C8.5 18.6944 8.78472 19.2119 9.35417 19.6358C9.92361 20.0592 10.6042 20.4028 11.3958 20.6667C12.1875 20.9306 13.0106 21.1217 13.865 21.24C14.7189 21.3578 15.4306 21.4167 16 21.4167C16.5694 21.4167 17.2811 21.3578 18.135 21.24C18.9894 21.1217 19.8125 20.9306 20.6042 20.6667C21.3958 20.4028 22.0764 20.0592 22.6458 19.6358C23.2153 19.2119 23.5 18.6944 23.5 18.0833V20.1667C23.5 21.0833 22.7708 21.8681 21.3125 22.5208C19.8542 23.1736 18.0833 23.5 16 23.5Z" fill="white"/>
</g>
<defs>
<linearGradient id="paint0_linear_4650_2634" x1="32" y1="32" x2="-1.82494e-06" y2="-4" gradientUnits="userSpaceOnUse">
<stop stop-color="#0462C0"/>
<stop offset="1" stop-color="#0B82FA"/>
</linearGradient>
</defs>
</svg>
