<svg width="33" height="32" fill="none" xmlns="http://www.w3.org/2000/svg"><rect x="0.333984" width="32" height="32" rx="8" fill="url(#paint0_linear_4650_2669)"/><mask id="mask0_4650_2669" style="mask-type:alpha" maskUnits="userSpaceOnUse" x="6" y="6" width="21" height="20"><rect x="6.33398" y="6" width="20" height="20" fill="#D9D9D9"/></mask><g mask="url(#mask0_4650_2669)"><path d="M10.5 19.3333H12.1667C12.1667 18.875 12.0033 18.4825 11.6767 18.1558C11.3506 17.8297 10.9583 17.6667 10.5 17.6667V19.3333ZM13.4583 19.3333H14.6667C14.6667 18.1806 14.2603 17.1978 13.4475 16.385C12.6353 15.5728 11.6528 15.1667 10.5 15.1667V16.375C11.3194 16.375 12.0175 16.6633 12.5942 17.24C13.1703 17.8161 13.4583 18.5139 13.4583 19.3333ZM15.9583 19.3333H17.1667C17.1667 18.4167 16.9931 17.5519 16.6458 16.7392C16.2986 15.9269 15.8231 15.2186 15.2192 14.6142C14.6147 14.0103 13.9064 13.5347 13.0942 13.1875C12.2814 12.8403 11.4167 12.6667 10.5 12.6667V13.875C12.0139 13.875 13.3022 14.4061 14.365 15.4683C15.4272 16.5311 15.9583 17.8194 15.9583 19.3333ZM13 23.5V21.8333H9.66667C9.20833 21.8333 8.81611 21.6703 8.49 21.3442C8.16333 21.0175 8 20.625 8 20.1667V10.1667C8 9.70833 8.16333 9.31583 8.49 8.98917C8.81611 8.66306 9.20833 8.5 9.66667 8.5H23C23.4583 8.5 23.8508 8.66306 24.1775 8.98917C24.5036 9.31583 24.6667 9.70833 24.6667 10.1667V20.1667C24.6667 20.625 24.5036 21.0175 24.1775 21.3442C23.8508 21.6703 23.4583 21.8333 23 21.8333H19.6667V23.5H13ZM9.66667 20.1667H23V10.1667H9.66667V20.1667Z" fill="white"/></g><defs><linearGradient id="paint0_linear_4650_2669" x1="32.334" y1="32" x2="0.333983" y2="-4" gradientUnits="userSpaceOnUse"><stop stop-color="#0462C0"/><stop offset="1" stop-color="#0B82FA"/></linearGradient></defs></svg>