<svg width="33" height="32" fill="none" xmlns="http://www.w3.org/2000/svg"><rect x="0.333984" width="32" height="32" rx="8" fill="url(#paint0_linear_4650_2626)"/><mask id="mask0_4650_2626" style="mask-type:alpha" maskUnits="userSpaceOnUse" x="6" y="6" width="21" height="20"><rect x="6.33398" y="6" width="20" height="20" fill="#D9D9D9"/></mask><g mask="url(#mask0_4650_2626)"><path d="M15.5 20.1665H17.1667V15.1665H15.5V20.1665ZM16.3333 13.4998C16.5694 13.4998 16.7675 13.4198 16.9275 13.2598C17.0869 13.1004 17.1667 12.9026 17.1667 12.6665C17.1667 12.4304 17.0869 12.2323 16.9275 12.0723C16.7675 11.9129 16.5694 11.8332 16.3333 11.8332C16.0972 11.8332 15.8994 11.9129 15.74 12.0723C15.58 12.2323 15.5 12.4304 15.5 12.6665C15.5 12.9026 15.58 13.1004 15.74 13.2598C15.8994 13.4198 16.0972 13.4998 16.3333 13.4998ZM16.3333 24.3332C15.1806 24.3332 14.0972 24.1143 13.0833 23.6765C12.0694 23.2393 11.1875 22.6457 10.4375 21.8957C9.6875 21.1457 9.09389 20.2637 8.65667 19.2498C8.21889 18.2359 8 17.1526 8 15.9998C8 14.8471 8.21889 13.7637 8.65667 12.7498C9.09389 11.7359 9.6875 10.854 10.4375 10.104C11.1875 9.354 12.0694 8.76011 13.0833 8.32234C14.0972 7.88511 15.1806 7.6665 16.3333 7.6665C17.4861 7.6665 18.5694 7.88511 19.5833 8.32234C20.5972 8.76011 21.4792 9.354 22.2292 10.104C22.9792 10.854 23.5728 11.7359 24.01 12.7498C24.4478 13.7637 24.6667 14.8471 24.6667 15.9998C24.6667 17.1526 24.4478 18.2359 24.01 19.2498C23.5728 20.2637 22.9792 21.1457 22.2292 21.8957C21.4792 22.6457 20.5972 23.2393 19.5833 23.6765C18.5694 24.1143 17.4861 24.3332 16.3333 24.3332ZM16.3333 22.6665C18.1944 22.6665 19.7708 22.0207 21.0625 20.729C22.3542 19.4373 23 17.8609 23 15.9998C23 14.1387 22.3542 12.5623 21.0625 11.2707C19.7708 9.979 18.1944 9.33317 16.3333 9.33317C14.4722 9.33317 12.8958 9.979 11.6042 11.2707C10.3125 12.5623 9.66667 14.1387 9.66667 15.9998C9.66667 17.8609 10.3125 19.4373 11.6042 20.729C12.8958 22.0207 14.4722 22.6665 16.3333 22.6665Z" fill="white"/></g><defs><linearGradient id="paint0_linear_4650_2626" x1="32.334" y1="32" x2="0.333983" y2="-4" gradientUnits="userSpaceOnUse"><stop stop-color="#0462C0"/><stop offset="1" stop-color="#0B82FA"/></linearGradient></defs></svg>