<svg width="32" height="32" fill="none" xmlns="http://www.w3.org/2000/svg"><rect width="32" height="32" rx="8" fill="url(#paint0_linear_4650_2590)"/><mask id="mask0_4650_2590" style="mask-type:alpha" maskUnits="userSpaceOnUse" x="6" y="6" width="20" height="20"><rect x="6" y="6" width="20" height="20" fill="#D9D9D9"/></mask><g mask="url(#mask0_4650_2590)"><path d="M21.8337 23.5C21.292 23.5 20.8059 23.3439 20.3753 23.0317C19.9448 22.7189 19.6462 22.3194 19.4795 21.8333H15.167C14.2503 21.8333 13.4656 21.5069 12.8128 20.8542C12.16 20.2014 11.8337 19.4167 11.8337 18.5C11.8337 17.5833 12.16 16.7986 12.8128 16.1458C13.4656 15.4931 14.2503 15.1667 15.167 15.1667H16.8337C17.292 15.1667 17.6845 15.0033 18.0112 14.6767C18.3373 14.3506 18.5003 13.9583 18.5003 13.5C18.5003 13.0417 18.3373 12.6492 18.0112 12.3225C17.6845 11.9964 17.292 11.8333 16.8337 11.8333H12.5212C12.3406 12.3194 12.0387 12.7189 11.6153 13.0317C11.1914 13.3439 10.7087 13.5 10.167 13.5C9.47255 13.5 8.88227 13.2569 8.39616 12.7708C7.91005 12.2847 7.66699 11.6944 7.66699 11C7.66699 10.3056 7.91005 9.71528 8.39616 9.22917C8.88227 8.74306 9.47255 8.5 10.167 8.5C10.7087 8.5 11.1914 8.65611 11.6153 8.96833C12.0387 9.28111 12.3406 9.68056 12.5212 10.1667H16.8337C17.7503 10.1667 18.535 10.4931 19.1878 11.1458C19.8406 11.7986 20.167 12.5833 20.167 13.5C20.167 14.4167 19.8406 15.2014 19.1878 15.8542C18.535 16.5069 17.7503 16.8333 16.8337 16.8333H15.167C14.7087 16.8333 14.3164 16.9964 13.9903 17.3225C13.6637 17.6492 13.5003 18.0417 13.5003 18.5C13.5003 18.9583 13.6637 19.3508 13.9903 19.6775C14.3164 20.0036 14.7087 20.1667 15.167 20.1667H19.4795C19.66 19.6806 19.9623 19.2811 20.3862 18.9683C20.8095 18.6561 21.292 18.5 21.8337 18.5C22.5281 18.5 23.1184 18.7431 23.6045 19.2292C24.0906 19.7153 24.3337 20.3056 24.3337 21C24.3337 21.6944 24.0906 22.2847 23.6045 22.7708C23.1184 23.2569 22.5281 23.5 21.8337 23.5ZM10.167 11.8333C10.4031 11.8333 10.6012 11.7536 10.7612 11.5942C10.9206 11.4342 11.0003 11.2361 11.0003 11C11.0003 10.7639 10.9206 10.5658 10.7612 10.4058C10.6012 10.2464 10.4031 10.1667 10.167 10.1667C9.93088 10.1667 9.73283 10.2464 9.57283 10.4058C9.41338 10.5658 9.33366 10.7639 9.33366 11C9.33366 11.2361 9.41338 11.4342 9.57283 11.5942C9.73283 11.7536 9.93088 11.8333 10.167 11.8333Z" fill="white"/></g><defs><linearGradient id="paint0_linear_4650_2590" x1="32" y1="32" x2="-1.82494e-06" y2="-4" gradientUnits="userSpaceOnUse"><stop stop-color="#0462C0"/><stop offset="1" stop-color="#0B82FA"/></linearGradient></defs></svg>