<svg width="33" height="32" viewBox="0 0 33 32" fill="none" xmlns="http://www.w3.org/2000/svg">
<rect x="0.333984" width="32" height="32" rx="8" fill="url(#paint0_linear_4650_2644)"/>
<mask id="mask0_4650_2644" style="mask-type:alpha" maskUnits="userSpaceOnUse" x="6" y="6" width="21" height="20">
<rect x="6.33398" y="6" width="20" height="20" fill="#D9D9D9"/>
</mask>
<g mask="url(#mask0_4650_2644)">
<path d="M13.8333 24.3332C13.0278 24.3332 12.2708 24.1804 11.5625 23.8748C10.8542 23.5693 10.2361 23.1526 9.70833 22.6248C9.18056 22.0971 8.76389 21.479 8.45833 20.7707C8.15278 20.0623 8 19.3054 8 18.4998C8 17.3748 8.29167 16.3471 8.875 15.4165C9.45833 14.4859 10.2222 13.7776 11.1667 13.2915C11.4444 12.7498 11.7883 12.274 12.1983 11.864C12.6078 11.4546 13.0833 11.1109 13.625 10.8332C14.0833 9.88873 14.7847 9.12484 15.7292 8.5415C16.6736 7.95817 17.7083 7.6665 18.8333 7.6665C19.6389 7.6665 20.3958 7.81928 21.1042 8.12484C21.8125 8.43039 22.4306 8.84706 22.9583 9.37484C23.4861 9.90262 23.9028 10.5207 24.2083 11.229C24.5139 11.9373 24.6667 12.6943 24.6667 13.4998C24.6667 14.6804 24.375 15.7221 23.7917 16.6248C23.2083 17.5276 22.4444 18.2221 21.5 18.7082C21.2222 19.2498 20.8783 19.7254 20.4683 20.1348C20.0589 20.5448 19.5833 20.8887 19.0417 21.1665C18.5556 22.1109 17.8472 22.8748 16.9167 23.4582C15.9861 24.0415 14.9583 24.3332 13.8333 24.3332ZM13.8333 22.6665C14.2917 22.6665 14.7328 22.5971 15.1567 22.4582C15.58 22.3193 15.9722 22.1109 16.3333 21.8332C15.5278 21.8332 14.7708 21.6804 14.0625 21.3748C13.3542 21.0693 12.7361 20.6526 12.2083 20.1248C11.6806 19.5971 11.2639 18.979 10.9583 18.2707C10.6528 17.5623 10.5 16.8054 10.5 15.9998C10.2222 16.3609 10.0139 16.7532 9.875 17.1765C9.73611 17.6004 9.66667 18.0415 9.66667 18.4998C9.66667 19.0832 9.77778 19.6248 10 20.1248C10.2222 20.6248 10.5208 21.0623 10.8958 21.4373C11.2708 21.8123 11.7083 22.1109 12.2083 22.3332C12.7083 22.5554 13.25 22.6665 13.8333 22.6665ZM16.3333 20.1665C16.7917 20.1665 17.2397 20.0971 17.6775 19.9582C18.1147 19.8193 18.5139 19.6109 18.875 19.3332C18.0556 19.3332 17.2917 19.1771 16.5833 18.8648C15.875 18.5521 15.2569 18.1318 14.7292 17.604C14.2014 17.0762 13.7811 16.4582 13.4683 15.7498C13.1561 15.0415 13 14.2776 13 13.4582C12.7222 13.8193 12.5139 14.2184 12.375 14.6557C12.2361 15.0934 12.1667 15.5415 12.1667 15.9998C12.1667 16.5832 12.2744 17.1248 12.49 17.6248C12.705 18.1248 13.0069 18.5623 13.3958 18.9373C13.7708 19.3262 14.2083 19.6284 14.7083 19.844C15.2083 20.059 15.75 20.1665 16.3333 20.1665ZM18.8333 17.6665C19.0833 17.6665 19.3231 17.6457 19.5525 17.604C19.7814 17.5623 20.0139 17.4998 20.25 17.4165C20.5556 16.5832 20.6008 15.7809 20.3858 15.0098C20.1703 14.2393 19.7986 13.5901 19.2708 13.0623C18.7431 12.5346 18.0939 12.1629 17.3233 11.9473C16.5522 11.7323 15.75 11.7776 14.9167 12.0832C14.8333 12.3193 14.7708 12.5518 14.7292 12.7807C14.6875 13.0101 14.6667 13.2498 14.6667 13.4998C14.6667 14.0832 14.7742 14.6248 14.9892 15.1248C15.2047 15.6248 15.5069 16.0623 15.8958 16.4373C16.2708 16.8262 16.7083 17.1284 17.2083 17.344C17.7083 17.559 18.25 17.6665 18.8333 17.6665ZM22.1667 16.0415C22.4444 15.6804 22.6528 15.2809 22.7917 14.8432C22.9306 14.4059 23 13.9582 23 13.4998C23 12.9165 22.8925 12.3748 22.6775 11.8748C22.4619 11.3748 22.1597 10.9373 21.7708 10.5623C21.3958 10.1734 20.9583 9.87123 20.4583 9.65567C19.9583 9.44067 19.4167 9.33317 18.8333 9.33317C18.3472 9.33317 17.8925 9.40261 17.4692 9.5415C17.0453 9.68039 16.6528 9.88873 16.2917 10.1665C17.1111 10.1665 17.875 10.3226 18.5833 10.6348C19.2917 10.9476 19.9097 11.3679 20.4375 11.8957C20.9653 12.4234 21.3856 13.0415 21.6983 13.7498C22.0106 14.4582 22.1667 15.2221 22.1667 16.0415Z" fill="white"/>
</g>
<defs>
<linearGradient id="paint0_linear_4650_2644" x1="32.334" y1="32" x2="0.333983" y2="-4" gradientUnits="userSpaceOnUse">
<stop stop-color="#0462C0"/>
<stop offset="1" stop-color="#0B82FA"/>
</linearGradient>
</defs>
</svg>
