<svg width="132" height="28" viewBox="0 0 132 28" fill="none" xmlns="http://www.w3.org/2000/svg">
<path d="M21.5907 12.4794C21.237 12.8353 20.9661 13.2648 20.7974 13.7373C20.6286 14.2098 20.5662 14.7137 20.6145 15.2131L20.5977 15.1963C20.6473 15.7843 20.568 16.3758 20.3653 16.9299C20.1627 17.4839 19.8417 17.9871 19.4245 18.4043C19.0073 18.8214 18.5042 19.1426 17.9501 19.3451C17.396 19.5477 16.8044 19.6271 16.2166 19.5774L16.2334 19.5942C15.5302 19.5288 14.824 19.6818 14.2109 20.0324C13.5978 20.3831 13.1078 20.9142 12.8078 21.5536C12.5077 22.1929 12.412 22.9091 12.5339 23.6048C12.6559 24.3005 12.9894 24.9416 13.489 25.4407C13.9886 25.9399 14.63 26.2728 15.3257 26.394C16.0215 26.5153 16.7377 26.419 17.3767 26.1184C18.0158 25.8177 18.5465 25.3273 18.8966 24.7139C19.2467 24.1005 19.3991 23.3942 19.333 22.691L19.3507 22.7078C19.3011 22.12 19.3803 21.5284 19.5829 20.9742C19.7856 20.4202 20.1067 19.9171 20.5238 19.4999C20.941 19.0827 21.4442 18.7616 21.9982 18.5591C22.5523 18.3564 23.1439 18.2771 23.7318 18.3267L23.7141 18.3099C24.2884 18.3616 24.8666 18.2674 25.395 18.0361C25.9233 17.8048 26.3847 17.4439 26.7364 16.9869C27.0881 16.5298 27.3188 15.9913 27.4069 15.4214C27.4951 14.8514 27.438 14.2684 27.2408 13.7263C27.0437 13.1844 26.7129 12.7009 26.2792 12.3207C25.8455 11.9406 25.3228 11.6761 24.7597 11.5518C24.1965 11.4275 23.611 11.4472 23.0575 11.6094C22.5041 11.7716 22.0005 12.0708 21.5935 12.4794H21.5907Z" fill="#999999"/>
<path d="M14.7059 17.3935L14.6882 17.3767C15.1878 17.427 15.6923 17.3657 16.1655 17.1972C16.6385 17.0286 17.0682 16.7571 17.4234 16.4021C17.7785 16.0472 18.0505 15.6177 18.2193 15.1448C18.3883 14.6718 18.45 14.1674 18.4 13.6677L18.4178 13.6845C18.3681 13.0966 18.4475 12.505 18.65 11.9509C18.8526 11.3969 19.1738 10.8937 19.5909 10.4765C20.0081 10.0594 20.5112 9.73824 21.0653 9.5357C21.6194 9.33304 22.2109 9.25377 22.7988 9.3034L22.7811 9.2866C23.4844 9.35268 24.1908 9.20013 24.8042 8.84989C25.4177 8.49965 25.9081 7.9687 26.2086 7.32949C26.5091 6.69029 26.6052 5.97393 26.4836 5.27812C26.3621 4.58231 26.0289 3.94094 25.5294 3.44148C25.03 2.94202 24.3886 2.60878 23.6928 2.48725C22.997 2.3657 22.2807 2.46175 21.6414 2.7623C21.0022 3.06284 20.4713 3.55326 20.121 4.16666C19.7707 4.78004 19.6182 5.48655 19.6843 6.1898L19.6675 6.17206C19.7173 6.75996 19.6381 7.35164 19.4356 7.90578C19.233 8.45992 18.9119 8.96316 18.4948 9.3804C18.0776 9.7975 17.5743 10.1187 17.0202 10.3212C16.466 10.5237 15.8743 10.6029 15.2864 10.5531L15.3032 10.5709C14.8036 10.5206 14.299 10.5819 13.826 10.7504C13.353 10.9189 12.9232 11.1905 12.568 11.5455C12.2128 11.9004 11.9409 12.3299 11.772 12.8028C11.6031 13.2758 11.5414 13.7802 11.5914 14.2799L11.5746 14.2631C11.624 14.8509 11.5446 15.4425 11.342 15.9965C11.1393 16.5504 10.8182 17.0536 10.4011 17.4707C9.98395 17.8878 9.48085 18.2089 8.92686 18.4116C8.37287 18.6142 7.78133 18.6937 7.19351 18.6442L7.21031 18.661C6.50706 18.5949 5.80056 18.7474 5.18716 19.0977C4.57378 19.448 4.08336 19.9789 3.78281 20.6181C3.48226 21.2573 3.3862 21.9737 3.50775 22.6695C3.6293 23.3653 3.96254 24.0067 4.46199 24.5061C4.96146 25.0056 5.60282 25.3388 6.29863 25.4603C6.99444 25.5818 7.7108 25.4858 8.35001 25.1853C8.98922 24.8847 9.52016 24.3944 9.8704 23.781C10.2207 23.1675 10.3732 22.4611 10.3071 21.7578L10.3248 21.7746C10.2752 21.1867 10.3545 20.5951 10.5572 20.041C10.7597 19.487 11.0808 18.9838 11.498 18.5666C11.9152 18.1495 12.4183 17.8284 12.9723 17.6258C13.5265 17.4232 14.118 17.3439 14.7059 17.3935Z" fill="#666666"/>
<path d="M8.45054 15.5202C8.80429 15.1644 9.07512 14.7349 9.24372 14.2624C9.41232 13.7898 9.47452 13.2858 9.42587 12.7865L9.44359 12.8033C9.39394 12.2153 9.47324 11.6235 9.67597 11.0692C9.8787 10.515 10.2 10.0118 10.6174 9.59457C11.0348 9.17739 11.5381 8.85633 12.0924 8.65385C12.6467 8.45135 13.2385 8.3723 13.8265 8.42221L13.8088 8.40541C14.5118 8.47128 15.218 8.31869 15.8312 7.96846C16.4443 7.61825 16.9343 7.08743 17.2348 6.44843C17.5351 5.80941 17.6311 5.09331 17.5096 4.39776C17.388 3.70222 17.0548 3.06109 16.5556 2.56181C16.0564 2.06254 15.4152 1.72941 14.7196 1.60787C14.0241 1.48632 13.308 1.58229 12.669 1.88265C12.03 2.18302 11.4992 2.67318 11.149 3.28629C10.7987 3.89939 10.6461 4.60561 10.712 5.30861L10.6952 5.29181C10.7449 5.87967 10.6655 6.47128 10.4629 7.02535C10.2603 7.57941 9.93922 8.08258 9.52206 8.49974C9.10491 8.91691 8.60173 9.238 8.04766 9.44057C7.4936 9.6432 6.902 9.72253 6.31414 9.67288L6.33094 9.68968C5.75654 9.63816 5.17842 9.73252 4.65017 9.96389C4.12192 10.1953 3.66062 10.5563 3.30903 11.0134C2.95743 11.4705 2.72692 12.009 2.63883 12.5789C2.55075 13.1489 2.60796 13.7319 2.80514 14.2737C3.00233 14.8157 3.33313 15.2991 3.76688 15.6792C4.20062 16.0593 4.72329 16.3237 5.28644 16.448C5.84959 16.5723 6.435 16.5524 6.98844 16.3903C7.54187 16.2281 8.04541 15.9288 8.4524 15.5202H8.45054Z" fill="#0F172A"/>
<path d="M37.3623 6.21143H40.1343V19.7009H37.3623V6.21143Z" fill="#333333"/>
<path d="M41.7042 15.0818C41.7004 14.1125 41.9843 13.1636 42.5201 12.3558C43.0558 11.5479 43.8193 10.9171 44.7138 10.5435C45.6083 10.1698 46.5935 10.07 47.5448 10.2568C48.496 10.4435 49.3704 10.9083 50.0573 11.5925C50.7441 12.2765 51.2125 13.1491 51.4031 14.0996C51.5936 15.0501 51.4978 16.0358 51.1277 16.9318C50.7577 17.8277 50.13 18.5938 49.3242 19.1327C48.5184 19.6717 47.5709 19.9594 46.6014 19.9594C45.958 19.9668 45.3195 19.8458 44.7233 19.6035C44.1271 19.3612 43.5852 19.0025 43.1292 18.5484C42.6732 18.0943 42.3124 17.5538 42.0678 16.9586C41.823 16.3634 41.6995 15.7254 41.7042 15.0818ZM48.7266 15.0818C48.7151 14.664 48.5806 14.2588 48.34 13.9169C48.0994 13.5752 47.7634 13.3118 47.374 13.1599C46.9846 13.008 46.5591 12.9742 46.1505 13.0628C45.742 13.1515 45.3687 13.3585 45.0772 13.6582C44.7858 13.9578 44.5891 14.3368 44.5119 14.7476C44.4346 15.1584 44.4801 15.5828 44.6427 15.9679C44.8054 16.353 45.078 16.6816 45.4263 16.9126C45.7747 17.1436 46.1835 17.2668 46.6014 17.2668C46.8877 17.2744 47.1724 17.2226 47.4378 17.1147C47.703 17.0068 47.9431 16.8452 48.1427 16.6399C48.3424 16.4346 48.4974 16.1902 48.5978 15.922C48.6983 15.6539 48.7422 15.3678 48.7266 15.0818Z" fill="#333333"/>
<path d="M62.5466 10.4619V19.2352C62.5466 22.3395 60.1256 23.6518 57.6681 23.6518C56.8029 23.7166 55.9365 23.5417 55.164 23.1467C54.3916 22.7515 53.7428 22.1513 53.2889 21.4118L55.654 20.0444C55.8448 20.4299 56.1487 20.7479 56.5252 20.9559C56.9017 21.1639 57.3327 21.252 57.7605 21.2083C58.034 21.2462 58.3125 21.2221 58.5754 21.1378C58.8382 21.0536 59.0788 20.9112 59.2793 20.7215C59.4798 20.5316 59.635 20.2993 59.7336 20.0413C59.832 19.7834 59.8712 19.5067 59.8484 19.2315V18.3868C59.5238 18.784 59.1107 19.0995 58.642 19.3081C58.1734 19.5167 57.6625 19.6126 57.1501 19.588C55.931 19.5496 54.7747 19.0383 53.9259 18.1623C53.0771 17.2864 52.6025 16.1145 52.6025 14.8948C52.6025 13.6751 53.0771 12.5032 53.9259 11.6273C54.7747 10.7512 55.931 10.24 57.1501 10.2015C57.6625 10.177 58.1734 10.2728 58.642 10.4814C59.1107 10.69 59.5238 11.0056 59.8484 11.4027V10.46L62.5466 10.4619ZM59.8493 14.8962C59.868 14.4495 59.7524 14.0074 59.5177 13.6268C59.283 13.2462 58.9397 12.9447 58.5321 12.7609C58.1245 12.577 57.6713 12.5194 57.2307 12.5954C56.79 12.6714 56.3823 12.8775 56.0597 13.1872C55.7372 13.4969 55.5148 13.896 55.421 14.3332C55.3273 14.7704 55.3665 15.2256 55.5338 15.6403C55.7009 16.055 55.9884 16.4102 56.3591 16.6602C56.7298 16.9101 57.1669 17.0434 57.614 17.0428C57.9053 17.0632 58.1975 17.0223 58.472 16.9228C58.7465 16.8233 58.9971 16.6674 59.2076 16.4652C59.4182 16.263 59.5842 16.0189 59.6947 15.7486C59.8052 15.4784 59.8579 15.188 59.8493 14.8962Z" fill="#333333"/>
<path d="M64.1163 15.0818C64.1125 14.1125 64.3963 13.1636 64.9322 12.3558C65.4679 11.5479 66.2314 10.9171 67.1259 10.5435C68.0204 10.1698 69.0056 10.07 69.9569 10.2568C70.9081 10.4435 71.7826 10.9083 72.4694 11.5925C73.1562 12.2765 73.6246 13.1491 73.8152 14.0996C74.0057 15.0501 73.9099 16.0358 73.5398 16.9318C73.1698 17.8277 72.5421 18.5938 71.7364 19.1327C70.9305 19.6717 69.983 19.9594 69.0135 19.9594C68.3701 19.9668 67.7315 19.8458 67.1354 19.6035C66.5392 19.3612 65.9973 19.0025 65.5414 18.5484C65.0853 18.0943 64.7245 17.5538 64.4799 16.9586C64.2352 16.3634 64.1116 15.7254 64.1163 15.0818ZM71.1387 15.0818C71.1272 14.664 70.9927 14.2588 70.7521 13.9169C70.5115 13.5752 70.1755 13.3118 69.7862 13.1599C69.3967 13.008 68.9711 12.9742 68.5626 13.0628C68.1541 13.1515 67.7808 13.3585 67.4893 13.6582C67.1979 13.9578 67.0012 14.3368 66.9239 14.7476C66.8466 15.1584 66.8922 15.5828 67.0548 15.9679C67.2175 16.353 67.4901 16.6816 67.8384 16.9126C68.1868 17.1436 68.5955 17.2668 69.0135 17.2668C69.2998 17.2744 69.5846 17.2226 69.8498 17.1147C70.1152 17.0068 70.3552 16.8452 70.5548 16.6399C70.7545 16.4346 70.9095 16.1902 71.0099 15.922C71.1105 15.6539 71.1543 15.3678 71.1387 15.0818Z" fill="#333333"/>
<path d="M75.2036 7.98547C75.2036 7.65651 75.3011 7.33495 75.4839 7.06145C75.6666 6.78794 75.9265 6.57475 76.2304 6.44887C76.5343 6.32299 76.8687 6.29005 77.1913 6.35422C77.5139 6.4184 77.8103 6.57681 78.0429 6.80941C78.2755 7.04201 78.4339 7.33836 78.4981 7.66099C78.5622 7.98362 78.5293 8.31803 78.4035 8.62194C78.2775 8.92586 78.0644 9.18561 77.7908 9.36839C77.5173 9.55113 77.1958 9.64867 76.8668 9.64867C76.4271 9.64428 76.0066 9.46769 75.6956 9.15669C75.3847 8.84572 75.208 8.42522 75.2036 7.98547ZM75.4836 10.4616H78.2565V19.7016H75.4799L75.4836 10.4616Z" fill="#333333"/>
<path d="M90.2256 15.0819C90.2576 15.6926 90.1687 16.3036 89.9637 16.8797C89.7588 17.4559 89.4421 17.9858 89.0316 18.4391C88.6212 18.8923 88.1251 19.2601 87.5721 19.521C87.019 19.7819 86.4199 19.931 85.8091 19.9595C85.2954 19.9875 84.7819 19.9009 84.3058 19.7059C83.8298 19.5109 83.4031 19.2124 83.0567 18.8321V23.397H80.2847V10.4619H83.0567V11.3299C83.4032 10.9499 83.83 10.6516 84.306 10.4568C84.7821 10.2619 85.2955 10.1754 85.8091 10.2034C86.42 10.2319 87.0193 10.3808 87.5725 10.6418C88.1257 10.9027 88.6218 11.2705 89.0322 11.7239C89.4427 12.1773 89.7595 12.7074 89.9643 13.2838C90.169 13.86 90.2579 14.4711 90.2256 15.0819ZM87.4536 15.0819C87.4428 14.6495 87.3046 14.2299 87.0565 13.8755C86.8083 13.5212 86.4612 13.2479 86.0585 13.09C85.6558 12.932 85.2155 12.8962 84.7926 12.9873C84.3697 13.0783 83.9831 13.2921 83.6811 13.6017C83.379 13.9115 83.1751 14.3033 83.0948 14.7285C83.0144 15.1535 83.0611 15.5927 83.2292 15.9914C83.3972 16.39 83.6792 16.7301 84.0397 16.9693C84.4001 17.2084 84.823 17.336 85.2556 17.3359C85.5526 17.3492 85.849 17.2994 86.1255 17.19C86.4018 17.0807 86.6521 16.9141 86.8595 16.7013C87.0671 16.4885 87.2273 16.2342 87.3297 15.9551C87.432 15.6761 87.4743 15.3784 87.4536 15.0819Z" fill="#333333"/>
<path d="M98.7796 16.9288C98.7796 19.054 96.9325 19.9593 94.9371 19.9593C94.1307 20.0323 93.3212 19.8619 92.6129 19.4698C91.9046 19.0778 91.3302 18.4823 90.9639 17.7604L93.3653 16.3931C93.4625 16.7267 93.6712 17.0171 93.9565 17.2154C94.2417 17.4138 94.5871 17.5084 94.9333 17.4832C95.5979 17.4832 95.9311 17.2797 95.9311 16.9111C95.9311 15.8937 91.3848 16.4304 91.3848 13.2337C91.3848 11.2187 93.0853 10.2032 95.0071 10.2032C95.7295 10.1803 96.4444 10.3517 97.0781 10.6994C97.7119 11.0471 98.2411 11.5584 98.6097 12.18L96.2447 13.4549C96.1411 13.2129 95.9684 13.0067 95.7481 12.8622C95.5279 12.7176 95.2703 12.6411 95.0071 12.642C94.5264 12.642 94.2305 12.8287 94.2305 13.1591C94.2343 14.2128 98.7796 13.51 98.7796 16.9288Z" fill="#333333"/>
<path d="M108.905 10.4619V19.7019H106.133V18.833C105.813 19.2164 105.407 19.5185 104.948 19.7145C104.489 19.9105 103.99 19.9948 103.492 19.9604C101.625 19.9604 100.039 18.6304 100.039 16.1338V10.4619H102.811V15.7278C102.787 15.9479 102.812 16.1704 102.884 16.3797C102.955 16.5892 103.072 16.7805 103.225 16.9404C103.378 17.1002 103.564 17.2248 103.77 17.3056C103.975 17.3863 104.197 17.4212 104.418 17.4078C105.434 17.4078 106.136 16.817 106.136 15.5047V10.4647L108.905 10.4619Z" fill="#333333"/>
<path d="M124.8 14.0278V19.7006H122.028V14.2677C122.028 13.3437 121.585 12.7529 120.698 12.7529C119.774 12.7529 119.256 13.3997 119.256 14.4898V19.7006H116.485V14.2677C116.485 13.3437 116.042 12.7529 115.154 12.7529C114.23 12.7529 113.713 13.3997 113.713 14.4898V19.7006H110.941V10.4606H113.713V11.3099C114 10.9331 114.377 10.6343 114.81 10.4408C115.243 10.2472 115.717 10.1652 116.189 10.2021C116.663 10.1788 117.135 10.279 117.56 10.4926C117.984 10.7061 118.345 11.0261 118.609 11.421C118.916 11.0078 119.323 10.6793 119.792 10.4661C120.26 10.2529 120.775 10.1621 121.289 10.2021C123.41 10.203 124.8 11.7178 124.8 14.0278Z" fill="#333333"/>
<path d="M127.144 10.4047C128.28 10.4047 129.202 9.48365 129.202 8.34759C129.202 7.2115 128.28 6.29053 127.144 6.29053C126.009 6.29053 125.087 7.2115 125.087 8.34759C125.087 9.48365 126.009 10.4047 127.144 10.4047Z" fill="#333333"/>
</svg>
