<svg width="542" height="105" viewBox="0 0 542 105" fill="none" xmlns="http://www.w3.org/2000/svg">
<path fill-rule="evenodd" clip-rule="evenodd" d="M10.2769 105C6.16587 100.554 2.69171 95.5066 3.23329e-05 90.0041L8.65574 84.9894C12.434 92.9752 18.1621 99.8518 25.2226 105H10.2769ZM8.65592 40.0106L2.63314e-05 34.9959C10.1393 14.2683 31.3817 0 55.9452 0C80.5975 0 101.905 14.3717 112 35.2211L103.341 40.2375C94.993 22.3726 76.909 10.0002 55.9452 10.0002C35.0703 10.0002 17.0508 22.2679 8.65592 40.0106ZM103.341 84.7626C99.5646 92.8449 93.7951 99.8031 86.6678 105H101.614C105.781 100.493 109.293 95.369 112 89.7789L103.341 84.7626Z" fill="#0F172A"/>
<ellipse cx="56.3054" cy="62.4997" rx="37.3709" ry="37.5" fill="#1D2E47" fill-opacity="0.1"/>
<path fill-rule="evenodd" clip-rule="evenodd" d="M520.676 34.6695L516.041 47.4444L506 20H490L506.5 60H526L533.233 41.9187L520.676 34.6695ZM157 60V20H142V60H157ZM229.435 60V20H210.971L200.614 44L189.985 20H171.452V60H186.578V40.1111L194 60H207L214.378 40.1111V60H229.435ZM283.206 33.5C283.206 35.9815 282.502 38.2407 281.093 40.2778C279.685 42.2778 277.596 43.8704 274.825 45.0556C272.1 46.2407 268.784 46.8333 264.877 46.8333H258.881V60H243.755V20H264.877C270.782 20 275.302 21.2222 278.436 23.6667C281.616 26.1111 283.206 29.3889 283.206 33.5ZM263.174 37.1111C266.308 37.1111 267.875 35.9074 267.875 33.5C267.875 31.0926 266.308 29.8889 263.174 29.8889H258.881V37.1111H263.174ZM308 60L310.352 53.7778H326.431L329 60H345L327 20H310L292 60H308ZM318.391 33.5556L322.752 44.5H314.031L318.391 33.5556ZM354.328 40C354.328 36.1111 355.282 32.6481 357.19 29.6111C359.143 26.5741 361.914 24.2222 365.503 22.5556C369.091 20.8519 373.315 20 378.176 20C382.355 20 386.079 20.6481 389.35 21.9444C392.666 23.2037 395.346 25 397.39 27.3333C399.479 29.6667 400.865 32.3889 401.546 35.5H385.602C384.876 34.2037 383.831 33.2037 382.468 32.5C381.151 31.7593 379.629 31.3889 377.903 31.3889C375.359 31.3889 373.338 32.1667 371.839 33.7222C370.386 35.2778 369.659 37.3704 369.659 40C369.659 42.6296 370.386 44.7222 371.839 46.2778C373.338 47.8333 375.359 48.6111 377.903 48.6111C379.629 48.6111 381.151 48.2593 382.468 47.5556C383.831 46.8148 384.876 45.7963 385.602 44.5H401.546C400.865 47.6111 399.479 50.3333 397.39 52.6667C395.346 55 392.666 56.8148 389.35 58.1111C386.079 59.3704 382.355 60 378.176 60C373.315 60 369.091 59.1667 365.503 57.5C361.914 55.7963 359.143 53.4259 357.19 50.3889C355.282 47.3519 354.328 43.8889 354.328 40ZM452.37 30.1667V20H411.762V30.1667H424.435V60H439.561V30.1667H452.37ZM479 60H464V20H479V60Z" fill="#0F172A"/>
<path d="M537 32.5L542 20H526L524 25L537 32.5Z" fill="#0F172A"/>
<path d="M151.292 76.2766C152.851 76.2766 154.218 76.5745 155.393 77.1702C156.589 77.7447 157.582 78.5532 158.373 79.5957C159.163 80.6383 159.751 81.8404 160.135 83.2021C160.541 84.5426 160.744 85.9574 160.744 87.4468C160.744 89.4894 160.391 91.3617 159.686 93.0638C158.982 94.7447 157.935 96.0957 156.546 97.117C155.158 98.117 153.406 98.617 151.292 98.617H143.282C142.918 98.617 142.609 98.4894 142.352 98.234C142.117 97.9787 142 97.6702 142 97.3085V77.5532C142 77.1915 142.117 76.8936 142.352 76.6596C142.609 76.4043 142.918 76.2766 143.282 76.2766H151.292ZM150.971 96.1277C152.616 96.1277 153.951 95.734 154.976 94.9468C156.023 94.1596 156.781 93.1064 157.251 91.7872C157.743 90.4681 157.988 89.0213 157.988 87.4468C157.988 86.2979 157.849 85.2021 157.572 84.1596C157.315 83.0957 156.899 82.1596 156.322 81.3511C155.767 80.5426 155.041 79.9043 154.143 79.4362C153.268 78.9681 152.21 78.734 150.971 78.734H144.403L144.659 78.4787V96.4468L144.467 96.1277H150.971Z" fill="#0F172A"/>
<path d="M167.337 97.3085C167.337 97.6702 167.209 97.9787 166.952 98.234C166.717 98.4894 166.418 98.617 166.055 98.617C165.671 98.617 165.361 98.4894 165.126 98.234C164.891 97.9787 164.774 97.6702 164.774 97.3085V83.1383C164.774 82.7766 164.891 82.4787 165.126 82.2447C165.382 81.9894 165.692 81.8617 166.055 81.8617C166.418 81.8617 166.717 81.9894 166.952 82.2447C167.209 82.4787 167.337 82.7766 167.337 83.1383V97.3085ZM166.055 79.7234C165.521 79.7234 165.126 79.617 164.87 79.4043C164.613 79.1915 164.485 78.8617 164.485 78.4149V77.9681C164.485 77.5213 164.624 77.1915 164.902 76.9787C165.18 76.766 165.575 76.6596 166.087 76.6596C166.6 76.6596 166.984 76.766 167.241 76.9787C167.497 77.1915 167.625 77.5213 167.625 77.9681V78.4149C167.625 78.8617 167.486 79.1915 167.209 79.4043C166.952 79.617 166.568 79.7234 166.055 79.7234Z" fill="#0F172A"/>
<path d="M179.054 81.7021C179.994 81.7021 180.859 81.8617 181.65 82.1809C182.44 82.4787 183.123 82.8723 183.7 83.3617C184.298 83.8511 184.758 84.3617 185.078 84.8936C185.42 85.4255 185.591 85.9255 185.591 86.3936L184.95 86.0106V83.234C184.95 82.8723 185.067 82.5745 185.302 82.3404C185.559 82.0851 185.868 81.9574 186.231 81.9574C186.616 81.9574 186.926 82.0851 187.161 82.3404C187.396 82.5745 187.513 82.8723 187.513 83.234V97.2128C187.513 98.9574 187.139 100.404 186.392 101.553C185.665 102.702 184.683 103.564 183.444 104.138C182.205 104.713 180.827 105 179.311 105C178.67 105 177.954 104.915 177.164 104.745C176.395 104.574 175.711 104.362 175.113 104.106C174.515 103.872 174.141 103.628 173.992 103.372C173.671 103.16 173.469 102.915 173.383 102.638C173.319 102.383 173.362 102.138 173.511 101.904C173.725 101.606 173.981 101.457 174.28 101.457C174.579 101.457 174.964 101.553 175.434 101.745C175.647 101.809 175.957 101.915 176.363 102.064C176.769 102.213 177.239 102.34 177.773 102.447C178.307 102.574 178.83 102.638 179.343 102.638C181.158 102.638 182.547 102.16 183.508 101.202C184.469 100.266 184.95 99.0213 184.95 97.4681V94.5L185.302 94.6596C185.174 95.2553 184.918 95.8085 184.533 96.3191C184.149 96.8298 183.668 97.2872 183.091 97.6915C182.536 98.0745 181.906 98.383 181.201 98.617C180.517 98.8298 179.823 98.9362 179.118 98.9362C177.623 98.9362 176.277 98.5638 175.081 97.8192C173.906 97.0745 172.967 96.0532 172.262 94.7553C171.578 93.4574 171.236 91.9787 171.236 90.3191C171.236 88.6383 171.578 87.1489 172.262 85.8511C172.967 84.5532 173.906 83.5426 175.081 82.8191C176.256 82.0745 177.58 81.7021 179.054 81.7021ZM179.407 84.0638C178.296 84.0638 177.313 84.3404 176.459 84.8936C175.605 85.4255 174.932 86.1596 174.44 87.0957C173.949 88.0319 173.704 89.1064 173.704 90.3191C173.704 91.4894 173.949 92.5532 174.44 93.5106C174.932 94.4468 175.605 95.1915 176.459 95.7447C177.313 96.2979 178.296 96.5745 179.407 96.5745C180.517 96.5745 181.5 96.3085 182.354 95.7766C183.209 95.2234 183.882 94.4787 184.373 93.5426C184.864 92.6064 185.11 91.5319 185.11 90.3191C185.11 89.0851 184.864 88 184.373 87.0638C183.882 86.1277 183.209 85.3936 182.354 84.8617C181.5 84.3298 180.517 84.0638 179.407 84.0638Z" fill="#0F172A"/>
<path d="M195.043 97.3085C195.043 97.6702 194.915 97.9787 194.659 98.234C194.424 98.4894 194.125 98.617 193.762 98.617C193.377 98.617 193.068 98.4894 192.833 98.234C192.598 97.9787 192.48 97.6702 192.48 97.3085V83.1383C192.48 82.7766 192.598 82.4787 192.833 82.2447C193.089 81.9894 193.399 81.8617 193.762 81.8617C194.125 81.8617 194.424 81.9894 194.659 82.2447C194.915 82.4787 195.043 82.7766 195.043 83.1383V97.3085ZM193.762 79.7234C193.228 79.7234 192.833 79.617 192.576 79.4043C192.32 79.1915 192.192 78.8617 192.192 78.4149V77.9681C192.192 77.5213 192.331 77.1915 192.608 76.9787C192.886 76.766 193.281 76.6596 193.794 76.6596C194.306 76.6596 194.691 76.766 194.947 76.9787C195.204 77.1915 195.332 77.5213 195.332 77.9681V78.4149C195.332 78.8617 195.193 79.1915 194.915 79.4043C194.659 79.617 194.274 79.7234 193.762 79.7234Z" fill="#0F172A"/>
<path d="M199.327 82.2128H206.857C207.199 82.2128 207.476 82.3298 207.69 82.5638C207.925 82.7979 208.042 83.0745 208.042 83.3936C208.042 83.734 207.925 84.0213 207.69 84.2553C207.476 84.4681 207.199 84.5745 206.857 84.5745H199.327C199.007 84.5745 198.729 84.4574 198.494 84.2234C198.259 83.9894 198.142 83.7021 198.142 83.3617C198.142 83.0426 198.259 82.7766 198.494 82.5638C198.729 82.3298 199.007 82.2128 199.327 82.2128ZM202.692 77.8723C203.055 77.8723 203.354 78 203.589 78.2553C203.824 78.4894 203.941 78.7872 203.941 79.1489V94.5638C203.941 95.0745 204.016 95.4574 204.165 95.7128C204.315 95.9681 204.507 96.1489 204.742 96.2553C204.998 96.3404 205.244 96.383 205.479 96.383C205.693 96.383 205.874 96.3511 206.024 96.2872C206.195 96.2021 206.387 96.1596 206.601 96.1596C206.814 96.1596 207.006 96.266 207.177 96.4787C207.37 96.6702 207.466 96.9255 207.466 97.2447C207.466 97.6277 207.241 97.9574 206.793 98.234C206.344 98.4894 205.842 98.617 205.287 98.617C204.988 98.617 204.614 98.5957 204.165 98.5532C203.738 98.5106 203.311 98.3723 202.884 98.1383C202.457 97.9043 202.093 97.5213 201.794 96.9894C201.517 96.4362 201.378 95.6702 201.378 94.6915V79.1489C201.378 78.7872 201.506 78.4894 201.762 78.2553C202.019 78 202.328 77.8723 202.692 77.8723Z" fill="#0F172A"/>
<path d="M225.417 81.9574C225.802 81.9574 226.112 82.0851 226.347 82.3404C226.582 82.5745 226.699 82.8723 226.699 83.234V97.3085C226.699 97.6702 226.571 97.9787 226.315 98.234C226.08 98.4894 225.781 98.617 225.417 98.617C225.054 98.617 224.745 98.4894 224.488 98.234C224.253 97.9787 224.136 97.6702 224.136 97.3085V94.2766L224.745 94.2128C224.745 94.6809 224.584 95.1915 224.264 95.7447C223.944 96.2979 223.506 96.8191 222.95 97.3085C222.395 97.7766 221.743 98.1702 220.996 98.4894C220.248 98.7872 219.437 98.9362 218.561 98.9362C217.108 98.9362 215.795 98.5638 214.62 97.8192C213.466 97.0532 212.558 96.0213 211.896 94.7234C211.234 93.4255 210.903 91.9468 210.903 90.2872C210.903 88.6064 211.234 87.1277 211.896 85.8511C212.58 84.5532 213.488 83.5426 214.62 82.8191C215.773 82.0745 217.065 81.7021 218.497 81.7021C219.415 81.7021 220.27 81.8511 221.06 82.1489C221.85 82.4468 222.534 82.8511 223.11 83.3617C223.709 83.8723 224.168 84.4362 224.488 85.0532C224.809 85.6702 224.969 86.2872 224.969 86.9043L224.136 86.7128V83.234C224.136 82.8723 224.253 82.5745 224.488 82.3404C224.745 82.0851 225.054 81.9574 225.417 81.9574ZM218.817 96.5745C219.885 96.5745 220.825 96.2979 221.637 95.7447C222.47 95.1915 223.121 94.4468 223.591 93.5106C224.061 92.5532 224.296 91.4787 224.296 90.2872C224.296 89.117 224.061 88.0638 223.591 87.1277C223.121 86.1702 222.47 85.4255 221.637 84.8936C220.825 84.3404 219.885 84.0638 218.817 84.0638C217.77 84.0638 216.831 84.3298 215.997 84.8617C215.186 85.3936 214.545 86.1277 214.075 87.0638C213.605 88 213.37 89.0745 213.37 90.2872C213.37 91.4787 213.605 92.5532 214.075 93.5106C214.545 94.4468 215.186 95.1915 215.997 95.7447C216.831 96.2979 217.77 96.5745 218.817 96.5745Z" fill="#0F172A"/>
<path d="M234.593 97.3085C234.593 97.6702 234.465 97.9787 234.209 98.234C233.952 98.4894 233.643 98.617 233.279 98.617C232.916 98.617 232.617 98.4894 232.382 98.234C232.147 97.9787 232.03 97.6702 232.03 97.3085V76.2766C232.03 75.9149 232.147 75.617 232.382 75.383C232.639 75.1277 232.948 75 233.311 75C233.696 75 234.006 75.1277 234.241 75.383C234.476 75.617 234.593 75.9149 234.593 76.2766V97.3085Z" fill="#0F172A"/>
<path d="M250.759 76.2766H262.166C262.529 76.2766 262.839 76.3936 263.095 76.6277C263.351 76.8617 263.48 77.1596 263.48 77.5213C263.48 77.883 263.351 78.1809 263.095 78.4149C262.839 78.6277 262.529 78.734 262.166 78.734H251.849L252.137 78.1915V86.266L251.817 85.9149H260.724C261.087 85.9149 261.397 86.0319 261.653 86.266C261.91 86.5 262.038 86.7979 262.038 87.1596C262.038 87.5213 261.91 87.8191 261.653 88.0532C261.397 88.266 261.087 88.3723 260.724 88.3723H251.913L252.137 88.0851V96.3511L251.945 96.1277H262.166C262.529 96.1277 262.839 96.2553 263.095 96.5106C263.351 96.766 263.48 97.0532 263.48 97.3723C263.48 97.734 263.351 98.0319 263.095 98.266C262.839 98.5 262.529 98.617 262.166 98.617H250.759C250.396 98.617 250.087 98.4894 249.83 98.234C249.595 97.9787 249.478 97.6702 249.478 97.3085V77.5532C249.478 77.1915 249.595 76.8936 249.83 76.6596C250.087 76.4043 250.396 76.2766 250.759 76.2766Z" fill="#0F172A"/>
<path d="M267.463 81.9255C267.868 81.9255 268.21 82.1064 268.488 82.4681L279.638 96.6383C279.809 96.8723 279.894 97.1277 279.894 97.4043C279.894 97.766 279.766 98.0745 279.51 98.3298C279.254 98.5851 278.954 98.7128 278.613 98.7128C278.207 98.7128 277.854 98.5213 277.555 98.1383L266.405 84C266.234 83.766 266.149 83.5106 266.149 83.234C266.149 82.8511 266.277 82.5426 266.533 82.3085C266.811 82.0532 267.121 81.9255 267.463 81.9255ZM267.463 98.6809C267.185 98.6809 266.907 98.5745 266.63 98.3617C266.352 98.1489 266.213 97.8723 266.213 97.5319C266.213 97.2553 266.32 96.9894 266.533 96.734L271.788 90.1277L273.134 92.234L268.488 98.1702C268.232 98.5106 267.89 98.6809 267.463 98.6809ZM278.613 81.9255C278.976 81.9255 279.264 82.0426 279.478 82.2766C279.713 82.5106 279.83 82.7766 279.83 83.0745C279.83 83.2021 279.798 83.3404 279.734 83.4894C279.691 83.6383 279.617 83.7766 279.51 83.9043L274.287 90.5745L272.942 88.6277L277.555 82.5C277.854 82.117 278.207 81.9255 278.613 81.9255Z" fill="#0F172A"/>
<path d="M291.665 81.8617C293.117 81.8617 294.42 82.2234 295.574 82.9468C296.727 83.6702 297.635 84.6702 298.297 85.9468C298.981 87.2234 299.322 88.6915 299.322 90.3511C299.322 91.9894 298.981 93.4574 298.297 94.7553C297.635 96.0319 296.727 97.0426 295.574 97.7872C294.441 98.5106 293.16 98.8723 291.729 98.8723C290.938 98.8723 290.191 98.7553 289.486 98.5213C288.802 98.266 288.172 97.9468 287.595 97.5638C287.04 97.1596 286.57 96.7128 286.186 96.2234C285.801 95.7128 285.523 95.2128 285.353 94.7234L286.057 94.2766V103.691C286.057 104.053 285.94 104.362 285.705 104.617C285.47 104.872 285.16 105 284.776 105C284.413 105 284.103 104.872 283.847 104.617C283.612 104.383 283.494 104.074 283.494 103.691V83.2979C283.494 82.9362 283.612 82.6383 283.847 82.4043C284.103 82.1489 284.413 82.0213 284.776 82.0213C285.16 82.0213 285.47 82.1489 285.705 82.4043C285.94 82.6383 286.057 82.9362 286.057 83.2979V86.1383L285.577 85.883C285.726 85.3511 285.983 84.8404 286.346 84.3511C286.73 83.8617 287.19 83.4362 287.724 83.0745C288.279 82.6915 288.888 82.3936 289.55 82.1809C290.233 81.9681 290.938 81.8617 291.665 81.8617ZM291.376 84.2234C290.308 84.2234 289.358 84.4894 288.525 85.0213C287.713 85.5532 287.072 86.2766 286.602 87.1915C286.154 88.1064 285.929 89.1596 285.929 90.3511C285.929 91.5213 286.154 92.5745 286.602 93.5106C287.072 94.4468 287.713 95.1809 288.525 95.7128C289.358 96.2447 290.308 96.5106 291.376 96.5106C292.444 96.5106 293.384 96.2447 294.196 95.7128C295.007 95.1809 295.648 94.4468 296.118 93.5106C296.588 92.5745 296.823 91.5213 296.823 90.3511C296.823 89.1596 296.588 88.1064 296.118 87.1915C295.648 86.2766 295.007 85.5532 294.196 85.0213C293.384 84.4894 292.444 84.2234 291.376 84.2234Z" fill="#0F172A"/>
<path d="M310.837 98.9362C309.128 98.9362 307.633 98.5745 306.351 97.8511C305.07 97.1277 304.076 96.1383 303.371 94.883C302.667 93.6064 302.314 92.1383 302.314 90.4787C302.314 88.6277 302.677 87.0532 303.403 85.7553C304.151 84.4362 305.112 83.4362 306.287 82.7553C307.462 82.0532 308.712 81.7021 310.036 81.7021C311.04 81.7021 311.99 81.883 312.888 82.2447C313.806 82.6064 314.618 83.1383 315.323 83.8404C316.049 84.5213 316.626 85.3511 317.053 86.3298C317.48 87.2872 317.704 88.3617 317.726 89.5532C317.704 89.8936 317.565 90.1809 317.309 90.4149C317.053 90.6489 316.754 90.766 316.412 90.766H303.756L303.179 88.5638H315.515L315.002 89.0106V88.3085C314.938 87.4362 314.65 86.6915 314.137 86.0745C313.646 85.4362 313.037 84.9468 312.311 84.6064C311.585 84.266 310.826 84.0957 310.036 84.0957C309.395 84.0957 308.754 84.2128 308.113 84.4468C307.494 84.6596 306.928 85.0213 306.415 85.5319C305.924 86.0213 305.529 86.6596 305.23 87.4468C304.931 88.234 304.781 89.1809 304.781 90.2872C304.781 91.5213 305.027 92.6064 305.518 93.5426C306.031 94.4787 306.736 95.2234 307.633 95.7766C308.53 96.3085 309.566 96.5745 310.741 96.5745C311.51 96.5745 312.172 96.4787 312.727 96.2872C313.283 96.0957 313.753 95.8617 314.137 95.5851C314.543 95.2872 314.885 94.9894 315.162 94.6915C315.44 94.5 315.718 94.4043 315.995 94.4043C316.295 94.4043 316.551 94.5106 316.764 94.7234C316.978 94.9362 317.085 95.1915 317.085 95.4894C317.085 95.8511 316.914 96.1702 316.572 96.4468C315.953 97.1064 315.13 97.6915 314.105 98.2021C313.101 98.6915 312.012 98.9362 310.837 98.9362Z" fill="#0F172A"/>
<path d="M323.027 98.617C322.664 98.617 322.354 98.4894 322.098 98.234C321.863 97.9787 321.745 97.6702 321.745 97.3085V83.3936C321.745 83.0319 321.863 82.734 322.098 82.5C322.354 82.2447 322.664 82.117 323.027 82.117C323.411 82.117 323.721 82.2447 323.956 82.5C324.191 82.734 324.309 83.0319 324.309 83.3936V87.6064L323.924 86.9362C324.052 86.2766 324.276 85.6383 324.597 85.0213C324.939 84.383 325.366 83.8191 325.878 83.3298C326.391 82.8191 326.979 82.4255 327.641 82.1489C328.303 81.8511 329.029 81.7021 329.82 81.7021C330.289 81.7021 330.717 81.8191 331.101 82.0532C331.507 82.266 331.71 82.5745 331.71 82.9787C331.71 83.4255 331.592 83.7553 331.357 83.9681C331.122 84.1809 330.855 84.2872 330.556 84.2872C330.279 84.2872 330.012 84.234 329.755 84.1277C329.499 84 329.179 83.9362 328.794 83.9362C328.26 83.9362 327.726 84.0851 327.192 84.383C326.68 84.6596 326.199 85.0638 325.75 85.5957C325.323 86.1277 324.971 86.734 324.693 87.4149C324.437 88.0745 324.309 88.7872 324.309 89.5532V97.3085C324.309 97.6702 324.18 97.9787 323.924 98.234C323.689 98.4894 323.39 98.617 323.027 98.617Z" fill="#0F172A"/>
<path d="M334.285 82.2128H341.814C342.156 82.2128 342.434 82.3298 342.648 82.5638C342.883 82.7979 343 83.0745 343 83.3936C343 83.734 342.883 84.0213 342.648 84.2553C342.434 84.4681 342.156 84.5745 341.814 84.5745H334.285C333.965 84.5745 333.687 84.4574 333.452 84.2234C333.217 83.9894 333.099 83.7021 333.099 83.3617C333.099 83.0426 333.217 82.7766 333.452 82.5638C333.687 82.3298 333.965 82.2128 334.285 82.2128ZM337.649 77.8723C338.012 77.8723 338.311 78 338.546 78.2553C338.781 78.4894 338.899 78.7872 338.899 79.1489V94.5638C338.899 95.0745 338.974 95.4574 339.123 95.7128C339.273 95.9681 339.465 96.1489 339.7 96.2553C339.956 96.3404 340.202 96.383 340.437 96.383C340.65 96.383 340.832 96.3511 340.981 96.2872C341.152 96.2021 341.345 96.1596 341.558 96.1596C341.772 96.1596 341.964 96.266 342.135 96.4787C342.327 96.6702 342.423 96.9255 342.423 97.2447C342.423 97.6277 342.199 97.9574 341.75 98.234C341.302 98.4894 340.8 98.617 340.244 98.617C339.945 98.617 339.572 98.5957 339.123 98.5532C338.696 98.5106 338.269 98.3723 337.841 98.1383C337.414 97.9043 337.051 97.5213 336.752 96.9894C336.474 96.4362 336.336 95.6702 336.336 94.6915V79.1489C336.336 78.7872 336.464 78.4894 336.72 78.2553C336.976 78 337.286 77.8723 337.649 77.8723Z" fill="#0F172A"/>
</svg>
