<svg width="155" height="30" viewBox="0 0 155 30" fill="none" xmlns="http://www.w3.org/2000/svg">
<path fill-rule="evenodd" clip-rule="evenodd" d="M2.93626 30C1.76167 28.7297 0.769051 27.2876 9.81232e-07 25.7155L2.47306 24.2827C3.55258 26.5643 5.18916 28.5291 7.20646 30H2.93626ZM2.47311 11.4316L0 9.99882C2.89694 4.07665 8.9662 0 15.9843 0C23.0279 0 29.1156 4.1062 32 10.0632L29.5261 11.4964C27.1409 6.39217 21.974 2.85721 15.9843 2.85721C10.0201 2.85721 4.87164 6.36226 2.47311 11.4316ZM29.5261 24.2179C28.447 26.5271 26.7986 28.5152 24.7622 30H29.0324C30.223 28.7124 31.2266 27.2483 32 25.6511L29.5261 24.2179Z" fill="#0575E6"/>
<ellipse cx="16.0872" cy="17.8571" rx="10.6774" ry="10.7143" fill="white" fill-opacity="0.1"/>
<path fill-rule="evenodd" clip-rule="evenodd" d="M148.765 9.90559L147.44 13.5556L144.571 5.71429H140L144.714 17.1429H150.286L152.352 11.9768L148.765 9.90559ZM44.8571 17.1429V5.71429H40.5714V17.1429H44.8571ZM65.5529 17.1429V5.71429H60.2773L57.3183 12.5714L54.2815 5.71429H48.9864V17.1429H53.3081V11.4603L55.4286 17.1429H59.1428L61.2507 11.4603V17.1429H65.5529ZM80.9159 9.57144C80.9159 10.2804 80.7147 10.9259 80.3124 11.5079C79.9101 12.0794 79.3131 12.5344 78.5214 12.873C77.7427 13.2116 76.7953 13.381 75.6792 13.381H73.9661V17.1429H69.6444V5.71429H75.6792C77.3664 5.71429 78.6577 6.0635 79.5532 6.76191C80.4616 7.46033 80.9159 8.39683 80.9159 9.57144ZM75.1925 10.6032C76.088 10.6032 76.5358 10.2593 76.5358 9.57144C76.5358 8.88361 76.088 8.53969 75.1925 8.53969H73.9661V10.6032H75.1925ZM88 17.1429L88.6719 15.3651H93.2661L94 17.1429H98.5714L93.4286 5.71429H88.5714L83.4286 17.1429H88ZM90.969 9.58731L92.2149 12.7143H89.7231L90.969 9.58731ZM101.237 11.4286C101.237 10.3175 101.509 9.32805 102.054 8.46033C102.612 7.5926 103.404 6.92064 104.429 6.44445C105.455 5.95768 106.662 5.71429 108.05 5.71429C109.244 5.71429 110.308 5.89948 111.243 6.26985C112.19 6.62964 112.956 7.14287 113.54 7.80953C114.137 8.4762 114.533 9.25398 114.727 10.1429H110.172C109.964 9.77249 109.666 9.48678 109.277 9.28572C108.9 9.07408 108.465 8.96826 107.972 8.96826C107.246 8.96826 106.668 9.19048 106.24 9.63493C105.824 10.0794 105.617 10.6773 105.617 11.4286C105.617 12.1799 105.824 12.7778 106.24 13.2222C106.668 13.6667 107.246 13.8889 107.972 13.8889C108.465 13.8889 108.9 13.7884 109.277 13.5873C109.666 13.3757 109.964 13.0847 110.172 12.7143H114.727C114.533 13.6032 114.137 14.381 113.54 15.0476C112.956 15.7143 112.19 16.2328 111.243 16.6032C110.308 16.963 109.244 17.1429 108.05 17.1429C106.662 17.1429 105.455 16.9048 104.429 16.4286C103.404 15.9418 102.612 15.2646 102.054 14.3968C101.509 13.5291 101.237 12.5397 101.237 11.4286ZM129.249 8.61906V5.71429H117.646V8.61906H121.267V17.1429H125.589V8.61906H129.249ZM136.857 17.1429H132.571V5.71429H136.857V17.1429Z" fill="white"/>
<path d="M153.429 9.28572L154.857 5.71429H150.286L149.714 7.14287L153.429 9.28572Z" fill="white"/>
<path d="M43.2262 21.7933C43.6717 21.7933 44.0623 21.8784 44.398 22.0486C44.7398 22.2128 45.0235 22.4438 45.2494 22.7416C45.4752 23.0395 45.643 23.383 45.7528 23.772C45.8688 24.155 45.9268 24.5593 45.9268 24.9848C45.9268 25.5684 45.8261 26.1033 45.6247 26.5897C45.4233 27.0699 45.1242 27.4559 44.7275 27.7477C44.3309 28.0334 43.8304 28.1763 43.2262 28.1763H40.9376C40.8338 28.1763 40.7453 28.1398 40.6721 28.0669C40.605 27.9939 40.5714 27.9058 40.5714 27.8024V22.158C40.5714 22.0547 40.605 21.9696 40.6721 21.9027C40.7453 21.8298 40.8338 21.7933 40.9376 21.7933H43.2262ZM43.1347 27.465C43.6046 27.465 43.986 27.3526 44.279 27.1276C44.578 26.9027 44.7947 26.6018 44.9289 26.2249C45.0693 25.848 45.1395 25.4346 45.1395 24.9848C45.1395 24.6565 45.0998 24.3435 45.0205 24.0456C44.9473 23.7416 44.8282 23.4742 44.6635 23.2431C44.5048 23.0121 44.2973 22.8298 44.041 22.696C43.7907 22.5623 43.4886 22.4954 43.1347 22.4954H41.258L41.3312 22.4225V27.5562L41.2763 27.465H43.1347Z" fill="white"/>
<path d="M47.8105 27.8024C47.8105 27.9058 47.7739 27.9939 47.7007 28.0669C47.6335 28.1398 47.5481 28.1763 47.4444 28.1763C47.3345 28.1763 47.246 28.1398 47.1789 28.0669C47.1117 27.9939 47.0782 27.9058 47.0782 27.8024V23.7538C47.0782 23.6504 47.1117 23.5653 47.1789 23.4985C47.2521 23.4255 47.3406 23.389 47.4444 23.389C47.5481 23.389 47.6335 23.4255 47.7007 23.4985C47.7739 23.5653 47.8105 23.6504 47.8105 23.7538V27.8024ZM47.4444 22.7781C47.2918 22.7781 47.1789 22.7477 47.1056 22.6869C47.0324 22.6261 46.9958 22.5319 46.9958 22.4042V22.2766C46.9958 22.1489 47.0355 22.0547 47.1148 21.9939C47.1941 21.9331 47.307 21.9027 47.4535 21.9027C47.6 21.9027 47.7098 21.9331 47.7831 21.9939C47.8563 22.0547 47.8929 22.1489 47.8929 22.2766V22.4042C47.8929 22.5319 47.8533 22.6261 47.7739 22.6869C47.7007 22.7477 47.5908 22.7781 47.4444 22.7781Z" fill="white"/>
<path d="M51.1584 23.3435C51.4269 23.3435 51.6741 23.389 51.8999 23.4802C52.1257 23.5653 52.321 23.6778 52.4858 23.8176C52.6566 23.9574 52.7879 24.1033 52.8794 24.2553C52.977 24.4073 53.0259 24.5501 53.0259 24.6839L52.8428 24.5745V23.7811C52.8428 23.6778 52.8763 23.5927 52.9435 23.5258C53.0167 23.4529 53.1052 23.4164 53.209 23.4164C53.3188 23.4164 53.4073 23.4529 53.4744 23.5258C53.5416 23.5927 53.5751 23.6778 53.5751 23.7811V27.7751C53.5751 28.2735 53.4683 28.6869 53.2547 29.0152C53.0472 29.3435 52.7665 29.5897 52.4125 29.7538C52.0585 29.9179 51.6649 30 51.2316 30C51.0485 30 50.8441 29.9757 50.6182 29.927C50.3985 29.8784 50.2032 29.8176 50.0324 29.7447C49.8615 29.6778 49.7547 29.6079 49.7119 29.5349C49.6204 29.4742 49.5624 29.4042 49.538 29.3252C49.5197 29.2523 49.5319 29.1824 49.5746 29.1155C49.6357 29.0304 49.7089 28.9878 49.7943 28.9878C49.8798 28.9878 49.9896 29.0152 50.1239 29.0699C50.1849 29.0881 50.2734 29.1185 50.3894 29.1611C50.5053 29.2036 50.6396 29.2401 50.7922 29.2705C50.9447 29.307 51.0943 29.3252 51.2407 29.3252C51.7595 29.3252 52.1562 29.1884 52.4308 28.9149C52.7055 28.6474 52.8428 28.2918 52.8428 27.848V27L52.9435 27.0456C52.9069 27.2158 52.8336 27.3738 52.7238 27.5197C52.6139 27.6656 52.4766 27.7963 52.3118 27.9118C52.1531 28.0213 51.9731 28.1094 51.7717 28.1763C51.5764 28.2371 51.3781 28.2675 51.1767 28.2675C50.7495 28.2675 50.365 28.1611 50.0232 27.9483C49.6875 27.7355 49.419 27.4438 49.2176 27.0729C49.0223 26.7021 48.9247 26.2796 48.9247 25.8055C48.9247 25.3252 49.0223 24.8997 49.2176 24.5289C49.419 24.158 49.6875 23.8693 50.0232 23.6626C50.3589 23.4498 50.7372 23.3435 51.1584 23.3435ZM51.2591 24.0182C50.9417 24.0182 50.661 24.0973 50.4168 24.2553C50.1727 24.4073 49.9805 24.617 49.8401 24.8845C49.6997 25.152 49.6296 25.459 49.6296 25.8055C49.6296 26.1398 49.6997 26.4438 49.8401 26.7173C49.9805 26.9848 50.1727 27.1976 50.4168 27.3556C50.661 27.5137 50.9417 27.5927 51.2591 27.5927C51.5764 27.5927 51.8571 27.5167 52.1013 27.3647C52.3454 27.2067 52.5376 26.9939 52.678 26.7264C52.8184 26.459 52.8886 26.152 52.8886 25.8055C52.8886 25.4529 52.8184 25.1428 52.678 24.8754C52.5376 24.6079 52.3454 24.3982 52.1013 24.2462C51.8571 24.0942 51.5764 24.0182 51.2591 24.0182Z" fill="white"/>
<path d="M55.7267 27.8024C55.7267 27.9058 55.69 27.9939 55.6168 28.0669C55.5497 28.1398 55.4642 28.1763 55.3605 28.1763C55.2506 28.1763 55.1621 28.1398 55.095 28.0669C55.0279 27.9939 54.9943 27.9058 54.9943 27.8024V23.7538C54.9943 23.6504 55.0279 23.5653 55.095 23.4985C55.1682 23.4255 55.2567 23.389 55.3605 23.389C55.4642 23.389 55.5497 23.4255 55.6168 23.4985C55.69 23.5653 55.7267 23.6504 55.7267 23.7538V27.8024ZM55.3605 22.7781C55.2079 22.7781 55.095 22.7477 55.0218 22.6869C54.9485 22.6261 54.9119 22.5319 54.9119 22.4042V22.2766C54.9119 22.1489 54.9516 22.0547 55.0309 21.9939C55.1103 21.9331 55.2232 21.9027 55.3696 21.9027C55.5161 21.9027 55.626 21.9331 55.6992 21.9939C55.7724 22.0547 55.809 22.1489 55.809 22.2766V22.4042C55.809 22.5319 55.7694 22.6261 55.69 22.6869C55.6168 22.7477 55.5069 22.7781 55.3605 22.7781Z" fill="white"/>
<path d="M56.9506 23.4893H59.1019C59.1996 23.4893 59.2789 23.5228 59.34 23.5897C59.4071 23.6565 59.4407 23.7355 59.4407 23.8267C59.4407 23.924 59.4071 24.0061 59.34 24.0729C59.2789 24.1337 59.1996 24.1641 59.1019 24.1641H56.9506C56.8591 24.1641 56.7798 24.1307 56.7126 24.0638C56.6455 23.9969 56.6119 23.9149 56.6119 23.8176C56.6119 23.7264 56.6455 23.6504 56.7126 23.5897C56.7798 23.5228 56.8591 23.4893 56.9506 23.4893ZM57.9119 22.2492C58.0156 22.2492 58.1011 22.2857 58.1682 22.3586C58.2353 22.4255 58.2689 22.5106 58.2689 22.614V27.0182C58.2689 27.1641 58.2902 27.2735 58.333 27.3465C58.3757 27.4194 58.4306 27.4711 58.4977 27.5015C58.571 27.5258 58.6412 27.538 58.7083 27.538C58.7693 27.538 58.8212 27.5289 58.8639 27.5106C58.9127 27.4863 58.9677 27.4742 59.0287 27.4742C59.0897 27.4742 59.1447 27.5045 59.1935 27.5653C59.2484 27.62 59.2759 27.693 59.2759 27.7842C59.2759 27.8936 59.2118 27.9878 59.0836 28.0669C58.9555 28.1398 58.812 28.1763 58.6534 28.1763C58.5679 28.1763 58.4611 28.1702 58.333 28.158C58.2109 28.1459 58.0888 28.1064 57.9668 28.0395C57.8447 27.9726 57.741 27.8632 57.6555 27.7112C57.5762 27.5532 57.5365 27.3343 57.5365 27.0547V22.614C57.5365 22.5106 57.5731 22.4255 57.6464 22.3586C57.7196 22.2857 57.8081 22.2492 57.9119 22.2492Z" fill="white"/>
<path d="M64.405 23.4164C64.5148 23.4164 64.6033 23.4529 64.6704 23.5258C64.7376 23.5927 64.7711 23.6778 64.7711 23.7811V27.8024C64.7711 27.9058 64.7345 27.9939 64.6613 28.0669C64.5942 28.1398 64.5087 28.1763 64.405 28.1763C64.3012 28.1763 64.2127 28.1398 64.1395 28.0669C64.0723 27.9939 64.0388 27.9058 64.0388 27.8024V26.9362L64.2127 26.9179C64.2127 27.0517 64.1669 27.1976 64.0754 27.3556C63.9839 27.5137 63.8587 27.6626 63.7001 27.8024C63.5414 27.9362 63.3552 28.0486 63.1416 28.1398C62.928 28.2249 62.6961 28.2675 62.4459 28.2675C62.0309 28.2675 61.6556 28.1611 61.3199 27.9483C60.9903 27.7295 60.731 27.4346 60.5418 27.0638C60.3526 26.693 60.258 26.2705 60.258 25.7963C60.258 25.3161 60.3526 24.8936 60.5418 24.5289C60.7371 24.158 60.9964 23.8693 61.3199 23.6626C61.6495 23.4498 62.0187 23.3435 62.4276 23.3435C62.69 23.3435 62.9341 23.386 63.16 23.4711C63.3858 23.5562 63.5811 23.6717 63.7458 23.8176C63.9167 23.9635 64.0479 24.1246 64.1395 24.3009C64.231 24.4772 64.2768 24.6535 64.2768 24.8298L64.0388 24.7751V23.7811C64.0388 23.6778 64.0723 23.5927 64.1395 23.5258C64.2127 23.4529 64.3012 23.4164 64.405 23.4164ZM62.5191 27.5927C62.8243 27.5927 63.0928 27.5137 63.3247 27.3556C63.5627 27.1976 63.7489 26.9848 63.8832 26.7173C64.0174 26.4438 64.0846 26.1368 64.0846 25.7963C64.0846 25.462 64.0174 25.1611 63.8832 24.8936C63.7489 24.62 63.5627 24.4073 63.3247 24.2553C63.0928 24.0973 62.8243 24.0182 62.5191 24.0182C62.2201 24.0182 61.9516 24.0942 61.7135 24.2462C61.4816 24.3982 61.2985 24.6079 61.1643 24.8754C61.03 25.1428 60.9629 25.4498 60.9629 25.7963C60.9629 26.1368 61.03 26.4438 61.1643 26.7173C61.2985 26.9848 61.4816 27.1976 61.7135 27.3556C61.9516 27.5137 62.2201 27.5927 62.5191 27.5927Z" fill="white"/>
<path d="M67.0266 27.8024C67.0266 27.9058 66.99 27.9939 66.9167 28.0669C66.8435 28.1398 66.755 28.1763 66.6512 28.1763C66.5475 28.1763 66.4621 28.1398 66.3949 28.0669C66.3278 27.9939 66.2942 27.9058 66.2942 27.8024V21.7933C66.2942 21.69 66.3278 21.6049 66.3949 21.538C66.4682 21.465 66.5566 21.4286 66.6604 21.4286C66.7703 21.4286 66.8587 21.465 66.9259 21.538C66.993 21.6049 67.0266 21.69 67.0266 21.7933V27.8024Z" fill="white"/>
<path d="M71.6455 21.7933H74.9045C75.0083 21.7933 75.0968 21.8267 75.17 21.8936C75.2432 21.9605 75.2798 22.0456 75.2798 22.1489C75.2798 22.2523 75.2432 22.3374 75.17 22.4042C75.0968 22.465 75.0083 22.4954 74.9045 22.4954H71.9568L72.0392 22.3404V24.6474L71.9476 24.5471H74.4926C74.5963 24.5471 74.6848 24.5805 74.758 24.6474C74.8313 24.7143 74.8679 24.7994 74.8679 24.9027C74.8679 25.0061 74.8313 25.0912 74.758 25.158C74.6848 25.2188 74.5963 25.2492 74.4926 25.2492H71.9751L72.0392 25.1672V27.5289L71.9842 27.465H74.9045C75.0083 27.465 75.0968 27.5015 75.17 27.5745C75.2432 27.6474 75.2798 27.7295 75.2798 27.8207C75.2798 27.924 75.2432 28.0091 75.17 28.076C75.0968 28.1428 75.0083 28.1763 74.9045 28.1763H71.6455C71.5418 28.1763 71.4533 28.1398 71.38 28.0669C71.3129 27.9939 71.2793 27.9058 71.2793 27.8024V22.158C71.2793 22.0547 71.3129 21.9696 71.38 21.9027C71.4533 21.8298 71.5418 21.7933 71.6455 21.7933Z" fill="white"/>
<path d="M76.4179 23.4073C76.5338 23.4073 76.6315 23.459 76.7108 23.5623L79.8966 27.6109C79.9454 27.6778 79.9698 27.7507 79.9698 27.8298C79.9698 27.9331 79.9332 28.0213 79.8599 28.0942C79.7867 28.1672 79.7013 28.2036 79.6036 28.2036C79.4877 28.2036 79.387 28.1489 79.3015 28.0395L76.1158 24C76.0669 23.9331 76.0425 23.8602 76.0425 23.7811C76.0425 23.6717 76.0791 23.5836 76.1524 23.5167C76.2317 23.4438 76.3202 23.4073 76.4179 23.4073ZM76.4179 28.1945C76.3385 28.1945 76.2592 28.1641 76.1798 28.1033C76.1005 28.0425 76.0608 27.9635 76.0608 27.8662C76.0608 27.7872 76.0913 27.7112 76.1524 27.6383L77.6537 25.7507L78.0382 26.3526L76.7108 28.0486C76.6376 28.1459 76.5399 28.1945 76.4179 28.1945ZM79.6036 23.4073C79.7074 23.4073 79.7898 23.4407 79.8508 23.5076C79.9179 23.5745 79.9515 23.6504 79.9515 23.7355C79.9515 23.772 79.9423 23.8115 79.924 23.8541C79.9118 23.8966 79.8905 23.9362 79.8599 23.9726L78.3678 25.8784L77.9833 25.3222L79.3015 23.5714C79.387 23.462 79.4877 23.4073 79.6036 23.4073Z" fill="white"/>
<path d="M83.3327 23.389C83.7477 23.389 84.12 23.4924 84.4496 23.6991C84.7791 23.9058 85.0385 24.1915 85.2277 24.5562C85.423 24.921 85.5206 25.3404 85.5206 25.8146C85.5206 26.2827 85.423 26.7021 85.2277 27.0729C85.0385 27.4377 84.7791 27.7264 84.4496 27.9392C84.1261 28.1459 83.7599 28.2492 83.351 28.2492C83.1252 28.2492 82.9116 28.2158 82.7102 28.1489C82.5149 28.076 82.3349 27.9848 82.1701 27.8754C82.0114 27.7599 81.8771 27.6322 81.7673 27.4924C81.6574 27.3465 81.5781 27.2036 81.5293 27.0638L81.7307 26.9362V29.6261C81.7307 29.7295 81.6971 29.8176 81.63 29.8906C81.5628 29.9635 81.4743 30 81.3645 30C81.2607 30 81.1723 29.9635 81.099 29.8906C81.0319 29.8237 80.9983 29.7355 80.9983 29.6261V23.7994C80.9983 23.696 81.0319 23.6109 81.099 23.5441C81.1723 23.4711 81.2607 23.4346 81.3645 23.4346C81.4743 23.4346 81.5628 23.4711 81.63 23.5441C81.6971 23.6109 81.7307 23.696 81.7307 23.7994V24.6109L81.5934 24.538C81.6361 24.386 81.7093 24.2401 81.8131 24.1003C81.9229 23.9605 82.0541 23.8389 82.2067 23.7355C82.3654 23.6261 82.5393 23.541 82.7285 23.4802C82.9238 23.4194 83.1252 23.389 83.3327 23.389ZM83.2503 24.0638C82.9452 24.0638 82.6736 24.1398 82.4356 24.2918C82.2037 24.4438 82.0206 24.6504 81.8863 24.9118C81.7581 25.1732 81.6941 25.4742 81.6941 25.8146C81.6941 26.1489 81.7581 26.4498 81.8863 26.7173C82.0206 26.9848 82.2037 27.1945 82.4356 27.3465C82.6736 27.4985 82.9452 27.5745 83.2503 27.5745C83.5555 27.5745 83.824 27.4985 84.0559 27.3465C84.2878 27.1945 84.4709 26.9848 84.6052 26.7173C84.7394 26.4498 84.8066 26.1489 84.8066 25.8146C84.8066 25.4742 84.7394 25.1732 84.6052 24.9118C84.4709 24.6504 84.2878 24.4438 84.0559 24.2918C83.824 24.1398 83.5555 24.0638 83.2503 24.0638Z" fill="white"/>
<path d="M88.8105 28.2675C88.3223 28.2675 87.8951 28.1641 87.5289 27.9574C87.1627 27.7507 86.8789 27.4681 86.6775 27.1094C86.4761 26.7447 86.3754 26.3252 86.3754 25.8511C86.3754 25.3222 86.4792 24.8723 86.6867 24.5015C86.9003 24.1246 87.1749 23.8389 87.5106 23.6444C87.8463 23.4438 88.2033 23.3435 88.5817 23.3435C88.8685 23.3435 89.1401 23.3951 89.3964 23.4985C89.6588 23.6018 89.8908 23.7538 90.0922 23.9544C90.2997 24.1489 90.4644 24.386 90.5865 24.6656C90.7086 24.9392 90.7726 25.2462 90.7787 25.5866C90.7726 25.6839 90.733 25.7659 90.6597 25.8328C90.5865 25.8997 90.5011 25.9331 90.4034 25.9331H86.7874L86.6226 25.3039H90.1471L90.0006 25.4316V25.231C89.9823 24.9817 89.8999 24.769 89.7534 24.5927C89.6131 24.4103 89.4391 24.2705 89.2316 24.1732C89.0241 24.076 88.8075 24.0273 88.5817 24.0273C88.3986 24.0273 88.2155 24.0608 88.0324 24.1276C87.8554 24.1884 87.6937 24.2918 87.5472 24.4377C87.4068 24.5775 87.2939 24.7599 87.2085 24.9848C87.1231 25.2097 87.0803 25.4802 87.0803 25.7963C87.0803 26.1489 87.1505 26.459 87.2909 26.7264C87.4374 26.9939 87.6388 27.2067 87.8951 27.3647C88.1514 27.5167 88.4474 27.5927 88.7831 27.5927C89.0028 27.5927 89.192 27.5653 89.3506 27.5106C89.5093 27.4559 89.6436 27.389 89.7534 27.31C89.8694 27.2249 89.967 27.1398 90.0464 27.0547C90.1257 27 90.2051 26.9726 90.2844 26.9726C90.3698 26.9726 90.4431 27.003 90.5041 27.0638C90.5651 27.1246 90.5956 27.1976 90.5956 27.2827C90.5956 27.386 90.5468 27.4772 90.4492 27.5562C90.2722 27.7447 90.0372 27.9118 89.7443 28.0577C89.4574 28.1976 89.1462 28.2675 88.8105 28.2675Z" fill="white"/>
<path d="M92.2934 28.1763C92.1896 28.1763 92.1011 28.1398 92.0279 28.0669C91.9608 27.9939 91.9272 27.9058 91.9272 27.8024V23.8267C91.9272 23.7234 91.9608 23.6383 92.0279 23.5714C92.1011 23.4985 92.1896 23.462 92.2934 23.462C92.4032 23.462 92.4917 23.4985 92.5589 23.5714C92.626 23.6383 92.6596 23.7234 92.6596 23.8267V25.0304L92.5497 24.8389C92.5863 24.6504 92.6504 24.4681 92.7419 24.2918C92.8396 24.1094 92.9617 23.9483 93.1081 23.8085C93.2546 23.6626 93.4224 23.5501 93.6116 23.4711C93.8008 23.386 94.0083 23.3435 94.2341 23.3435C94.3684 23.3435 94.4904 23.3769 94.6003 23.4438C94.7163 23.5045 94.7742 23.5927 94.7742 23.7082C94.7742 23.8359 94.7407 23.9301 94.6735 23.9909C94.6064 24.0517 94.5301 24.0821 94.4447 24.0821C94.3653 24.0821 94.2891 24.0669 94.2158 24.0365C94.1426 24 94.051 23.9817 93.9412 23.9817C93.7886 23.9817 93.636 24.0243 93.4835 24.1094C93.337 24.1884 93.1997 24.3039 93.0715 24.4559C92.9494 24.6079 92.8487 24.7811 92.7694 24.9757C92.6962 25.1641 92.6596 25.3678 92.6596 25.5866V27.8024C92.6596 27.9058 92.6229 27.9939 92.5497 28.0669C92.4826 28.1398 92.3971 28.1763 92.2934 28.1763Z" fill="white"/>
<path d="M95.51 23.4893H97.6613C97.7589 23.4893 97.8383 23.5228 97.8993 23.5897C97.9664 23.6565 98 23.7355 98 23.8267C98 23.924 97.9664 24.0061 97.8993 24.0729C97.8383 24.1337 97.7589 24.1641 97.6613 24.1641H95.51C95.4184 24.1641 95.3391 24.1307 95.2719 24.0638C95.2048 23.9969 95.1712 23.9149 95.1712 23.8176C95.1712 23.7264 95.2048 23.6504 95.2719 23.5897C95.3391 23.5228 95.4184 23.4893 95.51 23.4893ZM96.4712 22.2492C96.5749 22.2492 96.6604 22.2857 96.7275 22.3586C96.7946 22.4255 96.8282 22.5106 96.8282 22.614V27.0182C96.8282 27.1641 96.8496 27.2735 96.8923 27.3465C96.935 27.4194 96.9899 27.4711 97.0571 27.5015C97.1303 27.5258 97.2005 27.538 97.2676 27.538C97.3287 27.538 97.3805 27.5289 97.4232 27.5106C97.4721 27.4863 97.527 27.4742 97.588 27.4742C97.6491 27.4742 97.704 27.5045 97.7528 27.5653C97.8077 27.62 97.8352 27.693 97.8352 27.7842C97.8352 27.8936 97.7711 27.9878 97.643 28.0669C97.5148 28.1398 97.3714 28.1763 97.2127 28.1763C97.1273 28.1763 97.0205 28.1702 96.8923 28.158C96.7702 28.1459 96.6482 28.1064 96.5261 28.0395C96.404 27.9726 96.3003 27.8632 96.2149 27.7112C96.1355 27.5532 96.0958 27.3343 96.0958 27.0547V22.614C96.0958 22.5106 96.1325 22.4255 96.2057 22.3586C96.2789 22.2857 96.3674 22.2492 96.4712 22.2492Z" fill="white"/>
</svg>
