<svg width="140" height="91" fill="none" xmlns="http://www.w3.org/2000/svg"><path d="M36.5021 80.9468C37.0479 80.9468 37.5264 81.0511 37.9376 81.2596C38.3562 81.4606 38.7039 81.7436 38.9805 82.1085C39.2571 82.4734 39.4627 82.8941 39.5973 83.3707C39.7393 83.8399 39.8103 84.3351 39.8103 84.8564C39.8103 85.5713 39.687 86.2266 39.4403 86.8223C39.1935 87.4106 38.8272 87.8835 38.3413 88.241C37.8553 88.591 37.2423 88.766 36.5021 88.766H33.6986C33.5715 88.766 33.4631 88.7213 33.3734 88.6319C33.2911 88.5426 33.25 88.4346 33.25 88.308V81.3936C33.25 81.267 33.2911 81.1628 33.3734 81.0809C33.4631 80.9915 33.5715 80.9468 33.6986 80.9468H36.5021ZM36.39 87.8947C36.9657 87.8947 37.4329 87.7569 37.7918 87.4814C38.1581 87.2059 38.4235 86.8372 38.588 86.3755C38.7599 85.9138 38.8459 85.4074 38.8459 84.8564C38.8459 84.4543 38.7973 84.0707 38.7001 83.7059C38.6104 83.3335 38.4646 83.0059 38.2628 82.7229C38.0684 82.4399 37.8142 82.2165 37.5002 82.0527C37.1937 81.8888 36.8236 81.8069 36.39 81.8069H34.0911L34.1808 81.7176V88.0064L34.1135 87.8947H36.39Z" fill="#0F172A"/><path d="M42.1179 88.308C42.1179 88.4346 42.0731 88.5426 41.9834 88.6319C41.9011 88.7213 41.7964 88.766 41.6694 88.766C41.5348 88.766 41.4264 88.7213 41.3441 88.6319C41.2619 88.5426 41.2208 88.4346 41.2208 88.308V83.3484C41.2208 83.2218 41.2619 83.1176 41.3441 83.0356C41.4339 82.9463 41.5423 82.9016 41.6694 82.9016C41.7964 82.9016 41.9011 82.9463 41.9834 83.0356C42.0731 83.1176 42.1179 83.2218 42.1179 83.3484V88.308ZM41.6694 82.1532C41.4825 82.1532 41.3441 82.116 41.2544 82.0415C41.1647 81.967 41.1199 81.8516 41.1199 81.6952V81.5388C41.1199 81.3824 41.1685 81.267 41.2656 81.1926C41.3628 81.1181 41.5011 81.0809 41.6806 81.0809C41.86 81.0809 41.9946 81.1181 42.0843 81.1926C42.174 81.267 42.2189 81.3824 42.2189 81.5388V81.6952C42.2189 81.8516 42.1703 81.967 42.0731 82.0415C41.9834 82.116 41.8488 82.1532 41.6694 82.1532Z" fill="#0F172A"/><path d="M46.219 82.8457C46.548 82.8457 46.8507 82.9016 47.1274 83.0133C47.404 83.1176 47.6432 83.2553 47.8451 83.4266C48.0544 83.5979 48.2151 83.7766 48.3273 83.9628C48.4469 84.1489 48.5067 84.3239 48.5067 84.4878L48.2824 84.3537V83.3819C48.2824 83.2553 48.3235 83.1511 48.4058 83.0691C48.4955 82.9798 48.6039 82.9351 48.731 82.9351C48.8656 82.9351 48.974 82.9798 49.0562 83.0691C49.1384 83.1511 49.1796 83.2553 49.1796 83.3819V88.2745C49.1796 88.8851 49.0487 89.3915 48.7871 89.7936C48.5329 90.1957 48.189 90.4973 47.7554 90.6984C47.3217 90.8995 46.8395 91 46.3087 91C46.0844 91 45.834 90.9702 45.5574 90.9106C45.2882 90.8511 45.049 90.7766 44.8397 90.6872C44.6303 90.6053 44.4995 90.5197 44.4472 90.4303C44.335 90.3559 44.264 90.2702 44.2341 90.1734C44.2117 90.084 44.2266 89.9984 44.2789 89.9165C44.3537 89.8122 44.4434 89.7601 44.5481 89.7601C44.6528 89.7601 44.7873 89.7936 44.9518 89.8606C45.0266 89.883 45.135 89.9202 45.277 89.9723C45.4191 90.0245 45.5835 90.0691 45.7704 90.1064C45.9573 90.1511 46.1405 90.1734 46.3199 90.1734C46.9554 90.1734 47.4414 90.0059 47.7778 89.6707C48.1142 89.3431 48.2824 88.9074 48.2824 88.3638V87.325L48.4058 87.3809C48.3609 87.5894 48.2712 87.783 48.1366 87.9617C48.0021 88.1404 47.8339 88.3005 47.632 88.442C47.4376 88.5761 47.2171 88.684 46.9704 88.766C46.7311 88.8404 46.4881 88.8777 46.2414 88.8777C45.7181 88.8777 45.2471 88.7473 44.8284 88.4867C44.4173 88.2261 44.0883 87.8686 43.8416 87.4144C43.6024 86.9601 43.4827 86.4426 43.4827 85.8617C43.4827 85.2734 43.6024 84.7521 43.8416 84.2979C44.0883 83.8436 44.4173 83.4899 44.8284 83.2367C45.2396 82.9761 45.7032 82.8457 46.219 82.8457ZM46.3424 83.6723C45.9536 83.6723 45.6097 83.7691 45.3107 83.9628C45.0116 84.1489 44.7761 84.4059 44.6042 84.7335C44.4322 85.0612 44.3462 85.4372 44.3462 85.8617C44.3462 86.2713 44.4322 86.6436 44.6042 86.9787C44.7761 87.3064 45.0116 87.567 45.3107 87.7606C45.6097 87.9543 45.9536 88.0511 46.3424 88.0511C46.7311 88.0511 47.075 87.958 47.3741 87.7718C47.6731 87.5782 47.9086 87.3176 48.0806 86.9899C48.2525 86.6622 48.3385 86.2862 48.3385 85.8617C48.3385 85.4298 48.2525 85.05 48.0806 84.7223C47.9086 84.3947 47.6731 84.1378 47.3741 83.9516C47.075 83.7654 46.7311 83.6723 46.3424 83.6723Z" fill="#0F172A"/><path d="M51.8152 88.308C51.8152 88.4346 51.7703 88.5426 51.6806 88.6319C51.5984 88.7213 51.4937 88.766 51.3666 88.766C51.232 88.766 51.1236 88.7213 51.0414 88.6319C50.9592 88.5426 50.918 88.4346 50.918 88.308V83.3484C50.918 83.2218 50.9592 83.1176 51.0414 83.0356C51.1311 82.9463 51.2395 82.9016 51.3666 82.9016C51.4937 82.9016 51.5984 82.9463 51.6806 83.0356C51.7703 83.1176 51.8152 83.2218 51.8152 83.3484V88.308ZM51.3666 82.1532C51.1797 82.1532 51.0414 82.116 50.9517 82.0415C50.862 81.967 50.8171 81.8516 50.8171 81.6952V81.5388C50.8171 81.3824 50.8657 81.267 50.9629 81.1926C51.0601 81.1181 51.1984 81.0809 51.3778 81.0809C51.5572 81.0809 51.6918 81.1181 51.7815 81.1926C51.8712 81.267 51.9161 81.3824 51.9161 81.5388V81.6952C51.9161 81.8516 51.8675 81.967 51.7703 82.0415C51.6806 82.116 51.546 82.1532 51.3666 82.1532Z" fill="#0F172A"/><path d="M53.3146 83.0245H55.9499C56.0695 83.0245 56.1667 83.0654 56.2415 83.1473C56.3237 83.2293 56.3648 83.3261 56.3648 83.4378C56.3648 83.5569 56.3237 83.6574 56.2415 83.7394C56.1667 83.8138 56.0695 83.8511 55.9499 83.8511H53.3146C53.2024 83.8511 53.1052 83.8101 53.023 83.7282C52.9407 83.6463 52.8996 83.5457 52.8996 83.4266C52.8996 83.3149 52.9407 83.2218 53.023 83.1473C53.1052 83.0654 53.2024 83.0245 53.3146 83.0245ZM54.4921 81.5053C54.6191 81.5053 54.7238 81.55 54.806 81.6394C54.8883 81.7213 54.9294 81.8255 54.9294 81.9521V87.3473C54.9294 87.5261 54.9556 87.6601 55.0079 87.7495C55.0602 87.8388 55.1275 87.9021 55.2098 87.9394C55.2995 87.9691 55.3855 87.984 55.4677 87.984C55.5424 87.984 55.606 87.9729 55.6583 87.9505C55.7181 87.9207 55.7854 87.9059 55.8602 87.9059C55.9349 87.9059 56.0022 87.9431 56.062 88.0176C56.1293 88.0846 56.163 88.1739 56.163 88.2856C56.163 88.4197 56.0845 88.5351 55.9275 88.6319C55.7705 88.7213 55.5948 88.766 55.4004 88.766C55.2957 88.766 55.1649 88.7585 55.0079 88.7436C54.8584 88.7287 54.7089 88.6803 54.5593 88.5984C54.4098 88.5165 54.2827 88.3824 54.1781 88.1963C54.0809 88.0027 54.0323 87.7346 54.0323 87.392V81.9521C54.0323 81.8255 54.0771 81.7213 54.1668 81.6394C54.2566 81.55 54.365 81.5053 54.4921 81.5053Z" fill="#0F172A"/><path d="M62.4461 82.9351C62.5807 82.9351 62.6891 82.9798 62.7713 83.0691C62.8536 83.1511 62.8947 83.2553 62.8947 83.3819V88.308C62.8947 88.4346 62.8498 88.5426 62.7601 88.6319C62.6779 88.7213 62.5732 88.766 62.4461 88.766C62.319 88.766 62.2106 88.7213 62.1209 88.6319C62.0387 88.5426 61.9975 88.4346 61.9975 88.308V87.2468L62.2106 87.2245C62.2106 87.3883 62.1545 87.567 62.0424 87.7606C61.9302 87.9543 61.777 88.1367 61.5826 88.308C61.3882 88.4718 61.1602 88.6096 60.8985 88.7213C60.6369 88.8255 60.3528 88.8777 60.0463 88.8777C59.5379 88.8777 59.0781 88.7473 58.6669 88.4867C58.2632 88.2186 57.9455 87.8574 57.7137 87.4032C57.4819 86.9489 57.366 86.4314 57.366 85.8505C57.366 85.2622 57.4819 84.7447 57.7137 84.2979C57.9529 83.8436 58.2707 83.4899 58.6669 83.2367C59.0706 82.9761 59.5229 82.8457 60.0238 82.8457C60.3453 82.8457 60.6443 82.8979 60.921 83.0021C61.1976 83.1064 61.4368 83.2479 61.6387 83.4266C61.848 83.6053 62.0087 83.8027 62.1209 84.0186C62.233 84.2346 62.2891 84.4505 62.2891 84.6665L61.9975 84.5995V83.3819C61.9975 83.2553 62.0387 83.1511 62.1209 83.0691C62.2106 82.9798 62.319 82.9351 62.4461 82.9351ZM60.136 88.0511C60.5098 88.0511 60.8387 87.9543 61.1228 87.7606C61.4144 87.567 61.6424 87.3064 61.8069 86.9787C61.9714 86.6436 62.0536 86.2676 62.0536 85.8505C62.0536 85.441 61.9714 85.0723 61.8069 84.7447C61.6424 84.4096 61.4144 84.1489 61.1228 83.9628C60.8387 83.7691 60.5098 83.6723 60.136 83.6723C59.7696 83.6723 59.4407 83.7654 59.1491 83.9516C58.865 84.1378 58.6407 84.3947 58.4763 84.7223C58.3118 85.05 58.2295 85.4261 58.2295 85.8505C58.2295 86.2676 58.3118 86.6436 58.4763 86.9787C58.6407 87.3064 58.865 87.567 59.1491 87.7606C59.4407 87.9543 59.7696 88.0511 60.136 88.0511Z" fill="#0F172A"/><path d="M65.6576 88.308C65.6576 88.4346 65.6127 88.5426 65.523 88.6319C65.4333 88.7213 65.3249 88.766 65.1978 88.766C65.0707 88.766 64.966 88.7213 64.8838 88.6319C64.8016 88.5426 64.7604 88.4346 64.7604 88.308V80.9468C64.7604 80.8202 64.8016 80.716 64.8838 80.634C64.9735 80.5447 65.0819 80.5 65.209 80.5C65.3436 80.5 65.452 80.5447 65.5342 80.634C65.6165 80.716 65.6576 80.8202 65.6576 80.9468V88.308Z" fill="#0F172A"/><path d="M71.3158 80.9468H75.308C75.4351 80.9468 75.5435 80.9878 75.6333 81.0697C75.723 81.1516 75.7678 81.2559 75.7678 81.3824C75.7678 81.509 75.723 81.6133 75.6333 81.6952C75.5435 81.7697 75.4351 81.8069 75.308 81.8069H71.6971L71.798 81.617V84.4431L71.6858 84.3202H74.8034C74.9305 84.3202 75.0389 84.3612 75.1286 84.4431C75.2183 84.525 75.2632 84.6293 75.2632 84.7559C75.2632 84.8824 75.2183 84.9867 75.1286 85.0686C75.0389 85.1431 74.9305 85.1803 74.8034 85.1803H71.7195L71.798 85.0798V87.9729L71.7307 87.8947H75.308C75.4351 87.8947 75.5435 87.9394 75.6333 88.0287C75.723 88.1181 75.7678 88.2186 75.7678 88.3303C75.7678 88.4569 75.723 88.5612 75.6333 88.6431C75.5435 88.725 75.4351 88.766 75.308 88.766H71.3158C71.1887 88.766 71.0803 88.7213 70.9906 88.6319C70.9083 88.5426 70.8672 88.4346 70.8672 88.308V81.3936C70.8672 81.267 70.9083 81.1628 70.9906 81.0809C71.0803 80.9915 71.1887 80.9468 71.3158 80.9468Z" fill="#0F172A"/><path d="M77.1619 82.9239C77.3039 82.9239 77.4236 82.9872 77.5208 83.1138L81.4233 88.0734C81.4831 88.1553 81.513 88.2447 81.513 88.3415C81.513 88.4681 81.4682 88.5761 81.3785 88.6654C81.2887 88.7548 81.1841 88.7995 81.0645 88.7995C80.9224 88.7995 80.799 88.7324 80.6944 88.5984L76.7918 83.65C76.732 83.5681 76.7021 83.4787 76.7021 83.3819C76.7021 83.2479 76.747 83.1399 76.8367 83.058C76.9339 82.9686 77.0423 82.9239 77.1619 82.9239ZM77.1619 88.7883C77.0647 88.7883 76.9675 88.7511 76.8703 88.6766C76.7731 88.6021 76.7245 88.5053 76.7245 88.3862C76.7245 88.2894 76.7619 88.1963 76.8367 88.1069L78.6758 85.7947L79.1468 86.5319L77.5208 88.6096C77.431 88.7287 77.3114 88.7883 77.1619 88.7883ZM81.0645 82.9239C81.1916 82.9239 81.2925 82.9649 81.3672 83.0468C81.4495 83.1287 81.4906 83.2218 81.4906 83.3261C81.4906 83.3707 81.4794 83.4191 81.457 83.4713C81.442 83.5234 81.4158 83.5718 81.3785 83.6165L79.5505 85.9511L79.0795 85.2697L80.6944 83.125C80.799 82.991 80.9224 82.9239 81.0645 82.9239Z" fill="#0F172A"/><path d="M85.6326 82.9016C86.141 82.9016 86.597 83.0282 87.0007 83.2814C87.4044 83.5346 87.7222 83.8846 87.9539 84.3314C88.1932 84.7782 88.3128 85.292 88.3128 85.8729C88.3128 86.4463 88.1932 86.9601 87.9539 87.4144C87.7222 87.8612 87.4044 88.2149 87.0007 88.4755C86.6045 88.7287 86.1559 88.8553 85.655 88.8553C85.3784 88.8553 85.1167 88.8144 84.87 88.7324C84.6308 88.6431 84.4102 88.5314 84.2084 88.3973C84.014 88.2559 83.8495 88.0995 83.715 87.9282C83.5804 87.7495 83.4832 87.5745 83.4234 87.4032L83.6701 87.2468V90.542C83.6701 90.6686 83.629 90.7766 83.5467 90.866C83.4645 90.9553 83.3561 91 83.2215 91C83.0944 91 82.986 90.9553 82.8963 90.866C82.8141 90.784 82.773 90.6761 82.773 90.542V83.4043C82.773 83.2777 82.8141 83.1734 82.8963 83.0915C82.986 83.0021 83.0944 82.9574 83.2215 82.9574C83.3561 82.9574 83.4645 83.0021 83.5467 83.0915C83.629 83.1734 83.6701 83.2777 83.6701 83.4043V84.3984L83.5019 84.309C83.5542 84.1229 83.6439 83.9441 83.771 83.7729C83.9056 83.6016 84.0663 83.4527 84.2532 83.3261C84.4476 83.192 84.6607 83.0878 84.8925 83.0133C85.1317 82.9388 85.3784 82.9016 85.6326 82.9016ZM85.5317 83.7282C85.1579 83.7282 84.8252 83.8213 84.5336 84.0074C84.2495 84.1936 84.0252 84.4468 83.8607 84.767C83.7037 85.0872 83.6252 85.4559 83.6252 85.8729C83.6252 86.2824 83.7037 86.6511 83.8607 86.9787C84.0252 87.3064 84.2495 87.5633 84.5336 87.7495C84.8252 87.9356 85.1579 88.0287 85.5317 88.0287C85.9055 88.0287 86.2344 87.9356 86.5185 87.7495C86.8026 87.5633 87.0269 87.3064 87.1914 86.9787C87.3559 86.6511 87.4381 86.2824 87.4381 85.8729C87.4381 85.4559 87.3559 85.0872 87.1914 84.767C87.0269 84.4468 86.8026 84.1936 86.5185 84.0074C86.2344 83.8213 85.9055 83.7282 85.5317 83.7282Z" fill="#0F172A"/><path d="M92.3429 88.8777C91.7448 88.8777 91.2215 88.7511 90.7729 88.4979C90.3244 88.2447 89.9767 87.8984 89.73 87.459C89.4833 87.0122 89.3599 86.4984 89.3599 85.9176C89.3599 85.2697 89.487 84.7186 89.7412 84.2644C90.0029 83.8027 90.3393 83.4527 90.7505 83.2144C91.1617 82.9686 91.599 82.8457 92.0626 82.8457C92.4139 82.8457 92.7466 82.909 93.0606 83.0356C93.3821 83.1622 93.6662 83.3484 93.9129 83.5941C94.1671 83.8324 94.369 84.1229 94.5185 84.4654C94.668 84.8005 94.7465 85.1766 94.754 85.5936C94.7465 85.7128 94.6979 85.8133 94.6082 85.8952C94.5185 85.9771 94.4138 86.0181 94.2942 86.0181H89.8646L89.6627 85.2473H93.9802L93.8008 85.4037V85.158C93.7783 84.8527 93.6774 84.592 93.498 84.3761C93.326 84.1527 93.113 83.9814 92.8588 83.8622C92.6046 83.7431 92.3392 83.6835 92.0626 83.6835C91.8383 83.6835 91.614 83.7245 91.3897 83.8064C91.1729 83.8809 90.9748 84.0074 90.7954 84.1862C90.6234 84.3574 90.4851 84.5809 90.3804 84.8564C90.2758 85.1319 90.2234 85.4633 90.2234 85.8505C90.2234 86.2824 90.3094 86.6622 90.4814 86.9899C90.6608 87.3176 90.9075 87.5782 91.2215 87.7718C91.5355 87.958 91.8981 88.0511 92.3093 88.0511C92.5784 88.0511 92.8102 88.0176 93.0046 87.9505C93.1989 87.8835 93.3634 87.8016 93.498 87.7048C93.64 87.6005 93.7597 87.4963 93.8568 87.392C93.954 87.325 94.0512 87.2915 94.1484 87.2915C94.2531 87.2915 94.3428 87.3287 94.4176 87.4032C94.4923 87.4777 94.5297 87.567 94.5297 87.6713C94.5297 87.7979 94.4699 87.9096 94.3503 88.0064C94.1335 88.2372 93.8456 88.442 93.4868 88.6207C93.1354 88.792 92.7541 88.8777 92.3429 88.8777Z" fill="#0F172A"/><path d="M96.6094 88.766C96.4823 88.766 96.3739 88.7213 96.2842 88.6319C96.202 88.5426 96.1608 88.4346 96.1608 88.308V83.4378C96.1608 83.3112 96.202 83.2069 96.2842 83.125C96.3739 83.0356 96.4823 82.991 96.6094 82.991C96.744 82.991 96.8524 83.0356 96.9346 83.125C97.0169 83.2069 97.058 83.3112 97.058 83.4378V84.9122L96.9234 84.6777C96.9683 84.4468 97.0468 84.2234 97.1589 84.0074C97.2785 83.784 97.428 83.5867 97.6075 83.4154C97.7869 83.2367 97.9925 83.0989 98.2243 83.0021C98.456 82.8979 98.7102 82.8457 98.9868 82.8457C99.1513 82.8457 99.3008 82.8867 99.4354 82.9686C99.5774 83.0431 99.6485 83.1511 99.6485 83.2926C99.6485 83.4489 99.6073 83.5644 99.5251 83.6388C99.4429 83.7133 99.3494 83.7505 99.2448 83.7505C99.1476 83.7505 99.0541 83.7319 98.9644 83.6947C98.8747 83.65 98.7625 83.6277 98.628 83.6277C98.4411 83.6277 98.2542 83.6798 98.0673 83.784C97.8878 83.8809 97.7196 84.0223 97.5626 84.2085C97.4131 84.3947 97.2897 84.6069 97.1926 84.8452C97.1028 85.0761 97.058 85.3255 97.058 85.5936V88.308C97.058 88.4346 97.0131 88.5426 96.9234 88.6319C96.8412 88.7213 96.7365 88.766 96.6094 88.766Z" fill="#0F172A"/><path d="M100.55 83.0245H103.185C103.305 83.0245 103.402 83.0654 103.477 83.1473C103.559 83.2293 103.6 83.3261 103.6 83.4378C103.6 83.5569 103.559 83.6574 103.477 83.7394C103.402 83.8138 103.305 83.8511 103.185 83.8511H100.55C100.438 83.8511 100.34 83.8101 100.258 83.7282C100.176 83.6463 100.135 83.5457 100.135 83.4266C100.135 83.3149 100.176 83.2218 100.258 83.1473C100.34 83.0654 100.438 83.0245 100.55 83.0245ZM101.727 81.5053C101.854 81.5053 101.959 81.55 102.041 81.6394C102.123 81.7213 102.165 81.8255 102.165 81.9521V87.3473C102.165 87.5261 102.191 87.6601 102.243 87.7495C102.295 87.8388 102.363 87.9021 102.445 87.9394C102.535 87.9691 102.621 87.984 102.703 87.984C102.778 87.984 102.841 87.9729 102.894 87.9505C102.953 87.9207 103.021 87.9059 103.095 87.9059C103.17 87.9059 103.237 87.9431 103.297 88.0176C103.365 88.0846 103.398 88.1739 103.398 88.2856C103.398 88.4197 103.32 88.5351 103.163 88.6319C103.006 88.7213 102.83 88.766 102.636 88.766C102.531 88.766 102.4 88.7585 102.243 88.7436C102.094 88.7287 101.944 88.6803 101.795 88.5984C101.645 88.5165 101.518 88.3824 101.413 88.1963C101.316 88.0027 101.267 87.7346 101.267 87.392V81.9521C101.267 81.8255 101.312 81.7213 101.402 81.6394C101.492 81.55 101.6 81.5053 101.727 81.5053Z" fill="#0F172A"/><path fill-rule="evenodd" clip-rule="evenodd" d="M36.2685 73.5C33.3808 70.3878 30.9405 66.8547 29.0498 63.0029L35.1298 59.4926C37.7838 65.0826 41.8073 69.8963 46.7668 73.5H36.2685ZM35.1298 28.0074L29.0498 24.4971C36.1718 9.9878 51.0929 0 68.3468 0C85.663 0 100.63 10.0602 107.721 24.6548L101.639 28.1662C95.7748 15.6607 83.0722 7 68.3468 7C53.6838 7 41.0265 15.5874 35.1298 28.0074ZM101.639 59.3338C98.9857 64.9914 94.9331 69.8622 89.9267 73.5H100.425C103.352 70.3454 105.819 66.7583 107.721 62.8452L101.639 59.3338Z" fill="#0F172A"/><circle cx="68.5996" cy="43.75" r="26.25" fill="#E7E8EA"/><path fill-rule="evenodd" clip-rule="evenodd" d="M132.537 41.8843L130.914 46.3556L127.4 36.75H121.8L127.575 50.75H134.4L136.931 44.4216L132.537 41.8843ZM5.25 50.75V36.75H0V50.75H5.25ZM30.6024 50.75V36.75H24.1398L20.515 45.15L16.7948 36.75H10.3084V50.75H15.6024V43.7889L18.2 50.75H22.75L25.3321 43.7889V50.75H30.6024ZM49.422 41.475C49.422 42.3435 49.1755 43.1343 48.6827 43.8472C48.1898 44.5472 47.4585 45.1046 46.4887 45.5194C45.5349 45.9343 44.3743 46.1417 43.007 46.1417H40.9085V50.75H35.6144V36.75H43.007C45.0738 36.75 46.6557 37.1778 47.7526 38.0333C48.8655 38.8889 49.422 40.0361 49.422 41.475ZM42.4109 42.7389C43.5078 42.7389 44.0563 42.3176 44.0563 41.475C44.0563 40.6324 43.5078 40.2111 42.4109 40.2111H40.9085V42.7389H42.4109ZM58.1 50.75L58.923 48.5722H64.551L65.45 50.75H71.05L64.75 36.75H58.8L52.5 50.75H58.1ZM61.737 41.4944L63.2632 45.325H60.2108L61.737 41.4944ZM74.315 43.75C74.315 42.3889 74.6488 41.1769 75.3165 40.1139C76.0002 39.0509 76.9699 38.2278 78.2259 37.6444C79.4819 37.0481 80.9604 36.75 82.6615 36.75C84.1241 36.75 85.4278 36.9769 86.5724 37.4306C87.733 37.8713 88.671 38.5 89.3864 39.3167C90.1177 40.1333 90.6026 41.0861 90.8411 42.175H85.2608C85.0065 41.7213 84.6408 41.3713 84.1639 41.125C83.7028 40.8657 83.1702 40.7361 82.5661 40.7361C81.6758 40.7361 80.9683 41.0083 80.4437 41.5528C79.935 42.0972 79.6806 42.8296 79.6806 43.75C79.6806 44.6704 79.935 45.4028 80.4437 45.9472C80.9683 46.4917 81.6758 46.7639 82.5661 46.7639C83.1702 46.7639 83.7028 46.6407 84.1639 46.3944C84.6408 46.1352 85.0065 45.7787 85.2608 45.325H90.8411C90.6026 46.4139 90.1177 47.3667 89.3864 48.1833C88.671 49 87.733 49.6352 86.5724 50.0889C85.4278 50.5296 84.1241 50.75 82.6615 50.75C80.9604 50.75 79.4819 50.4583 78.2259 49.875C76.9699 49.2787 76.0002 48.4491 75.3165 47.3861C74.6488 46.3231 74.315 45.1111 74.315 43.75ZM108.629 40.3083V36.75H94.4165V40.3083H98.8521V50.75H104.146V40.3083H108.629ZM117.95 50.75H112.7V36.75H117.95V50.75Z" fill="#0F172A"/><path d="M138.249 41.125L139.999 36.75H134.399L133.699 38.5L138.249 41.125Z" fill="#0F172A"/></svg>