<svg width="400" height="260" viewBox="0 0 400 260" fill="none" xmlns="http://www.w3.org/2000/svg">
<path d="M104.292 231.277C105.851 231.277 107.218 231.574 108.393 232.17C109.589 232.745 110.582 233.553 111.373 234.596C112.163 235.638 112.751 236.84 113.135 238.202C113.541 239.543 113.744 240.957 113.744 242.447C113.744 244.489 113.391 246.362 112.686 248.064C111.982 249.745 110.935 251.096 109.546 252.117C108.158 253.117 106.406 253.617 104.292 253.617H96.2816C95.9185 253.617 95.6088 253.489 95.3524 253.234C95.1175 252.979 95 252.67 95 252.309V232.553C95 232.191 95.1175 231.894 95.3524 231.66C95.6088 231.404 95.9185 231.277 96.2816 231.277H104.292ZM103.971 251.128C105.616 251.128 106.951 250.734 107.976 249.947C109.023 249.16 109.781 248.106 110.251 246.787C110.743 245.468 110.988 244.021 110.988 242.447C110.988 241.298 110.849 240.202 110.572 239.16C110.315 238.096 109.899 237.16 109.322 236.351C108.767 235.543 108.041 234.904 107.143 234.436C106.268 233.968 105.21 233.734 103.971 233.734H97.4031L97.6594 233.479V251.447L97.4671 251.128H103.971Z" fill="#0F172A"/>
<path d="M120.337 252.309C120.337 252.67 120.209 252.979 119.952 253.234C119.717 253.489 119.418 253.617 119.055 253.617C118.671 253.617 118.361 253.489 118.126 253.234C117.891 252.979 117.774 252.67 117.774 252.309V238.138C117.774 237.777 117.891 237.479 118.126 237.245C118.382 236.989 118.692 236.862 119.055 236.862C119.418 236.862 119.717 236.989 119.952 237.245C120.209 237.479 120.337 237.777 120.337 238.138V252.309ZM119.055 234.723C118.521 234.723 118.126 234.617 117.87 234.404C117.613 234.191 117.485 233.862 117.485 233.415V232.968C117.485 232.521 117.624 232.191 117.902 231.979C118.18 231.766 118.575 231.66 119.087 231.66C119.6 231.66 119.984 231.766 120.241 231.979C120.497 232.191 120.625 232.521 120.625 232.968V233.415C120.625 233.862 120.486 234.191 120.209 234.404C119.952 234.617 119.568 234.723 119.055 234.723Z" fill="#0F172A"/>
<path d="M132.054 236.702C132.994 236.702 133.859 236.862 134.65 237.181C135.44 237.479 136.123 237.872 136.7 238.362C137.298 238.851 137.758 239.362 138.078 239.894C138.42 240.426 138.591 240.926 138.591 241.394L137.95 241.011V238.234C137.95 237.872 138.067 237.574 138.302 237.34C138.559 237.085 138.868 236.957 139.231 236.957C139.616 236.957 139.926 237.085 140.161 237.34C140.396 237.574 140.513 237.872 140.513 238.234V252.213C140.513 253.957 140.139 255.404 139.392 256.553C138.665 257.702 137.683 258.564 136.444 259.138C135.205 259.713 133.827 260 132.311 260C131.67 260 130.954 259.915 130.164 259.745C129.395 259.574 128.711 259.362 128.113 259.106C127.515 258.872 127.141 258.628 126.992 258.372C126.671 258.16 126.469 257.915 126.383 257.638C126.319 257.383 126.362 257.138 126.511 256.904C126.725 256.606 126.981 256.457 127.28 256.457C127.579 256.457 127.964 256.553 128.434 256.745C128.647 256.809 128.957 256.915 129.363 257.064C129.769 257.213 130.239 257.34 130.773 257.447C131.307 257.574 131.83 257.638 132.343 257.638C134.158 257.638 135.547 257.16 136.508 256.202C137.469 255.266 137.95 254.021 137.95 252.468V249.5L138.302 249.66C138.174 250.255 137.918 250.809 137.533 251.319C137.149 251.83 136.668 252.287 136.091 252.691C135.536 253.074 134.906 253.383 134.201 253.617C133.517 253.83 132.823 253.936 132.118 253.936C130.623 253.936 129.277 253.564 128.081 252.819C126.906 252.074 125.967 251.053 125.262 249.755C124.578 248.457 124.236 246.979 124.236 245.319C124.236 243.638 124.578 242.149 125.262 240.851C125.967 239.553 126.906 238.543 128.081 237.819C129.256 237.074 130.58 236.702 132.054 236.702ZM132.407 239.064C131.296 239.064 130.313 239.34 129.459 239.894C128.605 240.426 127.932 241.16 127.44 242.096C126.949 243.032 126.704 244.106 126.704 245.319C126.704 246.489 126.949 247.553 127.44 248.511C127.932 249.447 128.605 250.191 129.459 250.745C130.313 251.298 131.296 251.574 132.407 251.574C133.517 251.574 134.5 251.309 135.354 250.777C136.209 250.223 136.882 249.479 137.373 248.543C137.864 247.606 138.11 246.532 138.11 245.319C138.11 244.085 137.864 243 137.373 242.064C136.882 241.128 136.209 240.394 135.354 239.862C134.5 239.33 133.517 239.064 132.407 239.064Z" fill="#0F172A"/>
<path d="M148.043 252.309C148.043 252.67 147.915 252.979 147.659 253.234C147.424 253.489 147.125 253.617 146.762 253.617C146.377 253.617 146.068 253.489 145.833 253.234C145.598 252.979 145.48 252.67 145.48 252.309V238.138C145.48 237.777 145.598 237.479 145.833 237.245C146.089 236.989 146.399 236.862 146.762 236.862C147.125 236.862 147.424 236.989 147.659 237.245C147.915 237.479 148.043 237.777 148.043 238.138V252.309ZM146.762 234.723C146.228 234.723 145.833 234.617 145.576 234.404C145.32 234.191 145.192 233.862 145.192 233.415V232.968C145.192 232.521 145.331 232.191 145.608 231.979C145.886 231.766 146.281 231.66 146.794 231.66C147.306 231.66 147.691 231.766 147.947 231.979C148.204 232.191 148.332 232.521 148.332 232.968V233.415C148.332 233.862 148.193 234.191 147.915 234.404C147.659 234.617 147.274 234.723 146.762 234.723Z" fill="#0F172A"/>
<path d="M152.327 237.213H159.857C160.199 237.213 160.476 237.33 160.69 237.564C160.925 237.798 161.042 238.074 161.042 238.394C161.042 238.734 160.925 239.021 160.69 239.255C160.476 239.468 160.199 239.574 159.857 239.574H152.327C152.007 239.574 151.729 239.457 151.494 239.223C151.259 238.989 151.142 238.702 151.142 238.362C151.142 238.043 151.259 237.777 151.494 237.564C151.729 237.33 152.007 237.213 152.327 237.213ZM155.692 232.872C156.055 232.872 156.354 233 156.589 233.255C156.824 233.489 156.941 233.787 156.941 234.149V249.564C156.941 250.074 157.016 250.457 157.165 250.713C157.315 250.968 157.507 251.149 157.742 251.255C157.998 251.34 158.244 251.383 158.479 251.383C158.693 251.383 158.874 251.351 159.024 251.287C159.195 251.202 159.387 251.16 159.601 251.16C159.814 251.16 160.006 251.266 160.177 251.479C160.37 251.67 160.466 251.926 160.466 252.245C160.466 252.628 160.241 252.957 159.793 253.234C159.344 253.489 158.842 253.617 158.287 253.617C157.988 253.617 157.614 253.596 157.165 253.553C156.738 253.511 156.311 253.372 155.884 253.138C155.457 252.904 155.093 252.521 154.794 251.989C154.517 251.436 154.378 250.67 154.378 249.691V234.149C154.378 233.787 154.506 233.489 154.762 233.255C155.019 233 155.328 232.872 155.692 232.872Z" fill="#0F172A"/>
<path d="M178.417 236.957C178.802 236.957 179.112 237.085 179.347 237.34C179.582 237.574 179.699 237.872 179.699 238.234V252.309C179.699 252.67 179.571 252.979 179.315 253.234C179.08 253.489 178.781 253.617 178.417 253.617C178.054 253.617 177.745 253.489 177.488 253.234C177.253 252.979 177.136 252.67 177.136 252.309V249.277L177.745 249.213C177.745 249.681 177.584 250.191 177.264 250.745C176.944 251.298 176.506 251.819 175.95 252.309C175.395 252.777 174.743 253.17 173.996 253.489C173.248 253.787 172.437 253.936 171.561 253.936C170.108 253.936 168.795 253.564 167.62 252.819C166.466 252.053 165.558 251.021 164.896 249.723C164.234 248.426 163.903 246.947 163.903 245.287C163.903 243.606 164.234 242.128 164.896 240.851C165.58 239.553 166.488 238.543 167.62 237.819C168.773 237.074 170.065 236.702 171.497 236.702C172.415 236.702 173.27 236.851 174.06 237.149C174.85 237.447 175.534 237.851 176.11 238.362C176.709 238.872 177.168 239.436 177.488 240.053C177.809 240.67 177.969 241.287 177.969 241.904L177.136 241.713V238.234C177.136 237.872 177.253 237.574 177.488 237.34C177.745 237.085 178.054 236.957 178.417 236.957ZM171.817 251.574C172.885 251.574 173.825 251.298 174.637 250.745C175.47 250.191 176.121 249.447 176.591 248.511C177.061 247.553 177.296 246.479 177.296 245.287C177.296 244.117 177.061 243.064 176.591 242.128C176.121 241.17 175.47 240.426 174.637 239.894C173.825 239.34 172.885 239.064 171.817 239.064C170.77 239.064 169.831 239.33 168.997 239.862C168.186 240.394 167.545 241.128 167.075 242.064C166.605 243 166.37 244.074 166.37 245.287C166.37 246.479 166.605 247.553 167.075 248.511C167.545 249.447 168.186 250.191 168.997 250.745C169.831 251.298 170.77 251.574 171.817 251.574Z" fill="#0F172A"/>
<path d="M187.593 252.309C187.593 252.67 187.465 252.979 187.209 253.234C186.952 253.489 186.643 253.617 186.279 253.617C185.916 253.617 185.617 253.489 185.382 253.234C185.147 252.979 185.03 252.67 185.03 252.309V231.277C185.03 230.915 185.147 230.617 185.382 230.383C185.639 230.128 185.948 230 186.311 230C186.696 230 187.006 230.128 187.241 230.383C187.476 230.617 187.593 230.915 187.593 231.277V252.309Z" fill="#0F172A"/>
<path d="M203.759 231.277H215.166C215.529 231.277 215.839 231.394 216.095 231.628C216.351 231.862 216.48 232.16 216.48 232.521C216.48 232.883 216.351 233.181 216.095 233.415C215.839 233.628 215.529 233.734 215.166 233.734H204.849L205.137 233.191V241.266L204.817 240.915H213.724C214.087 240.915 214.397 241.032 214.653 241.266C214.91 241.5 215.038 241.798 215.038 242.16C215.038 242.521 214.91 242.819 214.653 243.053C214.397 243.266 214.087 243.372 213.724 243.372H204.913L205.137 243.085V251.351L204.945 251.128H215.166C215.529 251.128 215.839 251.255 216.095 251.511C216.351 251.766 216.48 252.053 216.48 252.372C216.48 252.734 216.351 253.032 216.095 253.266C215.839 253.5 215.529 253.617 215.166 253.617H203.759C203.396 253.617 203.087 253.489 202.83 253.234C202.595 252.979 202.478 252.67 202.478 252.309V232.553C202.478 232.191 202.595 231.894 202.83 231.66C203.087 231.404 203.396 231.277 203.759 231.277Z" fill="#0F172A"/>
<path d="M220.463 236.926C220.868 236.926 221.21 237.106 221.488 237.468L232.638 251.638C232.809 251.872 232.894 252.128 232.894 252.404C232.894 252.766 232.766 253.074 232.51 253.33C232.254 253.585 231.954 253.713 231.613 253.713C231.207 253.713 230.854 253.521 230.555 253.138L219.405 239C219.234 238.766 219.149 238.511 219.149 238.234C219.149 237.851 219.277 237.543 219.533 237.309C219.811 237.053 220.121 236.926 220.463 236.926ZM220.463 253.681C220.185 253.681 219.907 253.574 219.63 253.362C219.352 253.149 219.213 252.872 219.213 252.532C219.213 252.255 219.32 251.989 219.533 251.734L224.788 245.128L226.134 247.234L221.488 253.17C221.232 253.511 220.89 253.681 220.463 253.681ZM231.613 236.926C231.976 236.926 232.264 237.043 232.478 237.277C232.713 237.511 232.83 237.777 232.83 238.074C232.83 238.202 232.798 238.34 232.734 238.489C232.691 238.638 232.617 238.777 232.51 238.904L227.287 245.574L225.942 243.628L230.555 237.5C230.854 237.117 231.207 236.926 231.613 236.926Z" fill="#0F172A"/>
<path d="M244.665 236.862C246.117 236.862 247.42 237.223 248.574 237.947C249.727 238.67 250.635 239.67 251.297 240.947C251.981 242.223 252.322 243.691 252.322 245.351C252.322 246.989 251.981 248.457 251.297 249.755C250.635 251.032 249.727 252.043 248.574 252.787C247.441 253.511 246.16 253.872 244.729 253.872C243.938 253.872 243.191 253.755 242.486 253.521C241.802 253.266 241.172 252.947 240.595 252.564C240.04 252.16 239.57 251.713 239.186 251.223C238.801 250.713 238.523 250.213 238.353 249.723L239.057 249.277V258.691C239.057 259.053 238.94 259.362 238.705 259.617C238.47 259.872 238.16 260 237.776 260C237.413 260 237.103 259.872 236.847 259.617C236.612 259.383 236.494 259.074 236.494 258.691V238.298C236.494 237.936 236.612 237.638 236.847 237.404C237.103 237.149 237.413 237.021 237.776 237.021C238.16 237.021 238.47 237.149 238.705 237.404C238.94 237.638 239.057 237.936 239.057 238.298V241.138L238.577 240.883C238.726 240.351 238.983 239.84 239.346 239.351C239.73 238.862 240.19 238.436 240.724 238.074C241.279 237.691 241.888 237.394 242.55 237.181C243.233 236.968 243.938 236.862 244.665 236.862ZM244.376 239.223C243.308 239.223 242.358 239.489 241.525 240.021C240.713 240.553 240.072 241.277 239.602 242.191C239.154 243.106 238.929 244.16 238.929 245.351C238.929 246.521 239.154 247.574 239.602 248.511C240.072 249.447 240.713 250.181 241.525 250.713C242.358 251.245 243.308 251.511 244.376 251.511C245.444 251.511 246.384 251.245 247.196 250.713C248.007 250.181 248.648 249.447 249.118 248.511C249.588 247.574 249.823 246.521 249.823 245.351C249.823 244.16 249.588 243.106 249.118 242.191C248.648 241.277 248.007 240.553 247.196 240.021C246.384 239.489 245.444 239.223 244.376 239.223Z" fill="#0F172A"/>
<path d="M263.837 253.936C262.128 253.936 260.633 253.574 259.351 252.851C258.07 252.128 257.076 251.138 256.371 249.883C255.667 248.606 255.314 247.138 255.314 245.479C255.314 243.628 255.677 242.053 256.403 240.755C257.151 239.436 258.112 238.436 259.287 237.755C260.462 237.053 261.712 236.702 263.036 236.702C264.04 236.702 264.99 236.883 265.888 237.245C266.806 237.606 267.618 238.138 268.323 238.84C269.049 239.521 269.626 240.351 270.053 241.33C270.48 242.287 270.704 243.362 270.726 244.553C270.704 244.894 270.565 245.181 270.309 245.415C270.053 245.649 269.754 245.766 269.412 245.766H256.756L256.179 243.564H268.515L268.002 244.011V243.309C267.938 242.436 267.65 241.691 267.137 241.074C266.646 240.436 266.037 239.947 265.311 239.606C264.585 239.266 263.826 239.096 263.036 239.096C262.395 239.096 261.754 239.213 261.113 239.447C260.494 239.66 259.928 240.021 259.415 240.532C258.924 241.021 258.529 241.66 258.23 242.447C257.931 243.234 257.781 244.181 257.781 245.287C257.781 246.521 258.027 247.606 258.518 248.543C259.031 249.479 259.736 250.223 260.633 250.777C261.53 251.309 262.566 251.574 263.741 251.574C264.51 251.574 265.172 251.479 265.727 251.287C266.283 251.096 266.753 250.862 267.137 250.585C267.543 250.287 267.885 249.989 268.162 249.691C268.44 249.5 268.718 249.404 268.995 249.404C269.295 249.404 269.551 249.511 269.764 249.723C269.978 249.936 270.085 250.191 270.085 250.489C270.085 250.851 269.914 251.17 269.572 251.447C268.953 252.106 268.13 252.691 267.105 253.202C266.101 253.691 265.012 253.936 263.837 253.936Z" fill="#0F172A"/>
<path d="M276.027 253.617C275.664 253.617 275.354 253.489 275.098 253.234C274.863 252.979 274.745 252.67 274.745 252.309V238.394C274.745 238.032 274.863 237.734 275.098 237.5C275.354 237.245 275.664 237.117 276.027 237.117C276.411 237.117 276.721 237.245 276.956 237.5C277.191 237.734 277.309 238.032 277.309 238.394V242.606L276.924 241.936C277.052 241.277 277.276 240.638 277.597 240.021C277.939 239.383 278.366 238.819 278.878 238.33C279.391 237.819 279.979 237.426 280.641 237.149C281.303 236.851 282.029 236.702 282.82 236.702C283.289 236.702 283.717 236.819 284.101 237.053C284.507 237.266 284.71 237.574 284.71 237.979C284.71 238.426 284.592 238.755 284.357 238.968C284.122 239.181 283.855 239.287 283.556 239.287C283.279 239.287 283.012 239.234 282.755 239.128C282.499 239 282.179 238.936 281.794 238.936C281.26 238.936 280.726 239.085 280.192 239.383C279.68 239.66 279.199 240.064 278.75 240.596C278.323 241.128 277.971 241.734 277.693 242.415C277.437 243.074 277.309 243.787 277.309 244.553V252.309C277.309 252.67 277.18 252.979 276.924 253.234C276.689 253.489 276.39 253.617 276.027 253.617Z" fill="#0F172A"/>
<path d="M287.285 237.213H294.814C295.156 237.213 295.434 237.33 295.648 237.564C295.883 237.798 296 238.074 296 238.394C296 238.734 295.883 239.021 295.648 239.255C295.434 239.468 295.156 239.574 294.814 239.574H287.285C286.965 239.574 286.687 239.457 286.452 239.223C286.217 238.989 286.099 238.702 286.099 238.362C286.099 238.043 286.217 237.777 286.452 237.564C286.687 237.33 286.965 237.213 287.285 237.213ZM290.649 232.872C291.012 232.872 291.311 233 291.546 233.255C291.781 233.489 291.899 233.787 291.899 234.149V249.564C291.899 250.074 291.974 250.457 292.123 250.713C292.273 250.968 292.465 251.149 292.7 251.255C292.956 251.34 293.202 251.383 293.437 251.383C293.65 251.383 293.832 251.351 293.981 251.287C294.152 251.202 294.345 251.16 294.558 251.16C294.772 251.16 294.964 251.266 295.135 251.479C295.327 251.67 295.423 251.926 295.423 252.245C295.423 252.628 295.199 252.957 294.75 253.234C294.302 253.489 293.8 253.617 293.244 253.617C292.945 253.617 292.572 253.596 292.123 253.553C291.696 253.511 291.269 253.372 290.841 253.138C290.414 252.904 290.051 252.521 289.752 251.989C289.474 251.436 289.336 250.67 289.336 249.691V234.149C289.336 233.787 289.464 233.489 289.72 233.255C289.976 233 290.286 232.872 290.649 232.872Z" fill="#0F172A"/>
<path fill-rule="evenodd" clip-rule="evenodd" d="M103.625 210C95.3742 201.108 88.4019 191.013 83 180.008L100.371 169.979C107.954 185.95 119.45 199.704 133.62 210H103.625ZM100.371 80.0212L83 69.9918C103.349 28.5366 145.98 0 195.277 0C244.752 0 287.514 28.7434 307.774 70.4422L290.397 80.4749C273.643 44.7449 237.35 20 195.277 20C153.383 20 117.219 44.5355 100.371 80.0212ZM290.397 169.525C282.817 185.69 271.238 199.606 256.934 210H286.929C295.292 200.987 302.342 190.738 307.774 179.558L290.397 169.525Z" fill="#0F172A"/>
<circle cx="196" cy="125" r="75" fill="#0F172A" fill-opacity="0.1"/>
<path fill-rule="evenodd" clip-rule="evenodd" d="M378.676 119.67L374.041 132.444L364 105H348L364.5 145H384L391.233 126.919L378.676 119.67ZM15 145V105H0V145H15ZM87.4353 145V105H68.9707L58.6142 129L47.9852 105H29.4524V145H44.5784V125.111L52 145H65L72.3775 125.111V145H87.4353ZM141.206 118.5C141.206 120.981 140.502 123.241 139.093 125.278C137.685 127.278 135.596 128.87 132.825 130.056C130.1 131.241 126.784 131.833 122.877 131.833H116.881V145H101.755V105H122.877C128.782 105 133.302 106.222 136.436 108.667C139.616 111.111 141.206 114.389 141.206 118.5ZM121.174 122.111C124.308 122.111 125.875 120.907 125.875 118.5C125.875 116.093 124.308 114.889 121.174 114.889H116.881V122.111H121.174ZM166 145L168.352 138.778H184.431L187 145H203L185 105H168L150 145H166ZM176.391 118.556L180.752 129.5H172.031L176.391 118.556ZM212.328 125C212.328 121.111 213.282 117.648 215.19 114.611C217.143 111.574 219.914 109.222 223.503 107.556C227.091 105.852 231.315 105 236.176 105C240.355 105 244.079 105.648 247.35 106.944C250.666 108.204 253.346 110 255.39 112.333C257.479 114.667 258.865 117.389 259.546 120.5H243.602C242.876 119.204 241.831 118.204 240.468 117.5C239.151 116.759 237.629 116.389 235.903 116.389C233.359 116.389 231.338 117.167 229.839 118.722C228.386 120.278 227.659 122.37 227.659 125C227.659 127.63 228.386 129.722 229.839 131.278C231.338 132.833 233.359 133.611 235.903 133.611C237.629 133.611 239.151 133.259 240.468 132.556C241.831 131.815 242.876 130.796 243.602 129.5H259.546C258.865 132.611 257.479 135.333 255.39 137.667C253.346 140 250.666 141.815 247.35 143.111C244.079 144.37 240.355 145 236.176 145C231.315 145 227.091 144.167 223.503 142.5C219.914 140.796 217.143 138.426 215.19 135.389C213.282 132.352 212.328 128.889 212.328 125ZM310.37 115.167V105H269.762V115.167H282.435V145H297.561V115.167H310.37ZM337 145H322V105H337V145Z" fill="#0F172A"/>
<path d="M395 117.5L400 105H384L382 110L395 117.5Z" fill="#0F172A"/>
</svg>
