<svg width="166" height="32" fill="none" xmlns="http://www.w3.org/2000/svg"><path fill-rule="evenodd" clip-rule="evenodd" d="M3.13202 32C1.87912 30.645 0.820331 29.1068 1.05668e-05 27.4298L2.63794 25.9015C3.78942 28.3353 5.53511 30.431 7.6869 32H3.13202ZM2.63799 12.1937L8.4583e-06 10.6654C3.09008 4.34843 9.56395 0 17.05 0C24.5631 0 31.0567 4.37994 34.1333 10.734L31.4944 12.2629C28.9502 6.81831 23.4389 3.04769 17.05 3.04769C10.6881 3.04769 5.19642 6.78642 2.63799 12.1937ZM31.4945 25.8324C30.3435 28.2956 28.5852 30.4162 26.413 32H30.9679C32.2379 30.6266 33.3084 29.0648 34.1333 27.3612L31.4945 25.8324Z" fill="#0F172A"/><ellipse cx="17.1607" cy="19.0477" rx="11.3892" ry="11.4286" fill="#CFD1D4"/><path fill-rule="evenodd" clip-rule="evenodd" d="M158.682 10.5659L157.269 14.4592L154.209 6.09521H149.332L154.361 18.2857H160.304L162.508 12.7752L158.682 10.5659ZM47.8468 18.2857V6.09521H43.2754V18.2857H47.8468ZM69.9223 18.2857V6.09521H64.295L61.1388 13.4095L57.8994 6.09521H52.2514V18.2857H56.8612V12.2243L59.123 18.2857H63.0849L65.3333 12.2243V18.2857H69.9223ZM86.3095 10.2095C86.3095 10.9658 86.0949 11.6543 85.6657 12.2751C85.2366 12.8846 84.5998 13.37 83.7554 13.7312C82.9248 14.0924 81.9142 14.273 80.7237 14.273H78.8964V18.2857H74.2866V6.09521H80.7237C82.5233 6.09521 83.9007 6.4677 84.8559 7.21268C85.8249 7.95765 86.3095 8.95659 86.3095 10.2095ZM80.2046 11.31C81.1598 11.31 81.6373 10.9432 81.6373 10.2095C81.6373 9.47581 81.1598 9.10897 80.2046 9.10897H78.8964V11.31H80.2046ZM93.8658 18.2857L94.5825 16.3894H99.483L100.266 18.2857H105.142L99.6563 6.09521H94.4754L88.9897 18.2857H93.8658ZM97.0328 10.2264L98.3617 13.5619H95.7038L97.0328 10.2264ZM107.985 12.1905C107.985 11.0053 108.276 9.94989 108.857 9.02432C109.452 8.09874 110.297 7.38199 111.39 6.87405C112.484 6.35483 113.771 6.09521 115.253 6.09521C116.526 6.09521 117.661 6.29275 118.658 6.68781C119.669 7.07158 120.485 7.61902 121.108 8.33014C121.745 9.04125 122.167 9.87088 122.375 10.819H117.516C117.295 10.424 116.976 10.1192 116.561 9.90474C116.159 9.67899 115.696 9.56611 115.17 9.56611C114.394 9.56611 113.778 9.80315 113.322 10.2772C112.879 10.7513 112.657 11.389 112.657 12.1905C112.657 12.9919 112.879 13.6296 113.322 14.1037C113.778 14.5778 114.394 14.8148 115.17 14.8148C115.696 14.8148 116.159 14.7076 116.561 14.4931C116.976 14.2674 117.295 13.9569 117.516 13.5619H122.375C122.167 14.51 121.745 15.3397 121.108 16.0508C120.485 16.7619 119.669 17.315 118.658 17.71C117.661 18.0938 116.526 18.2857 115.253 18.2857C113.771 18.2857 112.484 18.0317 111.39 17.5238C110.297 17.0046 109.452 16.2822 108.857 15.3566C108.276 14.431 107.985 13.3756 107.985 12.1905ZM137.864 9.19363V6.09521H125.488V9.19363H129.351V18.2857H133.96V9.19363H137.864ZM145.98 18.2857H141.409V6.09521H145.98V18.2857Z" fill="#0F172A"/><path d="M163.657 9.90474L165.181 6.09521H160.305L159.695 7.61902L163.657 9.90474Z" fill="#0F172A"/><path d="M46.1072 23.246C46.5824 23.246 46.999 23.3368 47.3571 23.5183C47.7216 23.6934 48.0243 23.9398 48.2652 24.2575C48.5061 24.5753 48.6851 24.9416 48.8023 25.3566C48.9259 25.7651 48.9878 26.1963 48.9878 26.6502C48.9878 27.2727 48.8804 27.8434 48.6655 28.3621C48.4507 28.8744 48.1317 29.2861 47.7086 29.5974C47.2855 29.9021 46.7517 30.0545 46.1072 30.0545H43.666C43.5553 30.0545 43.4609 30.0156 43.3828 29.9378C43.3112 29.86 43.2754 29.766 43.2754 29.6557V23.635C43.2754 23.5248 43.3112 23.434 43.3828 23.3627C43.4609 23.2849 43.5553 23.246 43.666 23.246H46.1072ZM46.0095 29.2958C46.5108 29.2958 46.9177 29.1759 47.2301 28.936C47.5491 28.696 47.7802 28.3751 47.9234 27.973C48.0732 27.571 48.148 27.1301 48.148 26.6502C48.148 26.3001 48.1057 25.9662 48.0211 25.6484C47.943 25.3242 47.816 25.0389 47.6402 24.7925C47.471 24.5461 47.2497 24.3516 46.9762 24.2089C46.7093 24.0663 46.3871 23.9949 46.0095 23.9949H44.0077L44.0859 23.9171V29.3931L44.0273 29.2958H46.0095Z" fill="#0F172A"/><path d="M50.9971 29.6557C50.9971 29.766 50.9581 29.86 50.8799 29.9378C50.8083 30.0156 50.7172 30.0545 50.6065 30.0545C50.4893 30.0545 50.395 30.0156 50.3233 29.9378C50.2517 29.86 50.2159 29.766 50.2159 29.6557V25.3372C50.2159 25.2269 50.2517 25.1362 50.3233 25.0648C50.4015 24.987 50.4959 24.9481 50.6065 24.9481C50.7172 24.9481 50.8083 24.987 50.8799 25.0648C50.9581 25.1362 50.9971 25.2269 50.9971 25.3372V29.6557ZM50.6065 24.2964C50.4438 24.2964 50.3233 24.264 50.2452 24.1992C50.1671 24.1343 50.1281 24.0338 50.1281 23.8977V23.7615C50.1281 23.6253 50.1704 23.5248 50.255 23.46C50.3396 23.3951 50.4601 23.3627 50.6163 23.3627C50.7725 23.3627 50.8897 23.3951 50.9678 23.46C51.0459 23.5248 51.085 23.6253 51.085 23.7615V23.8977C51.085 24.0338 51.0427 24.1343 50.9581 24.1992C50.8799 24.264 50.7628 24.2964 50.6065 24.2964Z" fill="#0F172A"/><path d="M54.5681 24.8995C54.8546 24.8995 55.1182 24.9481 55.3591 25.0454C55.5999 25.1362 55.8083 25.2561 55.984 25.4053C56.1663 25.5544 56.3063 25.71 56.4039 25.8721C56.5081 26.0342 56.5601 26.1866 56.5601 26.3293L56.3648 26.2126V25.3664C56.3648 25.2561 56.4007 25.1653 56.4723 25.094C56.5504 25.0162 56.6448 24.9773 56.7554 24.9773C56.8726 24.9773 56.967 25.0162 57.0386 25.094C57.1102 25.1653 57.146 25.2561 57.146 25.3664V29.6265C57.146 30.1583 57.0321 30.5992 56.8043 30.9493C56.5829 31.2995 56.2835 31.5621 55.9059 31.7372C55.5283 31.9123 55.1084 31.9998 54.6462 31.9998C54.4509 31.9998 54.2329 31.9739 53.992 31.922C53.7577 31.8701 53.5493 31.8053 53.3671 31.7274C53.1848 31.6561 53.0709 31.5816 53.0253 31.5037C52.9276 31.4389 52.8658 31.3643 52.8398 31.28C52.8202 31.2022 52.8333 31.1277 52.8788 31.0563C52.9439 30.9655 53.022 30.9202 53.1132 30.9202C53.2043 30.9202 53.3215 30.9493 53.4647 31.0077C53.5298 31.0271 53.6242 31.0596 53.7479 31.105C53.8716 31.1503 54.0148 31.1893 54.1775 31.2217C54.3403 31.2606 54.4998 31.28 54.656 31.28C55.2093 31.28 55.6325 31.1341 55.9254 30.8423C56.2184 30.557 56.3648 30.1777 56.3648 29.7043V28.7998L56.4723 28.8484C56.4332 29.03 56.3551 29.1986 56.2379 29.3542C56.1207 29.5098 55.9743 29.6492 55.7985 29.7724C55.6292 29.8892 55.4372 29.9832 55.2224 30.0545C55.0141 30.1193 54.8025 30.1518 54.5877 30.1518C54.132 30.1518 53.7218 30.0383 53.3573 29.8113C52.9993 29.5844 52.7128 29.2731 52.498 28.8776C52.2897 28.4821 52.1855 28.0314 52.1855 27.5256C52.1855 27.0134 52.2897 26.5595 52.498 26.1639C52.7128 25.7684 52.9993 25.4604 53.3573 25.2399C53.7153 25.013 54.1189 24.8995 54.5681 24.8995ZM54.6755 25.6192C54.337 25.6192 54.0376 25.7035 53.7772 25.8721C53.5168 26.0342 53.3117 26.2579 53.162 26.5433C53.0123 26.8286 52.9374 27.156 52.9374 27.5256C52.9374 27.8823 53.0123 28.2065 53.162 28.4983C53.3117 28.7836 53.5168 29.0105 53.7772 29.1791C54.0376 29.3477 54.337 29.432 54.6755 29.432C55.0141 29.432 55.3135 29.351 55.5739 29.1888C55.8343 29.0203 56.0394 28.7933 56.1891 28.508C56.3388 28.2227 56.4137 27.8952 56.4137 27.5256C56.4137 27.1495 56.3388 26.8188 56.1891 26.5335C56.0394 26.2482 55.8343 26.0245 55.5739 25.8624C55.3135 25.7003 55.0141 25.6192 54.6755 25.6192Z" fill="#0F172A"/><path d="M59.441 29.6557C59.441 29.766 59.4019 29.86 59.3238 29.9378C59.2522 30.0156 59.1611 30.0545 59.0504 30.0545C58.9332 30.0545 58.8388 30.0156 58.7672 29.9378C58.6956 29.86 58.6598 29.766 58.6598 29.6557V25.3372C58.6598 25.2269 58.6956 25.1362 58.7672 25.0648C58.8453 24.987 58.9397 24.9481 59.0504 24.9481C59.1611 24.9481 59.2522 24.987 59.3238 25.0648C59.4019 25.1362 59.441 25.2269 59.441 25.3372V29.6557ZM59.0504 24.2964C58.8876 24.2964 58.7672 24.264 58.6891 24.1992C58.611 24.1343 58.5719 24.0338 58.5719 23.8977V23.7615C58.5719 23.6253 58.6142 23.5248 58.6989 23.46C58.7835 23.3951 58.9039 23.3627 59.0602 23.3627C59.2164 23.3627 59.3336 23.3951 59.4117 23.46C59.4898 23.5248 59.5289 23.6253 59.5289 23.7615V23.8977C59.5289 24.0338 59.4865 24.1343 59.4019 24.1992C59.3238 24.264 59.2066 24.2964 59.0504 24.2964Z" fill="#0F172A"/><path d="M60.7466 25.0551H63.0413C63.1454 25.0551 63.2301 25.0908 63.2952 25.1621C63.3668 25.2334 63.4026 25.3177 63.4026 25.415C63.4026 25.5187 63.3668 25.6063 63.2952 25.6776C63.2301 25.7424 63.1454 25.7749 63.0413 25.7749H60.7466C60.6489 25.7749 60.5643 25.7392 60.4927 25.6679C60.4211 25.5965 60.3853 25.509 60.3853 25.4053C60.3853 25.308 60.4211 25.2269 60.4927 25.1621C60.5643 25.0908 60.6489 25.0551 60.7466 25.0551ZM61.7719 23.7323C61.8825 23.7323 61.9737 23.7712 62.0453 23.849C62.1169 23.9204 62.1527 24.0111 62.1527 24.1214V28.8192C62.1527 28.9749 62.1755 29.0916 62.221 29.1694C62.2666 29.2472 62.3252 29.3023 62.3968 29.3347C62.4749 29.3607 62.5498 29.3737 62.6214 29.3737C62.6865 29.3737 62.7418 29.3639 62.7874 29.3445C62.8395 29.3185 62.8981 29.3056 62.9632 29.3056C63.0283 29.3056 63.0869 29.338 63.1389 29.4028C63.1975 29.4612 63.2268 29.539 63.2268 29.6363C63.2268 29.753 63.1585 29.8535 63.0218 29.9378C62.885 30.0156 62.7321 30.0545 62.5628 30.0545C62.4717 30.0545 62.3577 30.048 62.221 30.035C62.0908 30.0221 61.9606 29.9799 61.8305 29.9086C61.7003 29.8373 61.5896 29.7206 61.4984 29.5585C61.4138 29.3899 61.3715 29.1564 61.3715 28.8581V24.1214C61.3715 24.0111 61.4106 23.9204 61.4887 23.849C61.5668 23.7712 61.6612 23.7323 61.7719 23.7323Z" fill="#0F172A"/><path d="M68.6978 24.9773C68.815 24.9773 68.9094 25.0162 68.981 25.094C69.0526 25.1653 69.0884 25.2561 69.0884 25.3664V29.6557C69.0884 29.766 69.0494 29.86 68.9713 29.9378C68.8996 30.0156 68.8085 30.0545 68.6978 30.0545C68.5872 30.0545 68.4928 30.0156 68.4147 29.9378C68.3431 29.86 68.3072 29.766 68.3072 29.6557V28.7317L68.4928 28.7123C68.4928 28.8549 68.444 29.0105 68.3463 29.1791C68.2487 29.3477 68.1152 29.5066 67.9459 29.6557C67.7767 29.7984 67.5781 29.9183 67.3503 30.0156C67.1225 30.1064 66.8751 30.1518 66.6082 30.1518C66.1655 30.1518 65.7651 30.0383 65.4071 29.8113C65.0556 29.5779 64.7789 29.2634 64.5771 28.8679C64.3753 28.4723 64.2744 28.0217 64.2744 27.5159C64.2744 27.0036 64.3753 26.553 64.5771 26.1639C64.7854 25.7684 65.0621 25.4604 65.4071 25.2399C65.7586 25.013 66.1525 24.8995 66.5886 24.8995C66.8686 24.8995 67.129 24.9449 67.3698 25.0357C67.6107 25.1264 67.819 25.2496 67.9948 25.4053C68.177 25.5609 68.317 25.7327 68.4147 25.9208C68.5123 26.1088 68.5611 26.2969 68.5611 26.4849L68.3072 26.4265V25.3664C68.3072 25.2561 68.3431 25.1653 68.4147 25.094C68.4928 25.0162 68.5872 24.9773 68.6978 24.9773ZM66.6863 29.432C67.0118 29.432 67.2982 29.3477 67.5456 29.1791C67.7995 29.0105 67.998 28.7836 68.1412 28.4983C68.2845 28.2065 68.3561 27.879 68.3561 27.5159C68.3561 27.1593 68.2845 26.8383 68.1412 26.553C67.998 26.2612 67.7995 26.0342 67.5456 25.8721C67.2982 25.7035 67.0118 25.6192 66.6863 25.6192C66.3673 25.6192 66.0809 25.7003 65.827 25.8624C65.5796 26.0245 65.3843 26.2482 65.2411 26.5335C65.0979 26.8188 65.0263 27.1463 65.0263 27.5159C65.0263 27.879 65.0979 28.2065 65.2411 28.4983C65.3843 28.7836 65.5796 29.0105 65.827 29.1791C66.0809 29.3477 66.3673 29.432 66.6863 29.432Z" fill="#0F172A"/><path d="M71.4942 29.6557C71.4942 29.766 71.4552 29.86 71.377 29.9378C71.2989 30.0156 71.2045 30.0545 71.0939 30.0545C70.9832 30.0545 70.8921 30.0156 70.8205 29.9378C70.7488 29.86 70.713 29.766 70.713 29.6557V23.246C70.713 23.1358 70.7488 23.045 70.8205 22.9737C70.8986 22.8958 70.993 22.8569 71.1036 22.8569C71.2208 22.8569 71.3152 22.8958 71.3868 22.9737C71.4584 23.045 71.4942 23.1358 71.4942 23.246V29.6557Z" fill="#0F172A"/><path d="M76.4211 23.246H79.8974C80.008 23.246 80.1024 23.2817 80.1805 23.353C80.2586 23.4243 80.2977 23.5151 80.2977 23.6253C80.2977 23.7356 80.2586 23.8263 80.1805 23.8977C80.1024 23.9625 80.008 23.9949 79.8974 23.9949H76.7531L76.841 23.8296V26.2904L76.7433 26.1834H79.4579C79.5686 26.1834 79.663 26.219 79.7411 26.2904C79.8192 26.3617 79.8583 26.4525 79.8583 26.5627C79.8583 26.6729 79.8192 26.7637 79.7411 26.835C79.663 26.8999 79.5686 26.9323 79.4579 26.9323H76.7726L76.841 26.8448V29.3639L76.7824 29.2958H79.8974C80.008 29.2958 80.1024 29.3347 80.1805 29.4126C80.2586 29.4904 80.2977 29.5779 80.2977 29.6752C80.2977 29.7854 80.2586 29.8762 80.1805 29.9475C80.1024 30.0188 80.008 30.0545 79.8974 30.0545H76.4211C76.3104 30.0545 76.216 30.0156 76.1379 29.9378C76.0663 29.86 76.0305 29.766 76.0305 29.6557V23.635C76.0305 23.5248 76.0663 23.434 76.1379 23.3627C76.216 23.2849 76.3104 23.246 76.4211 23.246Z" fill="#0F172A"/><path d="M81.5116 24.9676C81.6353 24.9676 81.7394 25.0227 81.8241 25.1329L85.2222 29.4515C85.2743 29.5228 85.3003 29.6006 85.3003 29.6849C85.3003 29.7951 85.2613 29.8892 85.1831 29.967C85.105 30.0448 85.0139 30.0837 84.9097 30.0837C84.786 30.0837 84.6786 30.0253 84.5875 29.9086L81.1894 25.5998C81.1373 25.5285 81.1112 25.4507 81.1112 25.3664C81.1112 25.2496 81.1503 25.1556 81.2284 25.0843C81.313 25.0065 81.4074 24.9676 81.5116 24.9676ZM81.5116 30.074C81.427 30.074 81.3423 30.0415 81.2577 29.9767C81.1731 29.9118 81.1308 29.8276 81.1308 29.7238C81.1308 29.6395 81.1633 29.5585 81.2284 29.4806L82.8298 27.4673L83.24 28.1092L81.8241 29.9183C81.7459 30.0221 81.6418 30.074 81.5116 30.074ZM84.9097 24.9676C85.0204 24.9676 85.1083 25.0032 85.1734 25.0746C85.245 25.1459 85.2808 25.2269 85.2808 25.3177C85.2808 25.3566 85.271 25.3988 85.2515 25.4442C85.2385 25.4896 85.2157 25.5317 85.1831 25.5706L83.5915 27.6034L83.1814 27.0101L84.5875 25.1426C84.6786 25.0259 84.786 24.9676 84.9097 24.9676Z" fill="#0F172A"/><path d="M88.8874 24.9481C89.3301 24.9481 89.7272 25.0584 90.0787 25.2788C90.4303 25.4993 90.7069 25.804 90.9087 26.1931C91.1171 26.5822 91.2212 27.0296 91.2212 27.5354C91.2212 28.0346 91.1171 28.4821 90.9087 28.8776C90.7069 29.2667 90.4303 29.5747 90.0787 29.8016C89.7337 30.0221 89.3431 30.1323 88.907 30.1323C88.6661 30.1323 88.4383 30.0966 88.2234 30.0253C88.0151 29.9475 87.8231 29.8502 87.6473 29.7335C87.478 29.6103 87.3348 29.4742 87.2177 29.325C87.1005 29.1694 87.0159 29.017 86.9638 28.8679L87.1786 28.7317V31.601C87.1786 31.7112 87.1428 31.8053 87.0712 31.8831C86.9996 31.9609 86.9052 31.9998 86.788 31.9998C86.6773 31.9998 86.5829 31.9609 86.5048 31.8831C86.4332 31.8117 86.3974 31.7177 86.3974 31.601V25.3858C86.3974 25.2756 86.4332 25.1848 86.5048 25.1135C86.5829 25.0357 86.6773 24.9968 86.788 24.9968C86.9052 24.9968 86.9996 25.0357 87.0712 25.1135C87.1428 25.1848 87.1786 25.2756 87.1786 25.3858V26.2515L87.0321 26.1737C87.0777 26.0115 87.1558 25.8559 87.2665 25.7068C87.3837 25.5576 87.5236 25.428 87.6864 25.3177C87.8556 25.201 88.0412 25.1102 88.243 25.0454C88.4513 24.9805 88.6661 24.9481 88.8874 24.9481ZM88.7995 25.6679C88.4741 25.6679 88.1844 25.7489 87.9305 25.911C87.6831 26.0731 87.4878 26.2936 87.3446 26.5724C87.2079 26.8513 87.1395 27.1722 87.1395 27.5354C87.1395 27.892 87.2079 28.213 87.3446 28.4983C87.4878 28.7836 87.6831 29.0073 87.9305 29.1694C88.1844 29.3315 88.4741 29.4126 88.7995 29.4126C89.125 29.4126 89.4115 29.3315 89.6589 29.1694C89.9062 29.0073 90.1015 28.7836 90.2447 28.4983C90.388 28.213 90.4596 27.892 90.4596 27.5354C90.4596 27.1722 90.388 26.8513 90.2447 26.5724C90.1015 26.2936 89.9062 26.0731 89.6589 25.911C89.4115 25.7489 89.125 25.6679 88.7995 25.6679Z" fill="#0F172A"/><path d="M94.7304 30.1518C94.2096 30.1518 93.754 30.0415 93.3634 29.8211C92.9728 29.6006 92.6701 29.2991 92.4552 28.9165C92.2404 28.5275 92.133 28.08 92.133 27.5743C92.133 27.0101 92.2437 26.5303 92.465 26.1347C92.6928 25.7327 92.9858 25.428 93.3438 25.2205C93.7019 25.0065 94.0827 24.8995 94.4863 24.8995C94.7923 24.8995 95.082 24.9546 95.3554 25.0648C95.6353 25.1751 95.8827 25.3372 96.0975 25.5512C96.3188 25.7587 96.4946 26.0115 96.6248 26.3098C96.755 26.6016 96.8233 26.9291 96.8299 27.2922C96.8233 27.3959 96.781 27.4835 96.7029 27.5548C96.6248 27.6261 96.5337 27.6618 96.4295 27.6618H92.5724L92.3966 26.9907H96.1561L95.9999 27.1268V26.9129C95.9803 26.647 95.8924 26.4201 95.7362 26.232C95.5865 26.0375 95.4009 25.8883 95.1796 25.7846C94.9583 25.6808 94.7272 25.629 94.4863 25.629C94.291 25.629 94.0957 25.6646 93.9004 25.736C93.7116 25.8008 93.5391 25.911 93.3829 26.0667C93.2332 26.2158 93.1127 26.4103 93.0216 26.6502C92.9305 26.8902 92.8849 27.1787 92.8849 27.5159C92.8849 27.892 92.9598 28.2227 93.1095 28.508C93.2657 28.7933 93.4805 29.0203 93.754 29.1888C94.0274 29.351 94.3431 29.432 94.7011 29.432C94.9355 29.432 95.1373 29.4028 95.3066 29.3445C95.4758 29.2861 95.619 29.2148 95.7362 29.1305C95.8599 29.0397 95.9641 28.9489 96.0487 28.8581C96.1333 28.7998 96.2179 28.7706 96.3026 28.7706C96.3937 28.7706 96.4718 28.803 96.5369 28.8679C96.602 28.9327 96.6346 29.0105 96.6346 29.1013C96.6346 29.2115 96.5825 29.3088 96.4783 29.3931C96.2895 29.5941 96.0389 29.7724 95.7264 29.9281C95.4205 30.0772 95.0885 30.1518 94.7304 30.1518Z" fill="#0F172A"/><path d="M98.4455 30.0545C98.3348 30.0545 98.2404 30.0156 98.1623 29.9378C98.0907 29.86 98.0549 29.766 98.0549 29.6557V25.415C98.0549 25.3048 98.0907 25.214 98.1623 25.1426C98.2404 25.0648 98.3348 25.0259 98.4455 25.0259C98.5626 25.0259 98.657 25.0648 98.7286 25.1426C98.8003 25.214 98.8361 25.3048 98.8361 25.415V26.6989L98.7189 26.4946C98.7579 26.2936 98.8263 26.0991 98.9239 25.911C99.0281 25.7165 99.1583 25.5447 99.3145 25.3955C99.4708 25.2399 99.6498 25.12 99.8516 25.0357C100.053 24.9449 100.275 24.8995 100.516 24.8995C100.659 24.8995 100.789 24.9352 100.906 25.0065C101.03 25.0713 101.092 25.1653 101.092 25.2885C101.092 25.4247 101.056 25.5252 100.984 25.5901C100.913 25.6549 100.831 25.6873 100.74 25.6873C100.656 25.6873 100.574 25.6711 100.496 25.6387C100.418 25.5998 100.32 25.5803 100.203 25.5803C100.04 25.5803 99.8776 25.6257 99.7149 25.7165C99.5587 25.8008 99.4122 25.924 99.2755 26.0861C99.1453 26.2482 99.0379 26.433 98.9532 26.6405C98.8751 26.8415 98.8361 27.0588 98.8361 27.2922V29.6557C98.8361 29.766 98.797 29.86 98.7189 29.9378C98.6473 30.0156 98.5561 30.0545 98.4455 30.0545Z" fill="#0F172A"/><path d="M101.876 25.0551H104.171C104.275 25.0551 104.36 25.0908 104.425 25.1621C104.497 25.2334 104.533 25.3177 104.533 25.415C104.533 25.5187 104.497 25.6063 104.425 25.6776C104.36 25.7424 104.275 25.7749 104.171 25.7749H101.876C101.779 25.7749 101.694 25.7392 101.623 25.6679C101.551 25.5965 101.515 25.509 101.515 25.4053C101.515 25.308 101.551 25.2269 101.623 25.1621C101.694 25.0908 101.779 25.0551 101.876 25.0551ZM102.902 23.7323C103.012 23.7323 103.104 23.7712 103.175 23.849C103.247 23.9204 103.283 24.0111 103.283 24.1214V28.8192C103.283 28.9749 103.305 29.0916 103.351 29.1694C103.397 29.2472 103.455 29.3023 103.527 29.3347C103.605 29.3607 103.68 29.3737 103.751 29.3737C103.816 29.3737 103.872 29.3639 103.917 29.3445C103.969 29.3185 104.028 29.3056 104.093 29.3056C104.158 29.3056 104.217 29.338 104.269 29.4028C104.327 29.4612 104.357 29.539 104.357 29.6363C104.357 29.753 104.288 29.8535 104.152 29.9378C104.015 30.0156 103.862 30.0545 103.693 30.0545C103.602 30.0545 103.488 30.048 103.351 30.035C103.221 30.0221 103.091 29.9799 102.96 29.9086C102.83 29.8373 102.72 29.7206 102.628 29.5585C102.544 29.3899 102.501 29.1564 102.501 28.8581V24.1214C102.501 24.0111 102.54 23.9204 102.619 23.849C102.697 23.7712 102.791 23.7323 102.902 23.7323Z" fill="#0F172A"/></svg>