<svg width="102" height="102" viewBox="0 0 102 102" fill="none" xmlns="http://www.w3.org/2000/svg">
<rect width="102" height="102" fill="white" fill-opacity="0.1"/>
<rect x="23" y="23" width="56" height="56" rx="12" fill="#0091E2"/>
<path d="M72.8656 47.1008C72.7415 46.9974 71.6245 46.1493 69.225 46.1493C68.6045 46.1493 67.9632 46.2114 67.3427 46.3148C66.8876 43.15 64.2606 41.6193 64.1571 41.5365L63.5159 41.1642L63.1022 41.7641C62.5851 42.5708 62.192 43.4809 61.9645 44.4118C61.5301 46.2114 61.799 47.9076 62.7092 49.3555C61.6129 49.9761 59.8339 50.1209 59.4616 50.1416L30.0886 50.1416C29.3233 50.1416 28.7027 50.7621 28.7027 51.5275C28.6614 54.0924 29.0957 56.6574 29.9852 59.0776C30.9988 61.7253 32.5088 63.6904 34.4532 64.8901C36.6458 66.2346 40.2244 67 44.258 67C46.0783 67 47.8986 66.8345 49.6982 66.5036C52.2011 66.0485 54.6006 65.1797 56.8139 63.9179C58.6342 62.863 60.2683 61.5184 61.6542 59.9463C63.9917 57.3193 65.3776 54.382 66.3911 51.7757L66.8048 51.7757C69.3491 51.7757 70.9212 50.7621 71.79 49.8933C72.3692 49.3555 72.8035 48.6936 73.1138 47.9489L73.3 47.4111L72.8656 47.1008Z" fill="white"/>
<path d="M32.8191 49.2935L36.7492 49.2935C36.9354 49.2935 37.1009 49.1487 37.1009 48.9418L37.1009 45.4253C37.1009 45.2392 36.9561 45.0737 36.7492 45.0737L32.8191 45.0737C32.6329 45.0737 32.4674 45.2185 32.4674 45.4253L32.4674 48.9418C32.4881 49.1487 32.6329 49.2935 32.8191 49.2935ZM38.2386 49.2935L42.1688 49.2935C42.3549 49.2935 42.5204 49.1487 42.5204 48.9418L42.5204 45.4253C42.5204 45.2392 42.3756 45.0737 42.1688 45.0737L38.2386 45.0737C38.0524 45.0737 37.8869 45.2185 37.8869 45.4253L37.8869 48.9418C37.9076 49.1487 38.0524 49.2935 38.2386 49.2935ZM43.7615 49.2935L47.6917 49.2935C47.8779 49.2935 48.0434 49.1487 48.0434 48.9418L48.0434 45.4253C48.0434 45.2392 47.8986 45.0737 47.6917 45.0737L43.7615 45.0737C43.5754 45.0737 43.4099 45.2185 43.4099 45.4253L43.4099 48.9418C43.4099 49.1487 43.5547 49.2935 43.7615 49.2935ZM49.2017 49.2935L53.1319 49.2935C53.3181 49.2935 53.4836 49.1487 53.4836 48.9418L53.4836 45.4253C53.4836 45.2392 53.3388 45.0737 53.1319 45.0737L49.2017 45.0737C49.0156 45.0737 48.8501 45.2185 48.8501 45.4253L48.8501 48.9418C48.8501 49.1487 49.0156 49.2935 49.2017 49.2935ZM38.2386 44.267L42.1688 44.267C42.3549 44.267 42.5204 44.1015 42.5204 43.9153L42.5204 40.3988C42.5204 40.2127 42.3756 40.0472 42.1688 40.0472L38.2386 40.0472C38.0524 40.0472 37.8869 40.192 37.8869 40.3988L37.8869 43.9153C37.9076 44.1015 38.0524 44.267 38.2386 44.267ZM43.7615 44.267L47.6917 44.267C47.8779 44.267 48.0434 44.1015 48.0434 43.9153L48.0434 40.3988C48.0434 40.2127 47.8986 40.0472 47.6917 40.0472L43.7615 40.0472C43.5754 40.0472 43.4099 40.192 43.4099 40.3988L43.4099 43.9153C43.4099 44.1015 43.5547 44.267 43.7615 44.267ZM49.2017 44.267L53.1319 44.267C53.3181 44.267 53.4836 44.1015 53.4836 43.9153L53.4836 40.3988C53.4836 40.2127 53.3181 40.0472 53.1319 40.0472L49.2017 40.0472C49.0156 40.0472 48.8501 40.192 48.8501 40.3988L48.8501 43.9153C48.8501 44.1015 49.0156 44.267 49.2017 44.267ZM49.2017 39.2198L53.1319 39.2198C53.3181 39.2198 53.4836 39.075 53.4836 38.8681L53.4836 35.3516C53.4836 35.1655 53.3181 35 53.1319 35L49.2017 35C49.0156 35 48.8501 35.1448 48.8501 35.3516L48.8501 38.8681C48.8501 39.0543 49.0156 39.2198 49.2017 39.2198ZM54.6833 49.2935L58.6135 49.2935C58.7997 49.2935 58.9651 49.1487 58.9651 48.9418L58.9651 45.4253C58.9651 45.2392 58.8203 45.0737 58.6135 45.0737L54.6833 45.0737C54.4971 45.0737 54.3317 45.2185 54.3317 45.4253L54.3317 48.9418C54.3523 49.1487 54.4971 49.2935 54.6833 49.2935Z" fill="white"/>
</svg>
