<svg width="102" height="102" viewBox="0 0 102 102" fill="none" xmlns="http://www.w3.org/2000/svg">
<rect width="102" height="102" fill="white" fill-opacity="0.1"/>
<rect x="23" y="23" width="56" height="56" rx="12" fill="white"/>
<g clip-path="url(#clip0_2024_317)">
<path d="M46.7102 36.0049C41.8134 36.3673 37.6505 36.7005 37.4548 36.7395C36.906 36.8374 36.4068 37.2096 36.172 37.6996L35.9664 38.1307L35.9862 48.4049L36.0153 58.6792L36.3287 59.3159C36.5053 59.6684 37.7 61.3141 39.0026 63.0081C41.5786 66.3478 41.7644 66.5342 42.7437 66.6321C43.028 66.6612 45.163 66.5633 47.4745 66.4264C49.7959 66.2796 53.5172 66.0542 55.7506 65.9272C65.2897 65.3481 64.7998 65.397 65.3479 64.9269C66.0336 64.3589 65.9847 65.2893 66.0138 52.8019C66.0336 42.2142 66.0237 41.5193 65.867 41.196C65.6812 40.8336 65.3479 40.5791 60.9993 37.523C58.0907 35.4859 57.885 35.3781 56.5819 35.3583C56.0436 35.3391 51.5971 35.6327 46.7102 36.0049ZM57.7184 37.3465C58.1297 37.5323 61.1368 39.6283 61.5772 40.0303C61.6948 40.148 61.7339 40.2458 61.675 40.3047C61.5381 40.4224 42.9289 41.5292 42.3906 41.4505C42.146 41.4115 41.7836 41.2647 41.578 41.1272C40.7257 40.5493 38.6105 38.8157 38.6105 38.6887C38.6105 38.3555 38.5418 38.3555 46.8378 37.7584C48.4246 37.6506 51.0297 37.4549 52.6166 37.3273C56.0535 37.0529 57.0823 37.0628 57.7184 37.3465ZM63.6341 42.7042C63.771 42.841 63.8887 43.1055 63.9277 43.3601C63.9568 43.5955 63.9766 47.9831 63.9568 53.0955C63.9277 61.8709 63.9178 62.4197 63.7512 62.6742C63.6533 62.8309 63.4576 62.9975 63.3102 63.0465C62.8995 63.2131 43.3996 64.3199 42.9982 64.2022C42.8124 64.1533 42.5572 63.9966 42.4203 63.8597L42.185 63.6052L42.1559 54.1441C42.136 47.5037 42.1559 44.5654 42.2345 44.3009C42.2934 44.1052 42.4402 43.8698 42.5678 43.7918C42.7443 43.6741 43.9 43.5763 47.8765 43.3415C50.668 43.1848 54.987 42.9203 57.4651 42.7735C63.3597 42.4106 63.3405 42.4106 63.6341 42.7042Z" fill="black"/>
<path d="M58.3942 45.9461C57.3363 46.0148 56.396 46.1127 56.2883 46.1715C55.9649 46.3381 55.7692 46.6125 55.7302 46.9259C55.7011 47.2493 55.799 47.2883 56.8562 47.4159L57.3164 47.4747V51.6568C57.3164 54.1442 57.2774 55.7899 57.2285 55.741C57.1796 55.6821 55.789 53.5669 54.1334 51.0399C52.4785 48.5035 51.1071 46.4168 51.0873 46.3976C51.0675 46.3778 49.9904 46.4366 48.6978 46.5252C47.1109 46.633 46.2394 46.7308 46.0629 46.8287C45.7786 46.9755 45.4652 47.4945 45.4652 47.8377C45.4652 48.0433 45.8375 48.1511 46.621 48.1511H47.0322V60.1782L46.3664 60.3838C45.8474 60.5405 45.6708 60.6384 45.5829 60.8341C45.4262 61.1674 45.4361 61.4708 45.5928 61.4708C45.6516 61.4708 46.7585 61.4021 48.0313 61.3241C50.5485 61.1773 50.8321 61.1085 51.0966 60.5895C51.1753 60.4328 51.2434 60.2662 51.2434 60.2172C51.2434 60.1782 50.9009 60.0605 50.489 59.9627C50.0678 59.8648 49.6466 59.7669 49.5587 59.7471C49.3921 59.6982 49.3822 59.3947 49.3822 55.1829V50.6676L52.3595 55.3396C55.4837 60.2364 55.8758 60.7951 56.3558 61.0398C56.9535 61.3532 58.4716 61.1376 59.2353 60.6384L59.4706 60.4916L59.4905 53.8122L59.5196 47.1229L60.0386 47.025C60.6555 46.9074 60.9398 46.6237 60.9398 46.1338C60.9398 45.8203 60.92 45.8005 60.6264 45.8104C60.4511 45.8185 59.4421 45.8773 58.3942 45.9461Z" fill="black"/>
</g>
<defs>
<clipPath id="clip0_2024_317">
<rect width="30.0672" height="32" fill="white" transform="translate(35.9664 35)"/>
</clipPath>
</defs>
</svg>
