<svg width="102" height="102" viewBox="0 0 102 102" fill="none" xmlns="http://www.w3.org/2000/svg">
<rect width="102" height="102" fill="#1D1D1D"/>
<path d="M49.2655 49.6064L48.5093 53.3842C48.1763 54.9157 47.2535 55.9382 45.3688 55.9382C43.2058 55.9382 42.6348 54.5966 43.1096 52.7087C43.7809 50.0306 45.9657 49.233 49.2655 49.6064ZM52.6724 44.2057L50.3724 44.352L49.6452 48.0512C48.7659 48.0201 48.4892 47.9922 47.4553 47.9922C44.219 47.9922 41.3945 49.3525 40.6482 52.5437C39.9758 55.421 41.6102 57.6538 45.1743 57.6538C48.8254 57.6538 50.4137 55.7489 50.9848 53.0708L52.6724 44.2057ZM27.7229 49.7678C24.3506 49.4606 21.4496 49.7404 21.4025 50.8855C21.3296 52.6048 26.9605 51.1048 26.8519 54.2676C26.6936 58.9143 18.8635 57.8452 16.926 57.254L17.2777 55.8746C20.6184 56.4048 24.1427 56.4487 24.2198 54.6064C24.3025 52.6482 18.6483 54.4083 18.7807 51.2372C18.8795 48.8751 22.4136 47.6012 28.1982 48.451L27.7229 49.7678ZM36.8156 52.9285C36.3289 54.8681 34.7907 56.0862 32.9592 56.0862C31.0439 56.0862 30.1823 54.9762 30.6959 52.9285C31.1831 50.989 32.7389 49.6871 34.5698 49.6871C36.3997 49.6871 37.3023 50.989 36.8156 52.9285ZM34.8651 48.0993C31.5115 48.0993 28.8158 50.0388 28.1527 52.9285C27.4881 55.8198 29.2942 57.7594 32.6463 57.7594C35.9984 57.7594 38.6951 55.8198 39.3582 52.9285C40.0228 50.0394 38.2177 48.0993 34.8651 48.0993ZM73.6125 57.7102H70.6975C68.9296 56.0484 65.5481 52.2293 63.0582 48.1877H65.1974C67.5616 51.4503 73.6125 57.7102 73.6125 57.7102ZM76.6672 38.7961L78.0089 36L78.3916 38.8426L81.1261 37.8858L79.215 40.3364L81.288 41.9423L78.5214 42.1559L78.3688 45.1123L76.8306 42.9276L74.5704 45.012L75.4176 42.0747L72.7513 41.7132L75.3462 40.235L74.2818 37.7047L76.6672 38.7961ZM82.3519 52.958C81.8575 54.9281 80.2955 56.1653 78.4356 56.1653C76.4908 56.1653 75.6141 55.0378 76.1365 52.958C76.631 50.9879 78.2111 49.6654 80.0705 49.6654C81.9314 49.6654 82.8474 50.9879 82.3519 52.958ZM80.371 48.0507C76.9651 48.0507 74.2275 50.0223 73.5525 52.958C72.8781 55.8943 74.7121 57.8649 78.1175 57.8649C81.5234 57.8649 84.262 55.8943 84.9354 52.958C85.6104 50.0223 83.7769 48.0507 80.3705 48.0507" fill="white"/>
<path d="M60.8508 56.8976C66.3566 53.8393 71.1393 49.1399 74.5312 45.0771C72.0925 52.7102 66.2221 56.818 60.8508 56.8976Z" fill="white"/>
<path d="M58.6649 49.5138C59.7195 49.5138 60.2936 49.8965 60.2936 50.6279C60.2936 52.569 56.5096 52.4407 54.8406 52.1009C55.4276 50.6475 56.7532 49.5138 58.6649 49.5138ZM62.5616 50.5224C62.5616 49.1145 61.4398 48.0801 58.8945 48.0801C54.7661 48.0801 52.0838 50.7598 52.0838 54.0772C52.0838 56.2195 53.8625 58.0003 57.1112 58.0003C59.3497 58.0003 60.8444 56.8971 60.8444 56.8971C57.9956 57.2022 54.4971 56.8971 54.4971 53.8496C54.4971 53.7286 54.5039 53.6076 54.5137 53.4871C58.4006 54.2939 62.5616 53.3174 62.5616 50.5219" fill="white"/>
</svg>
