<svg width="102" height="102" viewBox="0 0 102 102" fill="none" xmlns="http://www.w3.org/2000/svg">
<rect width="102" height="102" fill="#1D1D1D"/>
<path d="M51 74.3049C57.4355 74.3049 63.2619 71.6964 67.4791 67.4791C71.6958 63.2619 74.3044 57.4358 74.3044 51C74.3044 44.5648 71.6958 38.7384 67.4791 34.5211C63.2616 30.3039 57.4355 27.6954 51 27.6954C44.5648 27.6954 38.7384 30.3039 34.5211 34.5211C30.3039 38.7384 27.6954 44.5645 27.6954 51C27.6954 57.4355 30.3039 63.2619 34.5211 67.4791C38.7384 71.6964 44.5645 74.3049 51 74.3049ZM67.9705 67.9705C63.6274 72.3136 57.6272 75 51 75C44.3728 75 38.3729 72.3136 34.0295 67.9705C29.6861 63.6274 27 57.6272 27 51C27 44.3728 29.6864 38.3729 34.0295 34.0298C38.3729 29.6864 44.3728 27 51 27C57.6272 27 63.6271 29.6861 67.9705 34.0295C72.3136 38.3726 75 44.3725 75 50.9997C75 57.6272 72.3136 63.6271 67.9705 67.9705Z" fill="white"/>
<path fill-rule="evenodd" clip-rule="evenodd" d="M40.8835 53.0394C38.8627 53.0394 37.2852 54.4918 36.9697 56.4864L36.9269 56.8439H39.5294L39.5876 56.4739C39.6523 56.0642 39.846 55.2588 40.4271 55.2588C40.8895 55.2588 40.9687 55.7607 40.9078 56.1437C40.7155 57.3599 39.6338 58.5523 38.7578 59.518C38.711 59.5695 38.6648 59.6205 38.6194 59.6707L35.4367 63.171H42.3057L42.6692 60.8724H41.5598C41.2781 60.8724 40.9926 60.8984 40.7071 60.9244C40.5371 60.9398 40.3672 60.9553 40.198 60.9653L40.1753 60.9385C41.6581 59.7494 43.2143 58.1778 43.5115 56.3018C43.8018 54.4659 42.7727 53.0394 40.8835 53.0394ZM46.8867 63.3425C49.6605 63.3425 50.8794 60.3969 51.2282 58.1907C51.5775 55.985 51.291 53.0394 48.5166 53.0394C45.7429 53.0394 44.5236 55.985 44.1746 58.1907C43.8256 60.3969 44.1126 63.3425 46.8867 63.3425ZM47.2502 61.0439C46.4311 61.0439 46.6518 59.3135 46.8299 58.1907C47.0074 57.0679 47.3338 55.338 48.1528 55.338C48.9719 55.338 48.751 57.0679 48.5732 58.1907C48.3957 59.3135 48.0693 61.0439 47.2502 61.0439ZM54.8631 63.3425C57.6369 63.3425 58.8564 60.3969 59.2051 58.1907C59.5539 55.985 59.2669 53.0394 56.4931 53.0394C53.7193 53.0394 52.5003 55.985 52.151 58.1907C51.8023 60.3969 52.0893 63.3425 54.8631 63.3425ZM55.2266 61.0439C54.4073 61.0439 54.6288 59.3135 54.8063 58.1907C54.9841 57.0679 55.3105 55.338 56.1293 55.338C56.9486 55.338 56.7271 57.0679 56.5501 58.1907C56.3718 59.3135 56.0454 61.0439 55.2266 61.0439ZM62.8395 63.3425C65.6133 63.3425 66.8322 60.3969 67.181 58.1907C67.5303 55.985 67.2438 53.0394 64.4695 53.0394C61.6957 53.0394 60.4762 55.985 60.1274 58.1907C59.7787 60.3969 60.0657 63.3425 62.8395 63.3425ZM63.203 61.0439C62.3837 61.0439 62.6052 59.3135 62.7827 58.1907C62.9605 57.0679 63.2869 55.338 64.1057 55.338C64.925 55.338 64.7041 57.0679 64.526 58.1907C64.3488 59.3135 64.0218 61.0439 63.203 61.0439ZM50.9978 73.3408C63.1032 73.3408 72.9311 63.5965 73.0715 51.5244H28.9244C29.0642 63.5965 38.8924 73.3408 50.9978 73.3408Z" fill="white"/>
<path fill-rule="evenodd" clip-rule="evenodd" d="M50.9945 28.9219C63.0125 28.9219 72.7877 38.5255 73.0652 50.4772H28.9244C29.2016 38.5258 38.9765 28.9219 50.9945 28.9219ZM33.2552 46.552C32.5683 46.552 32.0087 45.9971 31.7266 45.4424L31.233 48.5595C31.8252 48.8238 32.5025 48.9689 33.1894 48.9689C35.0649 48.9689 36.5938 47.4896 36.8863 45.6404C37.0051 44.8874 36.9172 44.3592 36.6714 43.9099C36.4384 43.4612 36.0481 43.0911 35.5426 42.6948C35.506 42.6605 35.4653 42.625 35.4229 42.5882C35.3185 42.4975 35.2042 42.3982 35.1187 42.2854C34.9983 42.127 34.9087 41.9418 34.9423 41.7307C35.0032 41.3478 35.4213 41.123 35.7384 41.123C36.3595 41.123 36.9169 41.6911 37.1542 42.1928L37.6336 39.168C37.1138 38.8643 36.445 38.666 35.7977 38.666C33.4994 38.666 32.4249 40.7791 32.2414 41.9418C32.1261 42.6683 32.2499 43.2233 32.5069 43.6857C32.7748 44.1614 33.1766 44.5443 33.64 44.9537C33.793 45.0726 33.9325 45.1914 34.0287 45.3367C34.1377 45.482 34.1901 45.6537 34.1524 45.8914C34.0833 46.3273 33.625 46.552 33.2552 46.552ZM39.2575 38.8375L37.6814 48.7979H40.3765L40.8924 45.5352C43.2202 45.6008 44.9307 44.8082 45.3407 42.2193C45.7545 39.6039 44.0661 38.8375 41.7145 38.8375H39.2575ZM41.6115 40.9908L41.8117 40.9777C42.4721 40.9777 42.7256 41.5455 42.6251 42.18C42.5085 42.9193 41.9813 43.3292 41.2477 43.2894L41.6115 40.9908ZM53.4895 43.8176C53.874 41.3871 53.2344 38.666 50.5004 38.666C47.7657 38.666 46.2657 41.3871 45.8809 43.8176C45.4961 46.2481 46.1355 48.9689 48.8699 48.9689C51.6049 48.9689 53.1049 46.2481 53.4895 43.8176ZM50.7422 43.8176C50.6438 44.4386 50.2847 46.4594 49.2673 46.4594C48.25 46.4594 48.5302 44.4386 48.6285 43.8176C48.7268 43.1965 49.0862 41.1757 50.1033 41.1757C51.1204 41.1757 50.8405 43.1968 50.7422 43.8176ZM57.3333 44.6498L58.1696 48.7979V48.7982H61.0892L59.7376 44.65C60.8743 44.2273 61.5047 43.2498 61.6781 42.1535C62.0943 39.5244 60.5121 38.8375 58.174 38.8375H55.572L53.9958 48.7979H56.6907L57.1105 46.1424C57.1625 45.8133 57.2028 45.4841 57.2431 45.155C57.2626 44.9954 57.2821 44.8358 57.303 44.6763L57.3333 44.6498ZM59.0056 42.18C58.9032 42.827 58.422 43.448 57.7089 43.448L57.5393 43.4347L57.9276 40.9777C58.6738 40.9378 59.1433 41.3079 59.0056 42.18ZM64.1536 41.2683L62.9626 48.7979H65.6574L66.8488 41.2683H68.3941L68.7792 38.8375H63.0598L62.675 41.2683H64.1536Z" fill="white"/>
</svg>
