<svg width="102" height="102" viewBox="0 0 102 102" fill="none" xmlns="http://www.w3.org/2000/svg">
<rect width="102" height="102" fill="white" fill-opacity="0.1"/>
<rect x="23" y="23" width="56" height="56" rx="12" fill="white"/>
<g clip-path="url(#clip0_2024_358)">
<path d="M35.638 46.4395C35.638 46.4395 34.8666 45.8834 35.7923 45.141L37.949 43.2125C37.949 43.2125 38.5661 42.5632 39.2186 43.1289L59.1206 58.1968V65.4222C59.1206 65.4222 59.1109 66.5568 57.6549 66.4314L35.638 46.4395Z" fill="#2489CA"/>
<path d="M40.7678 51.0967L35.638 55.7604C35.638 55.7604 35.1109 56.1525 35.638 56.8532L38.0197 59.0195C38.0197 59.0195 38.5854 59.627 39.4211 58.936L44.8594 54.8122L40.7678 51.0967Z" fill="#1070B3"/>
<path d="M49.7738 51.1354L59.1816 43.9518L59.1205 36.7649C59.1205 36.7649 58.7188 35.1964 57.3785 36.0128L44.8594 47.407L49.7738 51.1354Z" fill="#0877B9"/>
<path d="M57.6549 66.4404C58.2013 66.9997 58.8634 66.8165 58.8634 66.8165L66.1949 63.2038C67.1334 62.5641 67.0016 61.7703 67.0016 61.7703V40.1969C67.0016 39.2488 66.031 38.9209 66.031 38.9209L59.6766 35.8578C58.2881 34.9997 57.3785 36.0121 57.3785 36.0121C57.3785 36.0121 58.5484 35.17 59.1205 36.7642V65.2897C59.1205 65.4858 59.0788 65.6787 58.9952 65.8522C58.8281 66.1897 58.4649 66.5047 57.5938 66.3729L57.6549 66.4404Z" fill="#3C99D4"/>
</g>
<defs>
<clipPath id="clip0_2024_358">
<rect width="32.5866" height="32" fill="white" transform="translate(34.7067 35)"/>
</clipPath>
</defs>
</svg>
