<svg width="20" height="20" viewBox="0 0 20 20" fill="none" xmlns="http://www.w3.org/2000/svg">
<path d="M0.302684 14.3567C0.1687 14.2796 0.169088 14.0862 0.30338 14.0096L10.0103 8.4761C10.0723 8.44077 10.1485 8.44113 10.2101 8.47706L19.7049 14.0106C19.837 14.0876 19.8374 14.2783 19.7056 14.3558L10.2108 19.941C10.1488 19.9775 10.072 19.9778 10.0096 19.942L0.302684 14.3567Z" fill="url(#paint0_linear_2053_5305)"/>
<path d="M0.302684 11.5504C0.1687 11.4733 0.169088 11.2798 0.30338 11.2033L10.0103 5.66977C10.0723 5.63443 10.1485 5.63479 10.2101 5.67072L19.7049 11.2042C19.837 11.2812 19.8374 11.4719 19.7056 11.5494L10.2108 17.1347C10.1488 17.1711 10.072 17.1715 10.0096 17.1356L0.302684 11.5504Z" fill="url(#paint1_linear_2053_5305)"/>
<path d="M0.302684 8.74406C0.1687 8.66697 0.169088 8.47351 0.30338 8.39696L10.0103 2.86343C10.0723 2.82809 10.1485 2.82846 10.2101 2.86438L19.7049 8.39791C19.837 8.47488 19.8374 8.66558 19.7056 8.74309L10.2108 14.3283C10.1488 14.3648 10.072 14.3652 10.0096 14.3293L0.302684 8.74406Z" fill="url(#paint2_linear_2053_5305)"/>
<path d="M0.302684 5.93772C0.1687 5.86063 0.169088 5.66717 0.30338 5.59062L10.0103 0.0570925C10.0723 0.0217559 10.1485 0.0221196 10.2101 0.0580472L19.7049 5.59157C19.837 5.66855 19.8374 5.85924 19.7056 5.93675L10.2108 11.522C10.1488 11.5585 10.072 11.5588 10.0096 11.523L0.302684 5.93772Z" fill="url(#paint3_linear_2053_5305)"/>
<defs>
<linearGradient id="paint0_linear_2053_5305" x1="10" y1="7.41901" x2="10" y2="20.419" gradientUnits="userSpaceOnUse">
<stop stop-color="#0575E6"/>
<stop offset="1" stop-color="#F3F3F3"/>
</linearGradient>
<linearGradient id="paint1_linear_2053_5305" x1="10" y1="4.61267" x2="10" y2="17.6127" gradientUnits="userSpaceOnUse">
<stop stop-color="#0575E6"/>
<stop offset="1" stop-color="#F3F3F3"/>
</linearGradient>
<linearGradient id="paint2_linear_2053_5305" x1="10" y1="1.80634" x2="10" y2="14.8063" gradientUnits="userSpaceOnUse">
<stop stop-color="#0575E6"/>
<stop offset="1" stop-color="#F3F3F3"/>
</linearGradient>
<linearGradient id="paint3_linear_2053_5305" x1="10" y1="-1" x2="10" y2="12" gradientUnits="userSpaceOnUse">
<stop stop-color="#0575E6"/>
<stop offset="1" stop-color="#F3F3F3"/>
</linearGradient>
</defs>
</svg>
