<svg width="32" height="32" viewBox="0 0 32 32" fill="none" xmlns="http://www.w3.org/2000/svg">
<rect width="32" height="32" rx="8" fill="url(#paint0_linear_3452_7377)"/>
<mask id="mask0_3452_7377" style="mask-type:alpha" maskUnits="userSpaceOnUse" x="6" y="6" width="20" height="20">
<rect x="6" y="6" width="20" height="20" fill="#D9D9D9"/>
</mask>
<g mask="url(#mask0_3452_7377)">
<path d="M11.4166 22.6667C10.1527 22.6667 9.07297 22.2292 8.17742 21.3542C7.28131 20.4792 6.83325 19.4098 6.83325 18.1459C6.83325 17.0625 7.15964 16.0973 7.81242 15.25C8.4652 14.4028 9.31936 13.8612 10.3749 13.625C10.7221 12.3473 11.4166 11.3125 12.4583 10.5209C13.4999 9.72921 14.6805 9.33337 15.9999 9.33337C17.6249 9.33337 19.0033 9.89921 20.1349 11.0309C21.2671 12.1631 21.8333 13.5417 21.8333 15.1667C22.7916 15.2778 23.5869 15.6909 24.2191 16.4059C24.8508 17.1214 25.1666 17.9584 25.1666 18.9167C25.1666 19.9584 24.8021 20.8439 24.0733 21.5734C23.3438 22.3023 22.4583 22.6667 21.4166 22.6667H16.8333C16.3749 22.6667 15.9827 22.5037 15.6566 22.1775C15.3299 21.8509 15.1666 21.4584 15.1666 21V16.7084L13.8333 18L12.6666 16.8334L15.9999 13.5L19.3333 16.8334L18.1666 18L16.8333 16.7084V21H21.4166C21.9999 21 22.493 20.7987 22.8958 20.3959C23.2985 19.9931 23.4999 19.5 23.4999 18.9167C23.4999 18.3334 23.2985 17.8403 22.8958 17.4375C22.493 17.0348 21.9999 16.8334 21.4166 16.8334H20.1666V15.1667C20.1666 14.0139 19.7605 13.0312 18.9483 12.2184C18.1355 11.4062 17.1527 11 15.9999 11C14.8471 11 13.8646 11.4062 13.0524 12.2184C12.2396 13.0312 11.8333 14.0139 11.8333 15.1667H11.4166C10.611 15.1667 9.92353 15.4514 9.35409 16.0209C8.78464 16.5903 8.49992 17.2778 8.49992 18.0834C8.49992 18.8889 8.78464 19.5764 9.35409 20.1459C9.92353 20.7153 10.611 21 11.4166 21H13.4999V22.6667H11.4166Z" fill="white"/>
</g>
<defs>
<linearGradient id="paint0_linear_3452_7377" x1="32" y1="32" x2="-1.82494e-06" y2="-4" gradientUnits="userSpaceOnUse">
<stop stop-color="#0462C0"/>
<stop offset="1" stop-color="#0B82FA"/>
</linearGradient>
</defs>
</svg>
