<svg width="33" height="32" viewBox="0 0 33 32" fill="none" xmlns="http://www.w3.org/2000/svg">
<rect x="0.333496" width="32" height="32" rx="8" fill="url(#paint0_linear_3452_7477)"/>
<mask id="mask0_3452_7477" style="mask-type:alpha" maskUnits="userSpaceOnUse" x="6" y="6" width="21" height="20">
<rect x="6.3335" y="6" width="20" height="20" fill="#D9D9D9"/>
</mask>
<g mask="url(#mask0_3452_7477)">
<path d="M14.3335 19L15.5002 17.8125L13.6877 16L15.5002 14.1875L14.3335 13L11.3335 16L14.3335 19ZM18.3335 19L21.3335 16L18.3335 13L17.1668 14.1875L18.9793 16L17.1668 17.8125L18.3335 19ZM10.5002 23.5C10.0418 23.5 9.64933 23.3369 9.32266 23.0108C8.99655 22.6842 8.8335 22.2917 8.8335 21.8333V10.1667C8.8335 9.70833 8.99655 9.31583 9.32266 8.98917C9.64933 8.66306 10.0418 8.5 10.5002 8.5H22.1668C22.6252 8.5 23.0177 8.66306 23.3443 8.98917C23.6704 9.31583 23.8335 9.70833 23.8335 10.1667V21.8333C23.8335 22.2917 23.6704 22.6842 23.3443 23.0108C23.0177 23.3369 22.6252 23.5 22.1668 23.5H10.5002ZM10.5002 21.8333H22.1668V10.1667H10.5002V21.8333Z" fill="white"/>
</g>
<defs>
<linearGradient id="paint0_linear_3452_7477" x1="32.3335" y1="32" x2="0.333494" y2="-4" gradientUnits="userSpaceOnUse">
<stop stop-color="#0462C0"/>
<stop offset="1" stop-color="#0B82FA"/>
</linearGradient>
</defs>
</svg>
