<svg width="32" height="32" fill="none" xmlns="http://www.w3.org/2000/svg"><rect width="32" height="32" rx="8" fill="url(#paint0_linear_3452_7523)"/><mask id="mask0_3452_7523" style="mask-type:alpha" maskUnits="userSpaceOnUse" x="6" y="6" width="20" height="20"><rect x="6" y="6" width="20" height="20" fill="#D9D9D9"/></mask><g mask="url(#mask0_3452_7523)"><path d="M16 17.6667C15.5417 17.6667 15.1494 17.5033 14.8233 17.1767C14.4967 16.8506 14.3333 16.4583 14.3333 16C14.3333 15.5417 14.4967 15.1492 14.8233 14.8225C15.1494 14.4964 15.5417 14.3333 16 14.3333C16.4583 14.3333 16.8508 14.4964 17.1775 14.8225C17.5036 15.1492 17.6667 15.5417 17.6667 16C17.6667 16.4583 17.5036 16.8506 17.1775 17.1767C16.8508 17.5033 16.4583 17.6667 16 17.6667ZM16 23.5C14.0694 23.5 12.3958 22.8644 10.9792 21.5933C9.5625 20.3228 8.75 18.7361 8.54167 16.8333H10.25C10.4444 18.2778 11.0867 19.4722 12.1767 20.4167C13.2672 21.3611 14.5417 21.8333 16 21.8333C17.625 21.8333 19.0033 21.2672 20.135 20.135C21.2672 19.0033 21.8333 17.625 21.8333 16C21.8333 14.375 21.2672 12.9964 20.135 11.8642C19.0033 10.7325 17.625 10.1667 16 10.1667C15.0417 10.1667 14.1458 10.3889 13.3125 10.8333C12.4792 11.2778 11.7778 11.8889 11.2083 12.6667H13.5V14.3333H8.5V9.33333H10.1667V11.2917C10.875 10.4028 11.7397 9.71528 12.7608 9.22917C13.7814 8.74306 14.8611 8.5 16 8.5C17.0417 8.5 18.0175 8.69778 18.9275 9.09333C19.8369 9.48944 20.6286 10.0242 21.3025 10.6975C21.9758 11.3714 22.5106 12.1631 22.9067 13.0725C23.3022 13.9825 23.5 14.9583 23.5 16C23.5 17.0417 23.3022 18.0172 22.9067 18.9267C22.5106 19.8367 21.9758 20.6283 21.3025 21.3017C20.6286 21.9756 19.8369 22.5106 18.9275 22.9067C18.0175 23.3022 17.0417 23.5 16 23.5Z" fill="white"/></g><defs><linearGradient id="paint0_linear_3452_7523" x1="32" y1="32" x2="-1.82494e-06" y2="-4" gradientUnits="userSpaceOnUse"><stop stop-color="#0462C0"/><stop offset="1" stop-color="#0B82FA"/></linearGradient></defs></svg>