<svg width="33" height="32" viewBox="0 0 33 32" fill="none" xmlns="http://www.w3.org/2000/svg">
<rect x="0.333496" width="32" height="32" rx="8" fill="url(#paint0_linear_3452_7393)"/>
<mask id="mask0_3452_7393" style="mask-type:alpha" maskUnits="userSpaceOnUse" x="6" y="6" width="21" height="20">
<rect x="6.3335" y="6" width="20" height="20" fill="white"/>
</mask>
<g mask="url(#mask0_3452_7393)">
<path d="M15.4587 18.9583L20.167 14.25L18.9795 13.0625L15.4587 16.5833L13.7087 14.8333L12.5212 16.0208L15.4587 18.9583ZM16.3337 24.3333C14.4031 23.8472 12.8095 22.7394 11.5528 21.01C10.2956 19.2811 9.66699 17.3611 9.66699 15.25V10.1666L16.3337 7.66663L23.0003 10.1666V15.25C23.0003 17.3611 22.372 19.2811 21.1153 21.01C19.8581 22.7394 18.2642 23.8472 16.3337 24.3333ZM16.3337 22.5833C17.7781 22.125 18.9725 21.2083 19.917 19.8333C20.8614 18.4583 21.3337 16.9305 21.3337 15.25V11.3125L16.3337 9.43746L11.3337 11.3125V15.25C11.3337 16.9305 11.8059 18.4583 12.7503 19.8333C13.6948 21.2083 14.8892 22.125 16.3337 22.5833Z" fill="white"/>
</g>
<defs>
<linearGradient id="paint0_linear_3452_7393" x1="32.3335" y1="32" x2="0.333494" y2="-4" gradientUnits="userSpaceOnUse">
<stop stop-color="#0462C0"/>
<stop offset="1" stop-color="#0B82FA"/>
</linearGradient>
</defs>
</svg>
