<svg width="33" height="32" viewBox="0 0 33 32" fill="none" xmlns="http://www.w3.org/2000/svg">
<rect x="0.666504" width="32" height="32" rx="8" fill="url(#paint0_linear_3452_7451)"/>
<mask id="mask0_3452_7451" style="mask-type:alpha" maskUnits="userSpaceOnUse" x="6" y="6" width="21" height="20">
<rect x="6.6665" y="6" width="20" height="20" fill="#D9D9D9"/>
</mask>
<g mask="url(#mask0_3452_7451)">
<path d="M15.4998 19.375L21.3748 13.5L20.2082 12.3334L15.4998 17.0417L13.1248 14.6667L11.9582 15.8334L15.4998 19.375ZM10.8332 23.5C10.3748 23.5 9.98234 23.337 9.65567 23.0109C9.32956 22.6842 9.1665 22.2917 9.1665 21.8334V10.1667C9.1665 9.70837 9.32956 9.31587 9.65567 8.98921C9.98234 8.6631 10.3748 8.50004 10.8332 8.50004H14.3332C14.5137 8.00004 14.8159 7.59726 15.2398 7.29171C15.6632 6.98615 16.1387 6.83337 16.6665 6.83337C17.1943 6.83337 17.6701 6.98615 18.094 7.29171C18.5173 7.59726 18.8193 8.00004 18.9998 8.50004H22.4998C22.9582 8.50004 23.3507 8.6631 23.6773 8.98921C24.0034 9.31587 24.1665 9.70837 24.1665 10.1667V21.8334C24.1665 22.2917 24.0034 22.6842 23.6773 23.0109C23.3507 23.337 22.9582 23.5 22.4998 23.5H10.8332ZM10.8332 21.8334H22.4998V10.1667H10.8332V21.8334ZM16.6665 9.54171C16.8471 9.54171 16.9965 9.48254 17.1148 9.36421C17.2326 9.24643 17.2915 9.09726 17.2915 8.91671C17.2915 8.73615 17.2326 8.58671 17.1148 8.46837C16.9965 8.3506 16.8471 8.29171 16.6665 8.29171C16.4859 8.29171 16.3368 8.3506 16.219 8.46837C16.1007 8.58671 16.0415 8.73615 16.0415 8.91671C16.0415 9.09726 16.1007 9.24643 16.219 9.36421C16.3368 9.48254 16.4859 9.54171 16.6665 9.54171Z" fill="white"/>
</g>
<defs>
<linearGradient id="paint0_linear_3452_7451" x1="32.6665" y1="32" x2="0.666502" y2="-4" gradientUnits="userSpaceOnUse">
<stop stop-color="#0462C0"/>
<stop offset="1" stop-color="#0B82FA"/>
</linearGradient>
</defs>
</svg>
