<svg width="33" height="32" viewBox="0 0 33 32" fill="none" xmlns="http://www.w3.org/2000/svg">
<rect x="0.666504" width="32" height="32" rx="8" fill="url(#paint0_linear_3452_7493)"/>
<mask id="mask0_3452_7493" style="mask-type:alpha" maskUnits="userSpaceOnUse" x="6" y="6" width="21" height="20">
<rect x="6.6665" y="6" width="20" height="20" fill="#D9D9D9"/>
</mask>
<g mask="url(#mask0_3452_7493)">
<path d="M10.8332 23.5C10.3748 23.5 9.98234 23.3369 9.65567 23.0108C9.32956 22.6842 9.1665 22.2917 9.1665 21.8333V11.4167C9.1665 11.2083 9.20123 11.0208 9.27067 10.8542C9.34012 10.6875 9.43039 10.5278 9.5415 10.375L10.7082 8.95833C10.8193 8.80556 10.9582 8.69083 11.1248 8.61417C11.2915 8.53806 11.4721 8.5 11.6665 8.5H21.6665C21.8609 8.5 22.0415 8.53806 22.2082 8.61417C22.3748 8.69083 22.5137 8.80556 22.6248 8.95833L23.7915 10.375C23.9026 10.5278 23.9929 10.6875 24.0623 10.8542C24.1318 11.0208 24.1665 11.2083 24.1665 11.4167V21.8333C24.1665 22.2917 24.0034 22.6842 23.6773 23.0108C23.3507 23.3369 22.9582 23.5 22.4998 23.5H10.8332ZM11.1665 11H22.1665L21.4582 10.1667H11.8748L11.1665 11ZM10.8332 12.6667V21.8333H22.4998V12.6667H10.8332ZM16.6665 21L19.9998 17.6667L18.8332 16.5L17.4998 17.8333V14.3333H15.8332V17.8333L14.4998 16.5L13.3332 17.6667L16.6665 21Z" fill="white"/>
</g>
<defs>
<linearGradient id="paint0_linear_3452_7493" x1="32.6665" y1="32" x2="0.666502" y2="-4" gradientUnits="userSpaceOnUse">
<stop stop-color="#0462C0"/>
<stop offset="1" stop-color="#0B82FA"/>
</linearGradient>
</defs>
</svg>
