<svg width="32" height="32" fill="none" xmlns="http://www.w3.org/2000/svg"><rect width="32" height="32" rx="8" fill="url(#paint0_linear_3452_7533)"/><mask id="mask0_3452_7533" style="mask-type:alpha" maskUnits="userSpaceOnUse" x="6" y="6" width="20" height="20"><rect x="6" y="6" width="20" height="20" fill="#D9D9D9"/></mask><g mask="url(#mask0_3452_7533)"><path d="M16.0002 19.3333C17.0418 19.3333 17.9274 18.9688 18.6568 18.2399C19.3857 17.5105 19.7502 16.6249 19.7502 15.5833C19.7502 14.5416 19.3857 13.656 18.6568 12.9266C17.9274 12.1977 17.0418 11.8333 16.0002 11.8333C14.9585 11.8333 14.0729 12.1977 13.3435 12.9266C12.6146 13.656 12.2502 14.5416 12.2502 15.5833C12.2502 16.6249 12.6146 17.5105 13.3435 18.2399C14.0729 18.9688 14.9585 19.3333 16.0002 19.3333ZM16.0002 17.8333C15.3752 17.8333 14.8441 17.6144 14.4068 17.1766C13.9691 16.7394 13.7502 16.2083 13.7502 15.5833C13.7502 14.9583 13.9691 14.4269 14.4068 13.9891C14.8441 13.5519 15.3752 13.3333 16.0002 13.3333C16.6252 13.3333 17.1566 13.5519 17.5943 13.9891C18.0316 14.4269 18.2502 14.9583 18.2502 15.5833C18.2502 16.2083 18.0316 16.7394 17.5943 17.1766C17.1566 17.6144 16.6252 17.8333 16.0002 17.8333ZM16.0002 21.8333C13.9724 21.8333 12.1252 21.2671 10.4585 20.1349C8.79183 19.0033 7.5835 17.486 6.8335 15.5833C7.5835 13.6805 8.79183 12.163 10.4585 11.0308C12.1252 9.89909 13.9724 9.33325 16.0002 9.33325C18.0279 9.33325 19.8752 9.89909 21.5418 11.0308C23.2085 12.163 24.4168 13.6805 25.1668 15.5833C24.4168 17.486 23.2085 19.0033 21.5418 20.1349C19.8752 21.2671 18.0279 21.8333 16.0002 21.8333ZM16.0002 20.1666C17.5696 20.1666 19.0107 19.7533 20.3235 18.9266C21.6357 18.1005 22.6391 16.986 23.3335 15.5833C22.6391 14.1805 21.6357 13.0658 20.3235 12.2391C19.0107 11.413 17.5696 10.9999 16.0002 10.9999C14.4307 10.9999 12.9896 11.413 11.6768 12.2391C10.3646 13.0658 9.36127 14.1805 8.66683 15.5833C9.36127 16.986 10.3646 18.1005 11.6768 18.9266C12.9896 19.7533 14.4307 20.1666 16.0002 20.1666Z" fill="white"/></g><defs><linearGradient id="paint0_linear_3452_7533" x1="32" y1="32" x2="-1.82494e-06" y2="-4" gradientUnits="userSpaceOnUse"><stop stop-color="#0462C0"/><stop offset="1" stop-color="#0B82FA"/></linearGradient></defs></svg>