<svg width="32" height="32" fill="none" xmlns="http://www.w3.org/2000/svg"><rect width="32" height="32" rx="8" fill="url(#paint0_linear_3452_7513)"/><mask id="mask0_3452_7513" style="mask-type:alpha" maskUnits="userSpaceOnUse" x="6" y="6" width="20" height="20"><rect x="6" y="6" width="20" height="20" fill="#D9D9D9"/></mask><g mask="url(#mask0_3452_7513)"><path d="M22.3333 23.5L17.0833 18.25C16.6667 18.5833 16.1875 18.8472 15.6458 19.0417C15.1042 19.2361 14.5278 19.3333 13.9167 19.3333C12.4028 19.3333 11.1217 18.8092 10.0733 17.7608C9.02444 16.7119 8.5 15.4306 8.5 13.9167C8.5 12.4028 9.02444 11.1214 10.0733 10.0725C11.1217 9.02417 12.4028 8.5 13.9167 8.5C15.4306 8.5 16.7119 9.02417 17.7608 10.0725C18.8092 11.1214 19.3333 12.4028 19.3333 13.9167C19.3333 14.5278 19.2361 15.1042 19.0417 15.6458C18.8472 16.1875 18.5833 16.6667 18.25 17.0833L23.5 22.3333L22.3333 23.5ZM13.9167 17.6667C14.9583 17.6667 15.8439 17.3022 16.5733 16.5733C17.3022 15.8439 17.6667 14.9583 17.6667 13.9167C17.6667 12.875 17.3022 11.9894 16.5733 11.26C15.8439 10.5311 14.9583 10.1667 13.9167 10.1667C12.875 10.1667 11.9894 10.5311 11.26 11.26C10.5311 11.9894 10.1667 12.875 10.1667 13.9167C10.1667 14.9583 10.5311 15.8439 11.26 16.5733C11.9894 17.3022 12.875 17.6667 13.9167 17.6667Z" fill="white"/></g><defs><linearGradient id="paint0_linear_3452_7513" x1="32" y1="32" x2="-1.82494e-06" y2="-4" gradientUnits="userSpaceOnUse"><stop stop-color="#0462C0"/><stop offset="1" stop-color="#0B82FA"/></linearGradient></defs></svg>