<svg width="33" height="32" viewBox="0 0 33 32" fill="none" xmlns="http://www.w3.org/2000/svg">
<rect x="0.666992" width="32" height="32" rx="8" fill="url(#paint0_linear_4278_2027)"/>
<mask id="mask0_4278_2027" style="mask-type:alpha" maskUnits="userSpaceOnUse" x="6" y="6" width="21" height="20">
<rect x="6.66699" y="6" width="20" height="20" fill="#D9D9D9"/>
</mask>
<g mask="url(#mask0_4278_2027)">
<path d="M8.85417 21.1457L7.5 20.1665L11.6667 13.4998L14.1667 16.4165L17.5 10.9998L19.7708 14.3957C19.4514 14.4096 19.1492 14.4476 18.8642 14.5098C18.5797 14.5726 18.2986 14.6596 18.0208 14.7707L17.5625 14.0832L14.3958 19.229L11.875 16.2915L8.85417 21.1457ZM24.6458 25.1665L22.0417 22.5623C21.7639 22.7568 21.4547 22.9026 21.1142 22.9998C20.7742 23.0971 20.4236 23.1457 20.0625 23.1457C19.0208 23.1457 18.1356 22.7809 17.4067 22.0515C16.6772 21.3226 16.3125 20.4373 16.3125 19.3957C16.3125 18.354 16.6772 17.4684 17.4067 16.739C18.1356 16.0101 19.0208 15.6457 20.0625 15.6457C21.1042 15.6457 21.9897 16.0101 22.7192 16.739C23.4481 17.4684 23.8125 18.354 23.8125 19.3957C23.8125 19.7568 23.7639 20.1073 23.6667 20.4473C23.5694 20.7879 23.4236 21.104 23.2292 21.3957L25.8333 23.979L24.6458 25.1665ZM20.0625 21.479C20.6458 21.479 21.1389 21.2776 21.5417 20.8748C21.9444 20.4721 22.1458 19.979 22.1458 19.3957C22.1458 18.8123 21.9444 18.3193 21.5417 17.9165C21.1389 17.5137 20.6458 17.3123 20.0625 17.3123C19.4792 17.3123 18.9861 17.5137 18.5833 17.9165C18.1806 18.3193 17.9792 18.8123 17.9792 19.3957C17.9792 19.979 18.1806 20.4721 18.5833 20.8748C18.9861 21.2776 19.4792 21.479 20.0625 21.479ZM21.9167 14.8123C21.6528 14.7012 21.3783 14.6109 21.0933 14.5415C20.8089 14.4721 20.5139 14.4304 20.2083 14.4165L24.4792 7.6665L25.8333 8.64567L21.9167 14.8123Z" fill="white"/>
</g>
<defs>
<linearGradient id="paint0_linear_4278_2027" x1="32.667" y1="32" x2="0.66699" y2="-4" gradientUnits="userSpaceOnUse">
<stop stop-color="#0462C0"/>
<stop offset="1" stop-color="#0B82FA"/>
</linearGradient>
</defs>
</svg>
