<svg width="33" height="32" fill="none" xmlns="http://www.w3.org/2000/svg"><rect x="0.666992" width="32" height="32" rx="8" fill="url(#paint0_linear_4278_2065)"/><mask id="mask0_4278_2065" style="mask-type:alpha" maskUnits="userSpaceOnUse" x="6" y="6" width="21" height="20"><rect x="6.66699" y="6" width="20" height="20" fill="#D9D9D9"/></mask><g mask="url(#mask0_4278_2065)"><path d="M20 15.1668V13.5002H25V15.1668H20ZM14.1667 16.0002C13.25 16.0002 12.4653 15.6738 11.8125 15.021C11.1597 14.3682 10.8333 13.5835 10.8333 12.6668C10.8333 11.7502 11.1597 10.9654 11.8125 10.3127C12.4653 9.65989 13.25 9.3335 14.1667 9.3335C15.0833 9.3335 15.8681 9.65989 16.5208 10.3127C17.1736 10.9654 17.5 11.7502 17.5 12.6668C17.5 13.5835 17.1736 14.3682 16.5208 15.021C15.8681 15.6738 15.0833 16.0002 14.1667 16.0002ZM7.5 22.6668V20.3335C7.5 19.8613 7.62167 19.4271 7.865 19.031C8.10778 18.6354 8.43056 18.3335 8.83333 18.1252C9.69444 17.6946 10.5694 17.3716 11.4583 17.156C12.3472 16.941 13.25 16.8335 14.1667 16.8335C15.0833 16.8335 15.9861 16.941 16.875 17.156C17.7639 17.3716 18.6389 17.6946 19.5 18.1252C19.9028 18.3335 20.2256 18.6354 20.4683 19.031C20.7117 19.4271 20.8333 19.8613 20.8333 20.3335V22.6668H7.5Z" fill="white"/></g><defs><linearGradient id="paint0_linear_4278_2065" x1="32.667" y1="32" x2="0.66699" y2="-4" gradientUnits="userSpaceOnUse"><stop stop-color="#0462C0"/><stop offset="1" stop-color="#0B82FA"/></linearGradient></defs></svg>