<svg width="33" height="32" viewBox="0 0 33 32" fill="none" xmlns="http://www.w3.org/2000/svg">
<rect x="0.333008" width="32" height="32" rx="8" fill="url(#paint0_linear_4278_2019)"/>
<mask id="mask0_4278_2019" style="mask-type:alpha" maskUnits="userSpaceOnUse" x="6" y="6" width="21" height="20">
<rect x="6.33301" y="6" width="20" height="20" fill="#D9D9D9"/>
</mask>
<g mask="url(#mask0_4278_2019)">
<path d="M8 22.6668V20.1668H9.66667V11.0002C9.66667 10.5418 9.83 10.1496 10.1567 9.8235C10.4828 9.49683 10.875 9.3335 11.3333 9.3335H23.8333V11.0002H11.3333V20.1668H16.3333V22.6668H8ZM18.8333 22.6668C18.5972 22.6668 18.3994 22.5868 18.24 22.4268C18.08 22.2674 18 22.0696 18 21.8335V13.5002C18 13.2641 18.08 13.066 18.24 12.906C18.3994 12.7466 18.5972 12.6668 18.8333 12.6668H23.8333C24.0694 12.6668 24.2672 12.7466 24.4267 12.906C24.5867 13.066 24.6667 13.2641 24.6667 13.5002V21.8335C24.6667 22.0696 24.5867 22.2674 24.4267 22.4268C24.2672 22.5868 24.0694 22.6668 23.8333 22.6668H18.8333ZM19.6667 20.1668H23V14.3335H19.6667V20.1668Z" fill="white"/>
</g>
<defs>
<linearGradient id="paint0_linear_4278_2019" x1="32.333" y1="32" x2="0.333006" y2="-4" gradientUnits="userSpaceOnUse">
<stop stop-color="#0462C0"/>
<stop offset="1" stop-color="#0B82FA"/>
</linearGradient>
</defs>
</svg>
