<svg width="32" height="32" viewBox="0 0 32 32" fill="none" xmlns="http://www.w3.org/2000/svg">
<rect width="32" height="32" rx="8" fill="url(#paint0_linear_4278_2076)"/>
<mask id="mask0_4278_2076" style="mask-type:alpha" maskUnits="userSpaceOnUse" x="6" y="6" width="20" height="20">
<rect x="6" y="6" width="20" height="20" fill="#D9D9D9"/>
</mask>
<g mask="url(#mask0_4278_2076)">
<path d="M21 18.5002V16.8335H22.6667C22.9028 16.8335 23.1006 16.9132 23.26 17.0727C23.42 17.2327 23.5 17.4307 23.5 17.6668C23.5 17.9029 23.42 18.1007 23.26 18.2602C23.1006 18.4202 22.9028 18.5002 22.6667 18.5002H21ZM21 21.8335V20.1668H22.6667C22.9028 20.1668 23.1006 20.2468 23.26 20.4068C23.42 20.5663 23.5 20.7641 23.5 21.0002C23.5 21.2363 23.42 21.4341 23.26 21.5935C23.1006 21.7535 22.9028 21.8335 22.6667 21.8335H21ZM17.6667 22.6668C17.2083 22.6668 16.8161 22.5038 16.49 22.1777C16.1633 21.851 16 21.4585 16 21.0002H14.3333V17.6668H16C16 17.2085 16.1633 16.816 16.49 16.4893C16.8161 16.1632 17.2083 16.0002 17.6667 16.0002H20.1667V22.6668H17.6667ZM11.8333 20.1668C10.9167 20.1668 10.1319 19.8404 9.47917 19.1877C8.82639 18.5349 8.5 17.7502 8.5 16.8335C8.5 15.9168 8.82639 15.1321 9.47917 14.4793C10.1319 13.8266 10.9167 13.5002 11.8333 13.5002H13.0833C13.4306 13.5002 13.7256 13.3785 13.9683 13.1352C14.2117 12.8924 14.3333 12.5974 14.3333 12.2502C14.3333 11.9029 14.2117 11.6079 13.9683 11.3652C13.7256 11.1218 13.4306 11.0002 13.0833 11.0002H10.1667C9.93056 11.0002 9.7325 10.9204 9.5725 10.761C9.41306 10.601 9.33333 10.4029 9.33333 10.1668C9.33333 9.93072 9.41306 9.73266 9.5725 9.57266C9.7325 9.41322 9.93056 9.3335 10.1667 9.3335H13.0833C13.8889 9.3335 14.5764 9.61822 15.1458 10.1877C15.7153 10.7571 16 11.4446 16 12.2502C16 13.0557 15.7153 13.7432 15.1458 14.3127C14.5764 14.8821 13.8889 15.1668 13.0833 15.1668H11.8333C11.375 15.1668 10.9828 15.3299 10.6567 15.656C10.33 15.9827 10.1667 16.3752 10.1667 16.8335C10.1667 17.2918 10.33 17.6841 10.6567 18.0102C10.9828 18.3368 11.375 18.5002 11.8333 18.5002H13.5V20.1668H11.8333Z" fill="white"/>
</g>
<defs>
<linearGradient id="paint0_linear_4278_2076" x1="32" y1="32" x2="-1.82494e-06" y2="-4" gradientUnits="userSpaceOnUse">
<stop stop-color="#0462C0"/>
<stop offset="1" stop-color="#0B82FA"/>
</linearGradient>
</defs>
</svg>
