<svg width="33" height="32" viewBox="0 0 33 32" fill="none" xmlns="http://www.w3.org/2000/svg">
<rect x="0.666016" width="32" height="32" rx="8" fill="url(#paint0_linear_4650_2614)"/>
<mask id="mask0_4650_2614" style="mask-type:alpha" maskUnits="userSpaceOnUse" x="6" y="6" width="21" height="20">
<rect x="6.66602" y="6" width="20" height="20" fill="#D9D9D9"/>
</mask>
<g mask="url(#mask0_4650_2614)">
<path d="M16.666 16.8333C17.4716 16.8333 18.1591 16.5486 18.7285 15.9792C19.298 15.4097 19.5827 14.7222 19.5827 13.9167C19.5827 13.1111 19.298 12.4236 18.7285 11.8542C18.1591 11.2847 17.4716 11 16.666 11C15.8605 11 15.173 11.2847 14.6035 11.8542C14.0341 12.4236 13.7493 13.1111 13.7493 13.9167C13.7493 14.7222 14.0341 15.4097 14.6035 15.9792C15.173 16.5486 15.8605 16.8333 16.666 16.8333ZM10.8327 23.5C10.3743 23.5 9.98185 23.3369 9.65518 23.0108C9.32907 22.6842 9.16602 22.2917 9.16602 21.8333V10.1667C9.16602 9.70833 9.32907 9.31583 9.65518 8.98917C9.98185 8.66306 10.3743 8.5 10.8327 8.5H22.4993C22.9577 8.5 23.3502 8.66306 23.6768 8.98917C24.003 9.31583 24.166 9.70833 24.166 10.1667V21.8333C24.166 22.2917 24.003 22.6842 23.6768 23.0108C23.3502 23.3369 22.9577 23.5 22.4993 23.5H10.8327ZM10.8327 21.8333H22.4993V20.875C21.7493 20.1389 20.878 19.5589 19.8852 19.135C18.8918 18.7117 17.8188 18.5 16.666 18.5C15.5132 18.5 14.4405 18.7117 13.4477 19.135C12.4543 19.5589 11.5827 20.1389 10.8327 20.875V21.8333Z" fill="white"/>
</g>
<defs>
<linearGradient id="paint0_linear_4650_2614" x1="32.666" y1="32" x2="0.666014" y2="-4" gradientUnits="userSpaceOnUse">
<stop stop-color="#0462C0"/>
<stop offset="1" stop-color="#0B82FA"/>
</linearGradient>
</defs>
</svg>
