<svg width="20" height="20" viewBox="0 0 20 20" fill="none" xmlns="http://www.w3.org/2000/svg">
<ellipse cx="10" cy="9.94294" rx="10" ry="2.8125" fill="url(#paint0_linear_2814_2801)"/>
<path d="M9.7094e-05 9.95552C3.23871e-05 9.97036 0 9.98521 0 10.0001C0 15.5229 4.47715 20.0001 10 20.0001C15.5228 20.0001 20 15.5229 20 10.0001C20 9.98521 20 9.97036 19.9999 9.95552C19.9759 11.5031 15.508 12.7555 10 12.7555C4.49201 12.7555 0.0240909 11.5031 9.7094e-05 9.95552Z" fill="url(#paint1_linear_2814_2801)"/>
<ellipse cx="10" cy="6.69565" rx="9.13043" ry="2.86957" fill="#0F172A"/>
<ellipse cx="10" cy="6.43478" rx="9.13043" ry="2.6087" fill="url(#paint2_linear_2814_2801)"/>
<ellipse cx="10" cy="3.3913" rx="6.86957" ry="1.82609" fill="#0F172A"/>
<ellipse cx="10" cy="3.21739" rx="6.86957" ry="1.65217" fill="url(#paint3_linear_2814_2801)"/>
<ellipse cx="9.91304" cy="0.956522" rx="2.95652" ry="0.956522" fill="#0F172A"/>
<ellipse cx="9.91304" cy="0.869565" rx="2.95652" ry="0.869565" fill="url(#paint4_linear_2814_2801)"/>
<defs>
<linearGradient id="paint0_linear_2814_2801" x1="10" y1="7.13044" x2="10" y2="12.7554" gradientUnits="userSpaceOnUse">
<stop stop-color="#F3F3F3"/>
<stop offset="1" stop-color="#0F172A"/>
</linearGradient>
<linearGradient id="paint1_linear_2814_2801" x1="10" y1="9.91311" x2="10" y2="20.0001" gradientUnits="userSpaceOnUse">
<stop stop-color="#F3F3F3"/>
<stop offset="1" stop-color="#0F172A"/>
</linearGradient>
<linearGradient id="paint2_linear_2814_2801" x1="10" y1="3.82609" x2="10" y2="9.04348" gradientUnits="userSpaceOnUse">
<stop stop-color="#F3F3F3"/>
<stop offset="1" stop-color="#0F172A"/>
</linearGradient>
<linearGradient id="paint3_linear_2814_2801" x1="10" y1="1.56522" x2="10" y2="4.86957" gradientUnits="userSpaceOnUse">
<stop stop-color="#F3F3F3"/>
<stop offset="1" stop-color="#0F172A"/>
</linearGradient>
<linearGradient id="paint4_linear_2814_2801" x1="9.91304" y1="0" x2="9.91304" y2="1.73913" gradientUnits="userSpaceOnUse">
<stop stop-color="#F3F3F3"/>
<stop offset="1" stop-color="#0F172A"/>
</linearGradient>
</defs>
</svg>
